OTTestFont-Regular.ufo
<glyph name="exclam" format="1">
  <advance width="750"/>
  <unicode hex="0021"/>
  <outline>
    <contour>
      <point x="355" y="352" type="line" smooth="yes"/>
      <point x="355" y="343"/>
      <point x="361" y="337"/>
      <point x="370" y="337" type="curve" smooth="yes"/>
      <point x="380" y="337" type="line" smooth="yes"/>
      <point x="389" y="337"/>
      <point x="395" y="343"/>
      <point x="395" y="352" type="curve" smooth="yes"/>
      <point x="395" y="630" type="line" smooth="yes"/>
      <point x="395" y="639"/>
      <point x="389" y="645"/>
      <point x="380" y="645" type="curve" smooth="yes"/>
      <point x="370" y="645" type="line" smooth="yes"/>
      <point x="361" y="645"/>
      <point x="355" y="639"/>
      <point x="355" y="630" type="curve" smooth="yes"/>
    </contour>
    <contour>
      <point x="395" y="123" type="line" smooth="yes"/>
      <point x="395" y="132"/>
      <point x="389" y="138"/>
      <point x="380" y="138" type="curve" smooth="yes"/>
      <point x="370" y="138" type="line" smooth="yes"/>
      <point x="361" y="138"/>
      <point x="355" y="132"/>
      <point x="355" y="123" type="curve" smooth="yes"/>
      <point x="355" y="80" type="line" smooth="yes"/>
      <point x="355" y="71"/>
      <point x="361" y="65"/>
      <point x="370" y="65" type="curve" smooth="yes"/>
      <point x="380" y="65" type="line" smooth="yes"/>
      <point x="389" y="65"/>
      <point x="395" y="71"/>
      <point x="395" y="80" type="curve" smooth="yes"/>
    </contour>
  </outline>
</glyph>
<glyph name="quotedbl" format="1">
  <advance width="750"/>
  <unicode hex="0022"/>
  <outline>
    <contour>
      <point x="210" y="630" type="line" smooth="yes"/>
      <point x="210" y="633"/>
      <point x="212" y="635"/>
      <point x="215" y="635" type="curve" smooth="yes"/>
      <point x="225" y="635" type="line" smooth="yes"/>
      <point x="228" y="635"/>
      <point x="230" y="633"/>
      <point x="230" y="630" type="curve" smooth="yes"/>
      <point x="230" y="435" type="line" smooth="yes"/>
      <point x="230" y="432"/>
      <point x="228" y="430"/>
      <point x="225" y="430" type="curve" smooth="yes"/>
      <point x="215" y="430" type="line" smooth="yes"/>
      <point x="212" y="430"/>
      <point x="210" y="432"/>
      <point x="210" y="435" type="curve" smooth="yes"/>
    </contour>
    <contour>
      <point x="520" y="630" type="line" smooth="yes"/>
      <point x="520" y="633"/>
      <point x="522" y="635"/>
      <point x="525" y="635" type="curve" smooth="yes"/>
      <point x="535" y="635" type="line" smooth="yes"/>
      <point x="538" y="635"/>
      <point x="540" y="633"/>
      <point x="540" y="630" type="curve" smooth="yes"/>
      <point x="540" y="435" type="line" smooth="yes"/>
      <point x="540" y="432"/>
      <point x="538" y="430"/>
      <point x="535" y="430" type="curve" smooth="yes"/>
      <point x="525" y="430" type="line" smooth="yes"/>
      <point x="522" y="430"/>
      <point x="520" y="432"/>
      <point x="520" y="435" type="curve" smooth="yes"/>
    </contour>
  </outline>
</glyph>
<glyph name="numbersign" format="1">
  <advance width="750"/>
  <unicode hex="0023"/>
  <outline>
    <contour>
      <point x="212" y="89" type="curve"/>
      <point x="212" y="88" type="line"/>
      <point x="229" y="205" type="line"/>
      <point x="478" y="205" type="line"/>
      <point x="461" y="92" type="line" smooth="yes"/>
      <point x="461" y="91" type="line" smooth="yes"/>
      <point x="461" y="82"/>
      <point x="468" y="75"/>
      <point x="476" y="75" type="curve" smooth="yes"/>
      <point x="486" y="75" type="line" smooth="yes"/>
      <point x="493" y="75"/>
      <point x="501" y="83"/>
      <point x="501" y="89" type="curve"/>
      <point x="501" y="88" type="line"/>
      <point x="518" y="205" type="line"/>
      <point x="589" y="205" type="line" smooth="yes"/>
      <point x="598" y="205"/>
      <point x="604" y="211"/>
      <point x="604" y="220" type="curve" smooth="yes"/>
      <point x="604" y="230" type="line" smooth="yes"/>
      <point x="604" y="239"/>
      <point x="598" y="245"/>
      <point x="589" y="245" type="curve" smooth="yes"/>
      <point x="523" y="245" type="line"/>
      <point x="557" y="480" type="line"/>
      <point x="625" y="480" type="line" smooth="yes"/>
      <point x="634" y="480"/>
      <point x="640" y="486"/>
      <point x="640" y="495" type="curve" smooth="yes"/>
      <point x="640" y="505" type="line" smooth="yes"/>
      <point x="640" y="514"/>
      <point x="634" y="520"/>
      <point x="625" y="520" type="curve" smooth="yes"/>
      <point x="562" y="520" type="line"/>
      <point x="578" y="628" type="line" smooth="yes"/>
      <point x="578" y="629" type="line" smooth="yes"/>
      <point x="578" y="638"/>
      <point x="571" y="645"/>
      <point x="563" y="645" type="curve" smooth="yes"/>
      <point x="553" y="645" type="line" smooth="yes"/>
      <point x="546" y="645"/>
      <point x="538" y="637"/>
      <point x="538" y="631" type="curve"/>
      <point x="538" y="632" type="line"/>
      <point x="522" y="520" type="line"/>
      <point x="273" y="520" type="line"/>
      <point x="289" y="628" type="line" smooth="yes"/>
      <point x="289" y="629" type="line" smooth="yes"/>
      <point x="289" y="638"/>
      <point x="282" y="645"/>
      <point x="274" y="645" type="curve" smooth="yes"/>
      <point x="264" y="645" type="line" smooth="yes"/>
      <point x="257" y="645"/>
      <point x="249" y="637"/>
      <point x="249" y="631" type="curve"/>
      <point x="249" y="632" type="line"/>
      <point x="233" y="520" type="line"/>
      <point x="161" y="520" type="line" smooth="yes"/>
      <point x="152" y="520"/>
      <point x="146" y="514"/>
      <point x="146" y="505" type="curve" smooth="yes"/>
      <point x="146" y="495" type="line" smooth="yes"/>
      <point x="146" y="486"/>
      <point x="152" y="480"/>
      <point x="161" y="480" type="curve" smooth="yes"/>
      <point x="228" y="480" type="line"/>
      <point x="194" y="245" type="line"/>
      <point x="125" y="245" type="line" smooth="yes"/>
      <point x="116" y="245"/>
      <point x="110" y="239"/>
      <point x="110" y="230" type="curve" smooth="yes"/>
      <point x="110" y="220" type="line" smooth="yes"/>
      <point x="110" y="211"/>
      <point x="116" y="205"/>
      <point x="125" y="205" type="curve" smooth="yes"/>
      <point x="189" y="205" type="line"/>
      <point x="172" y="92" type="line" smooth="yes"/>
      <point x="172" y="91" type="line" smooth="yes"/>
      <point x="172" y="82"/>
      <point x="179" y="75"/>
      <point x="187" y="75" type="curve" smooth="yes"/>
      <point x="197" y="75" type="line" smooth="yes"/>
      <point x="204" y="75"/>
      <point x="212" y="83"/>
    </contour>
    <contour>
      <point x="234" y="245" type="line"/>
      <point x="268" y="480" type="line"/>
      <point x="517" y="480" type="line"/>
      <point x="483" y="245" type="line"/>
    </contour>
  </outline>
</glyph>
<glyph name="dollar" format="1">
  <advance width="750"/>
  <unicode hex="0024"/>
  <outline>
    <contour>
      <point x="373" y="720" type="line" smooth="yes"/>
      <point x="373" y="723"/>
      <point x="375" y="725"/>
      <point x="378" y="725" type="curve" smooth="yes"/>
      <point x="388" y="725" type="line" smooth="yes"/>
      <point x="391" y="725"/>
      <point x="393" y="723"/>
      <point x="393" y="720" type="curve" smooth="yes"/>
      <point x="393" y="626" type="line" smooth="yes"/>
      <point x="393" y="623"/>
      <point x="391" y="621"/>
      <point x="388" y="621" type="curve" smooth="yes"/>
      <point x="378" y="621" type="line" smooth="yes"/>
      <point x="375" y="621"/>
      <point x="373" y="623"/>
      <point x="373" y="626" type="curve" smooth="yes"/>
    </contour>
    <contour>
      <point x="373" y="94" type="line" smooth="yes"/>
      <point x="373" y="97"/>
      <point x="375" y="99"/>
      <point x="378" y="99" type="curve" smooth="yes"/>
      <point x="388" y="99" type="line" smooth="yes"/>
      <point x="391" y="99"/>
      <point x="393" y="97"/>
      <point x="393" y="94" type="curve" smooth="yes"/>
      <point x="393" y="0" type="line" smooth="yes"/>
      <point x="393" y="-3"/>
      <point x="391" y="-5"/>
      <point x="388" y="-5" type="curve" smooth="yes"/>
      <point x="378" y="-5" type="line" smooth="yes"/>
      <point x="375" y="-5"/>
      <point x="373" y="-3"/>
      <point x="373" y="0" type="curve" smooth="yes"/>
    </contour>
    <component base="S" xOffset="50"/>
  </outline>
</glyph>
<glyph name="percent" format="1">
  <advance width="750"/>
  <unicode hex="0025"/>
  <outline>
    <contour>
      <point x="195" y="583" type="curve" smooth="yes"/>
      <point x="195" y="437" type="line" smooth="yes"/>
      <point x="195" y="376"/>
      <point x="164" y="353"/>
      <point x="80" y="353" type="curve" smooth="yes"/>
      <point x="-3" y="353"/>
      <point x="-36" y="376"/>
      <point x="-36" y="437" type="curve" smooth="yes"/>
      <point x="-36" y="583" type="line" smooth="yes"/>
      <point x="-36" y="644"/>
      <point x="-3" y="668"/>
      <point x="80" y="668" type="curve" smooth="yes"/>
      <point x="164" y="668"/>
      <point x="195" y="644"/>
    </contour>
    <contour>
      <point x="80" y="373" type="curve" smooth="yes"/>
      <point x="144" y="373"/>
      <point x="175" y="388"/>
      <point x="175" y="437" type="curve" smooth="yes"/>
      <point x="175" y="583" type="line" smooth="yes"/>
      <point x="175" y="632"/>
      <point x="144" y="648"/>
      <point x="80" y="648" type="curve" smooth="yes"/>
      <point x="17" y="648"/>
      <point x="-16" y="632"/>
      <point x="-16" y="583" type="curve" smooth="yes"/>
      <point x="-16" y="437" type="line" smooth="yes"/>
      <point x="-16" y="388"/>
      <point x="17" y="373"/>
    </contour>
    <contour>
      <point x="323" y="89" type="line" smooth="yes"/>
      <point x="322" y="87"/>
      <point x="320" y="85"/>
      <point x="318" y="85" type="curve" smooth="yes"/>
      <point x="308" y="85" type="line" smooth="yes"/>
      <point x="304" y="85"/>
      <point x="302" y="88"/>
      <point x="303" y="91" type="curve" smooth="yes"/>
      <point x="436" y="631" type="line" smooth="yes"/>
      <point x="437" y="633"/>
      <point x="439" y="635"/>
      <point x="441" y="635" type="curve" smooth="yes"/>
      <point x="451" y="635" type="line" smooth="yes"/>
      <point x="455" y="635"/>
      <point x="457" y="632"/>
      <point x="456" y="629" type="curve" smooth="yes"/>
    </contour>
    <contour>
      <point x="795" y="280" type="curve" smooth="yes"/>
      <point x="795" y="134" type="line" smooth="yes"/>
      <point x="795" y="73"/>
      <point x="764" y="50"/>
      <point x="680" y="50" type="curve" smooth="yes"/>
      <point x="597" y="50"/>
      <point x="564" y="73"/>
      <point x="564" y="134" type="curve" smooth="yes"/>
      <point x="564" y="280" type="line" smooth="yes"/>
      <point x="564" y="341"/>
      <point x="597" y="365"/>
      <point x="680" y="365" type="curve" smooth="yes"/>
      <point x="764" y="365"/>
      <point x="795" y="341"/>
    </contour>
    <contour>
      <point x="680" y="70" type="curve" smooth="yes"/>
      <point x="744" y="70"/>
      <point x="775" y="85"/>
      <point x="775" y="134" type="curve" smooth="yes"/>
      <point x="775" y="280" type="line" smooth="yes"/>
      <point x="775" y="329"/>
      <point x="744" y="345"/>
      <point x="680" y="345" type="curve" smooth="yes"/>
      <point x="617" y="345"/>
      <point x="584" y="329"/>
      <point x="584" y="280" type="curve" smooth="yes"/>
      <point x="584" y="134" type="line" smooth="yes"/>
      <point x="584" y="85"/>
      <point x="617" y="70"/>
    </contour>
  </outline>
</glyph>
<glyph name="ampersand" format="1">
  <advance width="750"/>
  <unicode hex="0026"/>
  <outline>
    <contour>
      <point x="591" y="181" type="curve" smooth="yes"/>
      <point x="591" y="291" type="line"/>
      <point x="641" y="291" type="line" smooth="yes"/>
      <point x="650" y="291"/>
      <point x="656" y="297"/>
      <point x="656" y="306" type="curve" smooth="yes"/>
      <point x="656" y="316" type="line" smooth="yes"/>
      <point x="656" y="325"/>
      <point x="650" y="331"/>
      <point x="641" y="331" type="curve" smooth="yes"/>
      <point x="566" y="331" type="line" smooth="yes"/>
      <point x="557" y="331"/>
      <point x="551" y="325"/>
      <point x="551" y="316" type="curve" smooth="yes"/>
      <point x="551" y="181" type="line" smooth="yes"/>
      <point x="551" y="137"/>
      <point x="526" y="115"/>
      <point x="483" y="115" type="curve" smooth="yes"/>
      <point x="248" y="115" type="line" smooth="yes"/>
      <point x="181" y="115"/>
      <point x="150" y="139"/>
      <point x="150" y="198" type="curve" smooth="yes"/>
      <point x="150" y="259" type="line" smooth="yes"/>
      <point x="150" y="311"/>
      <point x="182" y="348"/>
      <point x="247" y="348" type="curve" smooth="yes"/>
      <point x="314" y="348" type="line" smooth="yes"/>
      <point x="323" y="348"/>
      <point x="329" y="354"/>
      <point x="329" y="363" type="curve" smooth="yes"/>
      <point x="329" y="373" type="line" smooth="yes"/>
      <point x="329" y="382"/>
      <point x="323" y="388"/>
      <point x="314" y="388" type="curve" smooth="yes"/>
      <point x="304" y="388" type="line" smooth="yes"/>
      <point x="251" y="388"/>
      <point x="227" y="415"/>
      <point x="227" y="469" type="curve" smooth="yes"/>
      <point x="227" y="523" type="line" smooth="yes"/>
      <point x="227" y="582"/>
      <point x="257" y="605"/>
      <point x="320" y="605" type="curve" smooth="yes"/>
      <point x="445" y="605" type="line" smooth="yes"/>
      <point x="454" y="605"/>
      <point x="460" y="611"/>
      <point x="460" y="620" type="curve" smooth="yes"/>
      <point x="460" y="630" type="line" smooth="yes"/>
      <point x="460" y="639"/>
      <point x="454" y="645"/>
      <point x="445" y="645" type="curve" smooth="yes"/>
      <point x="320" y="645" type="line" smooth="yes"/>
      <point x="227" y="645"/>
      <point x="187" y="608"/>
      <point x="187" y="525" type="curve" smooth="yes"/>
      <point x="187" y="469" type="line" smooth="yes"/>
      <point x="187" y="431"/>
      <point x="195" y="403"/>
      <point x="211" y="384" type="curve"/>
      <point x="142" y="372"/>
      <point x="110" y="323"/>
      <point x="110" y="259" type="curve" smooth="yes"/>
      <point x="110" y="198" type="line" smooth="yes"/>
      <point x="110" y="115"/>
      <point x="152" y="75"/>
      <point x="242" y="75" type="curve" smooth="yes"/>
      <point x="483" y="75" type="line" smooth="yes"/>
      <point x="551" y="75"/>
      <point x="591" y="109"/>
    </contour>
  </outline>
</glyph>
<glyph name="quotesingle" format="1">
  <advance width="750"/>
  <unicode hex="0027"/>
  <outline>
    <contour>
      <point x="355" y="435" type="line" smooth="yes"/>
      <point x="355" y="426"/>
      <point x="361" y="420"/>
      <point x="370" y="420" type="curve" smooth="yes"/>
      <point x="380" y="420" type="line" smooth="yes"/>
      <point x="389" y="420"/>
      <point x="395" y="426"/>
      <point x="395" y="435" type="curve" smooth="yes"/>
      <point x="395" y="630" type="line" smooth="yes"/>
      <point x="395" y="639"/>
      <point x="389" y="645"/>
      <point x="380" y="645" type="curve" smooth="yes"/>
      <point x="370" y="645" type="line" smooth="yes"/>
      <point x="361" y="645"/>
      <point x="355" y="639"/>
      <point x="355" y="630" type="curve" smooth="yes"/>
    </contour>
  </outline>
</glyph>
<glyph name="parenleft" format="1">
  <advance width="750"/>
  <unicode hex="0028"/>
  <outline>
    <contour>
      <point x="454" y="26" type="curve" smooth="yes"/>
      <point x="457" y="26"/>
      <point x="459" y="24"/>
      <point x="459" y="21" type="curve" smooth="yes"/>
      <point x="459" y="11" type="line" smooth="yes"/>
      <point x="459" y="8"/>
      <point x="457" y="6"/>
      <point x="454" y="6" type="curve" smooth="yes"/>
      <point x="363" y="6"/>
      <point x="312" y="33"/>
      <point x="312" y="124" type="curve" smooth="yes"/>
      <point x="312" y="595" type="line" smooth="yes"/>
      <point x="312" y="686"/>
      <point x="362" y="713"/>
      <point x="454" y="713" type="curve" smooth="yes"/>
      <point x="457" y="713"/>
      <point x="459" y="711"/>
      <point x="459" y="708" type="curve" smooth="yes"/>
      <point x="459" y="698" type="line" smooth="yes"/>
      <point x="459" y="695"/>
      <point x="457" y="693"/>
      <point x="454" y="693" type="curve" smooth="yes"/>
      <point x="378" y="693"/>
      <point x="332" y="674"/>
      <point x="332" y="595" type="curve" smooth="yes"/>
      <point x="332" y="124" type="line" smooth="yes"/>
      <point x="332" y="45"/>
      <point x="379" y="26"/>
    </contour>
  </outline>
</glyph>
<glyph name="parenright" format="1">
  <advance width="750"/>
  <unicode hex="0029"/>
  <outline>
    <contour>
      <point x="447" y="595" type="line" smooth="yes"/>
      <point x="447" y="692"/>
      <point x="395" y="723"/>
      <point x="295" y="723" type="curve" smooth="yes"/>
      <point x="286" y="723"/>
      <point x="280" y="717"/>
      <point x="280" y="708" type="curve" smooth="yes"/>
      <point x="280" y="698" type="line" smooth="yes"/>
      <point x="280" y="689"/>
      <point x="286" y="683"/>
      <point x="295" y="683" type="curve" smooth="yes"/>
      <point x="363" y="683"/>
      <point x="407" y="668"/>
      <point x="407" y="595" type="curve" smooth="yes"/>
      <point x="407" y="124" type="line" smooth="yes"/>
      <point x="407" y="51"/>
      <point x="362" y="36"/>
      <point x="295" y="36" type="curve" smooth="yes"/>
      <point x="286" y="36"/>
      <point x="280" y="30"/>
      <point x="280" y="21" type="curve" smooth="yes"/>
      <point x="280" y="11" type="line" smooth="yes"/>
      <point x="280" y="2"/>
      <point x="286" y="-4"/>
      <point x="295" y="-4" type="curve" smooth="yes"/>
      <point x="394" y="-4"/>
      <point x="447" y="27"/>
      <point x="447" y="124" type="curve" smooth="yes"/>
    </contour>
  </outline>
</glyph>
<glyph name="asterisk" format="1">
  <advance width="750"/>
  <unicode hex="002A"/>
  <outline>
    <contour>
      <point x="496" y="257" type="line"/>
      <point x="491" y="251"/>
      <point x="482" y="251"/>
      <point x="475" y="258" type="curve" smooth="yes"/>
      <point x="475" y="258"/>
      <point x="474" y="259"/>
      <point x="474" y="259" type="curve" smooth="yes"/>
      <point x="365" y="414" type="line" smooth="yes"/>
      <point x="359" y="423"/>
      <point x="362" y="430"/>
      <point x="373" y="430" type="curve" smooth="yes"/>
      <point x="381" y="430" type="line" smooth="yes"/>
      <point x="392" y="430"/>
      <point x="395" y="423"/>
      <point x="389" y="414" type="curve" smooth="yes"/>
      <point x="280" y="259" type="line" smooth="yes"/>
      <point x="280" y="259"/>
      <point x="279" y="258"/>
      <point x="279" y="258" type="curve" smooth="yes"/>
      <point x="272" y="251"/>
      <point x="263" y="251"/>
      <point x="258" y="257" type="curve"/>
      <point x="259" y="256" type="line"/>
      <point x="251" y="262" type="line" smooth="yes"/>
      <point x="251" y="262"/>
      <point x="250" y="263"/>
      <point x="250" y="263" type="curve" smooth="yes"/>
      <point x="243" y="270"/>
      <point x="243" y="279"/>
      <point x="249" y="284" type="curve"/>
      <point x="248" y="283" type="line"/>
      <point x="354" y="435" type="line" smooth="yes"/>
      <point x="360" y="444"/>
      <point x="369" y="443"/>
      <point x="372" y="431" type="curve" smooth="yes"/>
      <point x="374" y="423" type="line" smooth="yes"/>
      <point x="376" y="414"/>
      <point x="370" y="408"/>
      <point x="361" y="411" type="curve" smooth="yes"/>
      <point x="189" y="467" type="line" smooth="yes"/>
      <point x="189" y="468"/>
      <point x="188" y="468"/>
      <point x="188" y="468" type="curve" smooth="yes"/>
      <point x="182" y="471"/>
      <point x="177" y="479"/>
      <point x="180" y="487" type="curve"/>
      <point x="184" y="498" type="line" smooth="yes"/>
      <point x="184" y="498"/>
      <point x="184" y="498"/>
      <point x="184" y="498" type="curve" smooth="yes"/>
      <point x="187" y="504"/>
      <point x="195" y="509"/>
      <point x="203" y="506" type="curve" smooth="yes"/>
      <point x="377" y="450" type="line" smooth="yes"/>
      <point x="387" y="446"/>
      <point x="389" y="438"/>
      <point x="380" y="432" type="curve" smooth="yes"/>
      <point x="373" y="427" type="line" smooth="yes"/>
      <point x="364" y="421"/>
      <point x="357" y="424"/>
      <point x="357" y="435" type="curve" smooth="yes"/>
      <point x="357" y="630" type="line" smooth="yes"/>
      <point x="357" y="639"/>
      <point x="363" y="645"/>
      <point x="372" y="645" type="curve" smooth="yes"/>
      <point x="382" y="645" type="line" smooth="yes"/>
      <point x="391" y="645"/>
      <point x="397" y="639"/>
      <point x="397" y="630" type="curve" smooth="yes"/>
      <point x="397" y="435" type="line" smooth="yes"/>
      <point x="397" y="424"/>
      <point x="390" y="421"/>
      <point x="381" y="427" type="curve" smooth="yes"/>
      <point x="374" y="432" type="line" smooth="yes"/>
      <point x="365" y="438"/>
      <point x="367" y="446"/>
      <point x="377" y="450" type="curve" smooth="yes"/>
      <point x="551" y="507" type="line" smooth="yes"/>
      <point x="559" y="509"/>
      <point x="567" y="504"/>
      <point x="570" y="498" type="curve" smooth="yes"/>
      <point x="570" y="498"/>
      <point x="570" y="498"/>
      <point x="570" y="498" type="curve" smooth="yes"/>
      <point x="574" y="488" type="line"/>
      <point x="577" y="479"/>
      <point x="572" y="471"/>
      <point x="566" y="468" type="curve" smooth="yes"/>
      <point x="566" y="468"/>
      <point x="565" y="468"/>
      <point x="565" y="467" type="curve" smooth="yes"/>
      <point x="393" y="411" type="line" smooth="yes"/>
      <point x="384" y="408"/>
      <point x="378" y="414"/>
      <point x="380" y="423" type="curve" smooth="yes"/>
      <point x="382" y="431" type="line" smooth="yes"/>
      <point x="385" y="443"/>
      <point x="394" y="444"/>
      <point x="400" y="435" type="curve" smooth="yes"/>
      <point x="506" y="283" type="line"/>
      <point x="505" y="284" type="line"/>
      <point x="511" y="279"/>
      <point x="511" y="270"/>
      <point x="504" y="263" type="curve" smooth="yes"/>
      <point x="504" y="263"/>
      <point x="503" y="262"/>
      <point x="503" y="262" type="curve" smooth="yes"/>
      <point x="495" y="256" type="line"/>
    </contour>
  </outline>
</glyph>
<glyph name="plus" format="1">
  <advance width="750"/>
  <unicode hex="002B"/>
  <outline>
    <contour>
      <point x="370" y="148" type="line" smooth="yes"/>
      <point x="367" y="148"/>
      <point x="365" y="150"/>
      <point x="365" y="153" type="curve" smooth="yes"/>
      <point x="365" y="355" type="line"/>
      <point x="370" y="350" type="line"/>
      <point x="168" y="350" type="line" smooth="yes"/>
      <point x="165" y="350"/>
      <point x="163" y="352"/>
      <point x="163" y="355" type="curve" smooth="yes"/>
      <point x="163" y="365" type="line" smooth="yes"/>
      <point x="163" y="368"/>
      <point x="165" y="370"/>
      <point x="168" y="370" type="curve" smooth="yes"/>
      <point x="370" y="370" type="line"/>
      <point x="365" y="365" type="line"/>
      <point x="365" y="567" type="line" smooth="yes"/>
      <point x="365" y="570"/>
      <point x="367" y="572"/>
      <point x="370" y="572" type="curve" smooth="yes"/>
      <point x="380" y="572" type="line" smooth="yes"/>
      <point x="383" y="572"/>
      <point x="385" y="570"/>
      <point x="385" y="567" type="curve" smooth="yes"/>
      <point x="385" y="365" type="line"/>
      <point x="380" y="370" type="line"/>
      <point x="582" y="370" type="line" smooth="yes"/>
      <point x="585" y="370"/>
      <point x="587" y="368"/>
      <point x="587" y="365" type="curve" smooth="yes"/>
      <point x="587" y="355" type="line" smooth="yes"/>
      <point x="587" y="352"/>
      <point x="585" y="350"/>
      <point x="582" y="350" type="curve" smooth="yes"/>
      <point x="380" y="350" type="line"/>
      <point x="385" y="355" type="line"/>
      <point x="385" y="153" type="line" smooth="yes"/>
      <point x="385" y="150"/>
      <point x="383" y="148"/>
      <point x="380" y="148" type="curve" smooth="yes"/>
    </contour>
  </outline>
</glyph>
<glyph name="comma" format="1">
  <advance width="750"/>
  <unicode hex="002C"/>
  <outline>
    <contour>
      <point x="457" y="51" type="curve" smooth="yes"/>
      <point x="457" y="170" type="line" smooth="yes"/>
      <point x="457" y="179"/>
      <point x="451" y="185"/>
      <point x="442" y="185" type="curve" smooth="yes"/>
      <point x="308" y="185" type="line" smooth="yes"/>
      <point x="299" y="185"/>
      <point x="293" y="179"/>
      <point x="293" y="170" type="curve" smooth="yes"/>
      <point x="293" y="160" type="line" smooth="yes"/>
      <point x="293" y="151"/>
      <point x="299" y="145"/>
      <point x="308" y="145" type="curve" smooth="yes"/>
      <point x="417" y="145" type="line"/>
      <point x="417" y="51" type="line" smooth="yes"/>
      <point x="417" y="7"/>
      <point x="393" y="-15"/>
      <point x="354" y="-15" type="curve" smooth="yes"/>
      <point x="308" y="-15" type="line" smooth="yes"/>
      <point x="299" y="-15"/>
      <point x="293" y="-21"/>
      <point x="293" y="-30" type="curve" smooth="yes"/>
      <point x="293" y="-40" type="line" smooth="yes"/>
      <point x="293" y="-49"/>
      <point x="299" y="-55"/>
      <point x="308" y="-55" type="curve" smooth="yes"/>
      <point x="354" y="-55" type="line" smooth="yes"/>
      <point x="417" y="-55"/>
      <point x="457" y="-20"/>
    </contour>
  </outline>
</glyph>
<glyph name="hyphen" format="1">
  <advance width="750"/>
  <unicode hex="002D"/>
  <unicode hex="00AD"/>
  <unicode hex="2010"/>
  <unicode hex="2011"/>
  <outline>
    <contour>
      <point x="455" y="370" type="line" smooth="yes"/>
      <point x="458" y="370"/>
      <point x="460" y="368"/>
      <point x="460" y="365" type="curve" smooth="yes"/>
      <point x="460" y="355" type="line" smooth="yes"/>
      <point x="460" y="352"/>
      <point x="458" y="350"/>
      <point x="455" y="350" type="curve" smooth="yes"/>
      <point x="295" y="350" type="line" smooth="yes"/>
      <point x="292" y="350"/>
      <point x="290" y="352"/>
      <point x="290" y="355" type="curve" smooth="yes"/>
      <point x="290" y="365" type="line" smooth="yes"/>
      <point x="290" y="368"/>
      <point x="292" y="370"/>
      <point x="295" y="370" type="curve" smooth="yes"/>
    </contour>
  </outline>
</glyph>
<glyph name="period" format="1">
  <advance width="750"/>
  <unicode hex="002E"/>
  <outline>
    <contour>
      <point x="370" y="85" type="line" smooth="yes"/>
      <point x="367" y="85"/>
      <point x="365" y="87"/>
      <point x="365" y="90" type="curve" smooth="yes"/>
      <point x="365" y="185" type="line" smooth="yes"/>
      <point x="365" y="188"/>
      <point x="367" y="190"/>
      <point x="370" y="190" type="curve" smooth="yes"/>
      <point x="380" y="190" type="line" smooth="yes"/>
      <point x="383" y="190"/>
      <point x="385" y="188"/>
      <point x="385" y="185" type="curve" smooth="yes"/>
      <point x="385" y="90" type="line" smooth="yes"/>
      <point x="385" y="87"/>
      <point x="383" y="85"/>
      <point x="380" y="85" type="curve" smooth="yes"/>
    </contour>
  </outline>
</glyph>
<glyph name="slash" format="1">
  <advance width="750"/>
  <unicode hex="002F"/>
  <outline>
    <contour>
      <point x="417" y="721" type="line" smooth="yes"/>
      <point x="417" y="723"/>
      <point x="420" y="725"/>
      <point x="422" y="725" type="curve" smooth="yes"/>
      <point x="432" y="725" type="line" smooth="yes"/>
      <point x="435" y="725"/>
      <point x="437" y="722"/>
      <point x="437" y="719" type="curve" smooth="yes"/>
      <point x="333" y="-1" type="line" smooth="yes"/>
      <point x="333" y="-3"/>
      <point x="330" y="-5"/>
      <point x="328" y="-5" type="curve" smooth="yes"/>
      <point x="318" y="-5" type="line" smooth="yes"/>
      <point x="315" y="-5"/>
      <point x="313" y="-2"/>
      <point x="313" y="1" type="curve" smooth="yes"/>
    </contour>
  </outline>
</glyph>
<glyph name="zero" format="1">
  <advance width="750"/>
  <unicode hex="0030"/>
  <outline>
    <contour>
      <point x="172" y="212" type="curve" smooth="yes"/>
      <point x="172" y="507" type="line" smooth="yes"/>
      <point x="172" y="589"/>
      <point x="212" y="647"/>
      <point x="374" y="647" type="curve" smooth="yes"/>
      <point x="536" y="647"/>
      <point x="578" y="588"/>
      <point x="578" y="507" type="curve" smooth="yes"/>
      <point x="578" y="212" type="line" smooth="yes"/>
      <point x="578" y="130"/>
      <point x="536" y="72"/>
      <point x="374" y="72" type="curve" smooth="yes"/>
      <point x="212" y="72"/>
      <point x="172" y="130"/>
    </contour>
    <contour>
      <point x="374" y="627" type="curve" smooth="yes"/>
      <point x="236" y="627"/>
      <point x="192" y="581"/>
      <point x="192" y="507" type="curve" smooth="yes"/>
      <point x="192" y="212" type="line" smooth="yes"/>
      <point x="192" y="138"/>
      <point x="236" y="92"/>
      <point x="374" y="92" type="curve" smooth="yes"/>
      <point x="512" y="92"/>
      <point x="558" y="138"/>
      <point x="558" y="212" type="curve" smooth="yes"/>
      <point x="558" y="507" type="line" smooth="yes"/>
      <point x="558" y="580"/>
      <point x="512" y="627"/>
    </contour>
    <contour>
      <point x="374" y="747" type="move" name="top"/>
    </contour>
    <contour>
      <point x="374" y="0" type="move" name="bottom"/>
    </contour>
  </outline>
</glyph>
<glyph name="one" format="1">
  <advance width="750"/>
  <unicode hex="0031"/>
  <outline>
    <contour>
      <point x="561" y="85" type="curve" smooth="yes"/>
      <point x="561" y="95" type="line" smooth="yes"/>
      <point x="561" y="104"/>
      <point x="555" y="110"/>
      <point x="546" y="110" type="curve" smooth="yes"/>
      <point x="407" y="110" type="line"/>
      <point x="407" y="630" type="line" smooth="yes"/>
      <point x="407" y="639"/>
      <point x="401" y="645"/>
      <point x="392" y="645" type="curve" smooth="yes"/>
      <point x="232" y="645" type="line" smooth="yes"/>
      <point x="223" y="645"/>
      <point x="217" y="639"/>
      <point x="217" y="630" type="curve" smooth="yes"/>
      <point x="217" y="620" type="line" smooth="yes"/>
      <point x="217" y="611"/>
      <point x="223" y="605"/>
      <point x="232" y="605" type="curve" smooth="yes"/>
      <point x="367" y="605" type="line"/>
      <point x="367" y="110" type="line"/>
      <point x="212" y="110" type="line" smooth="yes"/>
      <point x="203" y="110"/>
      <point x="197" y="104"/>
      <point x="197" y="95" type="curve" smooth="yes"/>
      <point x="197" y="85" type="line" smooth="yes"/>
      <point x="197" y="76"/>
      <point x="203" y="70"/>
      <point x="212" y="70" type="curve" smooth="yes"/>
      <point x="546" y="70" type="line" smooth="yes"/>
      <point x="555" y="70"/>
      <point x="561" y="76"/>
    </contour>
  </outline>
</glyph>
<glyph name="two" format="1">
  <advance width="750"/>
  <unicode hex="0032"/>
  <outline>
    <contour>
      <point x="568" y="90" type="line" smooth="yes"/>
      <point x="568" y="81"/>
      <point x="562" y="75"/>
      <point x="553" y="75" type="curve" smooth="yes"/>
      <point x="204" y="75" type="line" smooth="yes"/>
      <point x="195" y="75"/>
      <point x="189" y="81"/>
      <point x="189" y="90" type="curve" smooth="yes"/>
      <point x="189" y="246" type="line" smooth="yes"/>
      <point x="189" y="304"/>
      <point x="206" y="326"/>
      <point x="254" y="342" type="curve" smooth="yes"/>
      <point x="486" y="419" type="line"/>
      <point x="498" y="424"/>
      <point x="506" y="435"/>
      <point x="506" y="452" type="curve" smooth="yes"/>
      <point x="506" y="543" type="line" smooth="yes"/>
      <point x="506" y="595"/>
      <point x="472" y="605"/>
      <point x="424" y="605" type="curve" smooth="yes"/>
      <point x="223" y="605" type="line" smooth="yes"/>
      <point x="214" y="605"/>
      <point x="208" y="611"/>
      <point x="208" y="620" type="curve" smooth="yes"/>
      <point x="208" y="630" type="line" smooth="yes"/>
      <point x="208" y="639"/>
      <point x="214" y="645"/>
      <point x="223" y="645" type="curve" smooth="yes"/>
      <point x="424" y="645" type="line" smooth="yes"/>
      <point x="504" y="645"/>
      <point x="546" y="619"/>
      <point x="546" y="543" type="curve" smooth="yes"/>
      <point x="546" y="452" type="line" smooth="yes"/>
      <point x="546" y="413"/>
      <point x="528" y="393"/>
      <point x="502" y="382" type="curve" smooth="yes"/>
      <point x="502" y="382"/>
      <point x="501" y="382"/>
      <point x="501" y="382" type="curve" smooth="yes"/>
      <point x="268" y="305" type="line" smooth="yes"/>
      <point x="237" y="294"/>
      <point x="228" y="282"/>
      <point x="228" y="246" type="curve" smooth="yes"/>
      <point x="228" y="105" type="line"/>
      <point x="218" y="115" type="line"/>
      <point x="553" y="115" type="line" smooth="yes"/>
      <point x="562" y="115"/>
      <point x="568" y="109"/>
      <point x="568" y="100" type="curve" smooth="yes"/>
    </contour>
  </outline>
</glyph>
<glyph name="three" format="1">
  <advance width="750"/>
  <unicode hex="0033"/>
  <outline>
    <contour>
      <point x="276" y="344" type="line" smooth="yes"/>
      <point x="267" y="344"/>
      <point x="261" y="350"/>
      <point x="261" y="359" type="curve" smooth="yes"/>
      <point x="261" y="369" type="line" smooth="yes"/>
      <point x="261" y="378"/>
      <point x="267" y="384"/>
      <point x="276" y="384" type="curve" smooth="yes"/>
      <point x="359" y="384" type="line" smooth="yes"/>
      <point x="443" y="384"/>
      <point x="455" y="418"/>
      <point x="455" y="460" type="curve" smooth="yes"/>
      <point x="455" y="528" type="line" smooth="yes"/>
      <point x="455" y="574"/>
      <point x="431" y="605"/>
      <point x="349" y="605" type="curve" smooth="yes"/>
      <point x="195" y="605" type="line" smooth="yes"/>
      <point x="186" y="605"/>
      <point x="180" y="611"/>
      <point x="180" y="620" type="curve" smooth="yes"/>
      <point x="180" y="630" type="line" smooth="yes"/>
      <point x="180" y="639"/>
      <point x="186" y="645"/>
      <point x="195" y="645" type="curve" smooth="yes"/>
      <point x="349" y="645" type="line" smooth="yes"/>
      <point x="475" y="645"/>
      <point x="495" y="588"/>
      <point x="495" y="524" type="curve" smooth="yes"/>
      <point x="495" y="460" type="line" smooth="yes"/>
      <point x="495" y="416"/>
      <point x="486" y="368"/>
      <point x="417" y="352" type="curve" smooth="yes"/>
      <point x="411" y="351"/>
      <point x="406" y="355"/>
      <point x="405" y="361" type="curve" smooth="yes"/>
      <point x="404" y="371" type="line" smooth="yes"/>
      <point x="403" y="377"/>
      <point x="408" y="382"/>
      <point x="414" y="382" type="curve" smooth="yes"/>
      <point x="430" y="382" type="line" smooth="yes"/>
      <point x="525" y="382"/>
      <point x="561" y="338"/>
      <point x="561" y="259" type="curve" smooth="yes"/>
      <point x="561" y="190" type="line" smooth="yes"/>
      <point x="561" y="125"/>
      <point x="544" y="75"/>
      <point x="415" y="75" type="curve" smooth="yes"/>
      <point x="195" y="75" type="line" smooth="yes"/>
      <point x="186" y="75"/>
      <point x="180" y="81"/>
      <point x="180" y="90" type="curve" smooth="yes"/>
      <point x="180" y="100" type="line" smooth="yes"/>
      <point x="180" y="109"/>
      <point x="186" y="115"/>
      <point x="195" y="115" type="curve" smooth="yes"/>
      <point x="415" y="115" type="line" smooth="yes"/>
      <point x="498" y="115"/>
      <point x="521" y="142"/>
      <point x="521" y="190" type="curve" smooth="yes"/>
      <point x="521" y="259" type="line" smooth="yes"/>
      <point x="521" y="317"/>
      <point x="493" y="344"/>
      <point x="428" y="344" type="curve" smooth="yes"/>
    </contour>
  </outline>
</glyph>
<glyph name="four" format="1">
  <advance width="750"/>
  <unicode hex="0034"/>
  <outline>
    <contour>
      <point x="542" y="75" type="line" smooth="yes"/>
      <point x="533" y="75"/>
      <point x="527" y="81"/>
      <point x="527" y="90" type="curve" smooth="yes"/>
      <point x="527" y="267" type="line" smooth="yes"/>
      <point x="527" y="279"/>
      <point x="535" y="283"/>
      <point x="544" y="274" type="curve" smooth="yes"/>
      <point x="549" y="269" type="line" smooth="yes"/>
      <point x="558" y="260"/>
      <point x="554" y="252"/>
      <point x="542" y="252" type="curve" smooth="yes"/>
      <point x="303" y="252" type="line" smooth="yes"/>
      <point x="215" y="252"/>
      <point x="177" y="293"/>
      <point x="177" y="372" type="curve" smooth="yes"/>
      <point x="177" y="630" type="line" smooth="yes"/>
      <point x="177" y="639"/>
      <point x="183" y="645"/>
      <point x="192" y="645" type="curve" smooth="yes"/>
      <point x="202" y="645" type="line" smooth="yes"/>
      <point x="211" y="645"/>
      <point x="217" y="639"/>
      <point x="217" y="630" type="curve" smooth="yes"/>
      <point x="217" y="372" type="line" smooth="yes"/>
      <point x="217" y="317"/>
      <point x="245" y="292"/>
      <point x="303" y="292" type="curve" smooth="yes"/>
      <point x="542" y="292" type="line" smooth="yes"/>
      <point x="554" y="292"/>
      <point x="558" y="284"/>
      <point x="549" y="275" type="curve" smooth="yes"/>
      <point x="544" y="270" type="line" smooth="yes"/>
      <point x="535" y="261"/>
      <point x="527" y="265"/>
      <point x="527" y="277" type="curve" smooth="yes"/>
      <point x="527" y="630" type="line" smooth="yes"/>
      <point x="527" y="639"/>
      <point x="533" y="645"/>
      <point x="542" y="645" type="curve" smooth="yes"/>
      <point x="552" y="645" type="line" smooth="yes"/>
      <point x="561" y="645"/>
      <point x="567" y="639"/>
      <point x="567" y="630" type="curve" smooth="yes"/>
      <point x="567" y="90" type="line" smooth="yes"/>
      <point x="567" y="81"/>
      <point x="561" y="75"/>
      <point x="552" y="75" type="curve" smooth="yes"/>
    </contour>
  </outline>
</glyph>
<glyph name="five" format="1">
  <advance width="750"/>
  <unicode hex="0035"/>
  <outline>
    <contour>
      <point x="196" y="85" type="line" smooth="yes"/>
      <point x="193" y="85"/>
      <point x="191" y="87"/>
      <point x="191" y="90" type="curve" smooth="yes"/>
      <point x="191" y="100" type="line" smooth="yes"/>
      <point x="191" y="103"/>
      <point x="193" y="105"/>
      <point x="196" y="105" type="curve" smooth="yes"/>
      <point x="432" y="105" type="line" smooth="yes"/>
      <point x="503" y="105"/>
      <point x="531" y="129"/>
      <point x="531" y="188" type="curve" smooth="yes"/>
      <point x="531" y="276" type="line" smooth="yes"/>
      <point x="531" y="336"/>
      <point x="499" y="359"/>
      <point x="441" y="359" type="curve" smooth="yes"/>
      <point x="225" y="359" type="line" smooth="yes"/>
      <point x="222" y="359"/>
      <point x="220" y="361"/>
      <point x="220" y="364" type="curve" smooth="yes"/>
      <point x="220" y="630" type="line" smooth="yes"/>
      <point x="220" y="633"/>
      <point x="222" y="635"/>
      <point x="225" y="635" type="curve" smooth="yes"/>
      <point x="529" y="635" type="line" smooth="yes"/>
      <point x="532" y="635"/>
      <point x="534" y="633"/>
      <point x="534" y="630" type="curve" smooth="yes"/>
      <point x="534" y="620" type="line" smooth="yes"/>
      <point x="534" y="617"/>
      <point x="532" y="615"/>
      <point x="529" y="615" type="curve" smooth="yes"/>
      <point x="235" y="615" type="line"/>
      <point x="240" y="620" type="line"/>
      <point x="240" y="374" type="line"/>
      <point x="235" y="379" type="line"/>
      <point x="441" y="379" type="line" smooth="yes"/>
      <point x="515" y="379"/>
      <point x="551" y="348"/>
      <point x="551" y="276" type="curve" smooth="yes"/>
      <point x="551" y="188" type="line" smooth="yes"/>
      <point x="551" y="117"/>
      <point x="519" y="85"/>
      <point x="432" y="85" type="curve" smooth="yes"/>
    </contour>
  </outline>
</glyph>
<glyph name="six" format="1">
  <advance width="750"/>
  <unicode hex="0036"/>
  <outline>
    <contour>
      <point x="581" y="187" type="curve" smooth="yes"/>
      <point x="581" y="275" type="line" smooth="yes"/>
      <point x="581" y="387"/>
      <point x="504" y="398"/>
      <point x="392" y="398" type="curve" smooth="yes"/>
      <point x="319" y="398"/>
      <point x="259" y="394"/>
      <point x="223" y="368" type="curve"/>
      <point x="223" y="515" type="line" smooth="yes"/>
      <point x="223" y="588"/>
      <point x="266" y="605"/>
      <point x="332" y="605" type="curve" smooth="yes"/>
      <point x="508" y="605" type="line" smooth="yes"/>
      <point x="517" y="605"/>
      <point x="523" y="611"/>
      <point x="523" y="620" type="curve" smooth="yes"/>
      <point x="523" y="630" type="line" smooth="yes"/>
      <point x="523" y="639"/>
      <point x="517" y="645"/>
      <point x="508" y="645" type="curve" smooth="yes"/>
      <point x="332" y="645" type="line" smooth="yes"/>
      <point x="236" y="645"/>
      <point x="183" y="614"/>
      <point x="183" y="515" type="curve" smooth="yes"/>
      <point x="183" y="187" type="line" smooth="yes"/>
      <point x="183" y="76"/>
      <point x="267" y="56"/>
      <point x="389" y="56" type="curve" smooth="yes"/>
      <point x="502" y="56"/>
      <point x="581" y="77"/>
    </contour>
    <contour>
      <point x="223" y="187" type="curve" smooth="yes"/>
      <point x="223" y="278" type="line" smooth="yes"/>
      <point x="223" y="367"/>
      <point x="317" y="358"/>
      <point x="392" y="358" type="curve" smooth="yes"/>
      <point x="467" y="358"/>
      <point x="541" y="363"/>
      <point x="541" y="275" type="curve" smooth="yes"/>
      <point x="541" y="187" type="line" smooth="yes"/>
      <point x="541" y="101"/>
      <point x="468" y="96"/>
      <point x="389" y="96" type="curve" smooth="yes"/>
      <point x="305" y="96"/>
      <point x="223" y="98"/>
    </contour>
  </outline>
</glyph>
<glyph name="seven" format="1">
  <advance width="750"/>
  <unicode hex="0037"/>
  <outline>
    <contour>
      <point x="284" y="85" type="line" smooth="yes"/>
      <point x="281" y="85"/>
      <point x="279" y="87"/>
      <point x="279" y="90" type="curve" smooth="yes"/>
      <point x="279" y="240" type="line" smooth="yes"/>
      <point x="279" y="274"/>
      <point x="294" y="291"/>
      <point x="317" y="301" type="curve" smooth="yes"/>
      <point x="487" y="369" type="line" smooth="yes"/>
      <point x="505" y="376"/>
      <point x="513" y="388"/>
      <point x="513" y="410" type="curve" smooth="yes"/>
      <point x="513" y="620" type="line"/>
      <point x="518" y="615" type="line"/>
      <point x="189" y="615" type="line" smooth="yes"/>
      <point x="186" y="615"/>
      <point x="184" y="617"/>
      <point x="184" y="620" type="curve" smooth="yes"/>
      <point x="184" y="630" type="line" smooth="yes"/>
      <point x="184" y="633"/>
      <point x="186" y="635"/>
      <point x="189" y="635" type="curve" smooth="yes"/>
      <point x="528" y="635" type="line" smooth="yes"/>
      <point x="531" y="635"/>
      <point x="533" y="633"/>
      <point x="533" y="630" type="curve" smooth="yes"/>
      <point x="533" y="410" type="line" smooth="yes"/>
      <point x="533" y="376"/>
      <point x="521" y="360"/>
      <point x="495" y="349" type="curve" smooth="yes"/>
      <point x="325" y="281" type="line" smooth="yes"/>
      <point x="310" y="275"/>
      <point x="299" y="262"/>
      <point x="299" y="240" type="curve" smooth="yes"/>
      <point x="299" y="90" type="line" smooth="yes"/>
      <point x="299" y="87"/>
      <point x="297" y="85"/>
      <point x="294" y="85" type="curve" smooth="yes"/>
    </contour>
  </outline>
</glyph>
<glyph name="eight" format="1">
  <advance width="750"/>
  <unicode hex="0038"/>
  <outline>
    <contour>
      <point x="592" y="173" type="curve" smooth="yes"/>
      <point x="592" y="266" type="line" smooth="yes"/>
      <point x="592" y="312"/>
      <point x="574" y="350"/>
      <point x="509" y="372" type="curve"/>
      <point x="543" y="390"/>
      <point x="556" y="418"/>
      <point x="556" y="455" type="curve" smooth="yes"/>
      <point x="556" y="550" type="line" smooth="yes"/>
      <point x="556" y="626"/>
      <point x="509" y="667"/>
      <point x="375" y="667" type="curve" smooth="yes"/>
      <point x="240" y="667"/>
      <point x="193" y="626"/>
      <point x="193" y="558" type="curve" smooth="yes"/>
      <point x="193" y="455" type="line" smooth="yes"/>
      <point x="193" y="418"/>
      <point x="207" y="390"/>
      <point x="241" y="372" type="curve"/>
      <point x="176" y="350"/>
      <point x="157" y="311"/>
      <point x="157" y="265" type="curve" smooth="yes"/>
      <point x="157" y="173" type="line" smooth="yes"/>
      <point x="157" y="106"/>
      <point x="191" y="52"/>
      <point x="375" y="52" type="curve" smooth="yes"/>
      <point x="559" y="52"/>
      <point x="592" y="106"/>
    </contour>
    <contour>
      <point x="375" y="627" type="curve" smooth="yes"/>
      <point x="463" y="627"/>
      <point x="516" y="610"/>
      <point x="516" y="550" type="curve" smooth="yes"/>
      <point x="516" y="455" type="line" smooth="yes"/>
      <point x="516" y="403"/>
      <point x="461" y="389"/>
      <point x="375" y="389" type="curve" smooth="yes"/>
      <point x="289" y="389"/>
      <point x="233" y="403"/>
      <point x="233" y="455" type="curve" smooth="yes"/>
      <point x="233" y="558" type="line" smooth="yes"/>
      <point x="233" y="610"/>
      <point x="289" y="627"/>
    </contour>
    <contour>
      <point x="375" y="349" type="curve" smooth="yes"/>
      <point x="497" y="349"/>
      <point x="552" y="319"/>
      <point x="552" y="266" type="curve" smooth="yes"/>
      <point x="552" y="173" type="line" smooth="yes"/>
      <point x="552" y="120"/>
      <point x="497" y="92"/>
      <point x="375" y="92" type="curve" smooth="yes"/>
      <point x="253" y="92"/>
      <point x="197" y="120"/>
      <point x="197" y="173" type="curve" smooth="yes"/>
      <point x="197" y="265" type="line" smooth="yes"/>
      <point x="197" y="318"/>
      <point x="253" y="349"/>
    </contour>
  </outline>
</glyph>
<glyph name="nine" format="1">
  <advance width="750"/>
  <unicode hex="0039"/>
  <outline>
    <contour>
      <point x="241" y="85" type="line" smooth="yes"/>
      <point x="238" y="85"/>
      <point x="236" y="87"/>
      <point x="236" y="90" type="curve" smooth="yes"/>
      <point x="236" y="100" type="line" smooth="yes"/>
      <point x="236" y="103"/>
      <point x="238" y="105"/>
      <point x="241" y="105" type="curve" smooth="yes"/>
      <point x="417" y="105" type="line" smooth="yes"/>
      <point x="490" y="105"/>
      <point x="536" y="125"/>
      <point x="536" y="205" type="curve" smooth="yes"/>
      <point x="536" y="393" type="line"/>
      <point x="546" y="391" type="line"/>
      <point x="521" y="337"/>
      <point x="449" y="332"/>
      <point x="357" y="332" type="curve" smooth="yes"/>
      <point x="254" y="332"/>
      <point x="178" y="339"/>
      <point x="178" y="445" type="curve" smooth="yes"/>
      <point x="178" y="533" type="line" smooth="yes"/>
      <point x="178" y="637"/>
      <point x="256" y="654"/>
      <point x="360" y="654" type="curve" smooth="yes"/>
      <point x="473" y="654"/>
      <point x="556" y="639"/>
      <point x="556" y="533" type="curve" smooth="yes"/>
      <point x="556" y="205" type="line" smooth="yes"/>
      <point x="556" y="113"/>
      <point x="506" y="85"/>
      <point x="417" y="85" type="curve" smooth="yes"/>
    </contour>
    <contour>
      <point x="357" y="352" type="curve" smooth="yes"/>
      <point x="441" y="352"/>
      <point x="536" y="348"/>
      <point x="536" y="442" type="curve" smooth="yes"/>
      <point x="536" y="533" type="line" smooth="yes"/>
      <point x="536" y="627"/>
      <point x="453" y="634"/>
      <point x="360" y="634" type="curve" smooth="yes"/>
      <point x="272" y="634"/>
      <point x="198" y="625"/>
      <point x="198" y="533" type="curve" smooth="yes"/>
      <point x="198" y="445" type="line" smooth="yes"/>
      <point x="198" y="351"/>
      <point x="273" y="352"/>
    </contour>
  </outline>
</glyph>
<glyph name="less" format="1">
  <advance width="750"/>
  <unicode hex="003C"/>
  <outline>
    <contour>
      <point x="557" y="190" type="curve" smooth="yes"/>
      <point x="563" y="187"/>
      <point x="567" y="181"/>
      <point x="567" y="176" type="curve" smooth="yes"/>
      <point x="567" y="166" type="line" smooth="yes"/>
      <point x="567" y="153"/>
      <point x="557" y="149"/>
      <point x="548" y="152" type="curve" smooth="yes"/>
      <point x="248" y="237" type="line" smooth="yes"/>
      <point x="206" y="250"/>
      <point x="179" y="270"/>
      <point x="179" y="323" type="curve" smooth="yes"/>
      <point x="179" y="395" type="line" smooth="yes"/>
      <point x="179" y="448"/>
      <point x="206" y="465"/>
      <point x="248" y="478" type="curve" smooth="yes"/>
      <point x="548" y="564" type="line" smooth="yes"/>
      <point x="557" y="566"/>
      <point x="567" y="562"/>
      <point x="567" y="549" type="curve" smooth="yes"/>
      <point x="567" y="539" type="line" smooth="yes"/>
      <point x="567" y="534"/>
      <point x="563" y="528"/>
      <point x="557" y="525" type="curve" smooth="yes"/>
      <point x="557" y="525"/>
      <point x="556" y="525"/>
      <point x="556" y="524" type="curve" smooth="yes"/>
      <point x="258" y="438" type="line" smooth="yes"/>
      <point x="237" y="433"/>
      <point x="219" y="424"/>
      <point x="219" y="395" type="curve" smooth="yes"/>
      <point x="219" y="323" type="line" smooth="yes"/>
      <point x="219" y="294"/>
      <point x="237" y="282"/>
      <point x="258" y="277" type="curve" smooth="yes"/>
      <point x="556" y="191" type="line" smooth="yes"/>
      <point x="556" y="190"/>
      <point x="557" y="190"/>
    </contour>
  </outline>
</glyph>
<glyph name="equal" format="1">
  <advance width="750"/>
  <unicode hex="003D"/>
  <outline>
    <contour>
      <point x="168" y="490" type="line" smooth="yes"/>
      <point x="159" y="490"/>
      <point x="153" y="496"/>
      <point x="153" y="505" type="curve" smooth="yes"/>
      <point x="153" y="515" type="line" smooth="yes"/>
      <point x="153" y="524"/>
      <point x="159" y="530"/>
      <point x="168" y="530" type="curve" smooth="yes"/>
      <point x="582" y="530" type="line" smooth="yes"/>
      <point x="591" y="530"/>
      <point x="597" y="524"/>
      <point x="597" y="515" type="curve" smooth="yes"/>
      <point x="597" y="505" type="line" smooth="yes"/>
      <point x="597" y="496"/>
      <point x="591" y="490"/>
      <point x="582" y="490" type="curve" smooth="yes"/>
    </contour>
    <contour>
      <point x="168" y="190" type="line" smooth="yes"/>
      <point x="159" y="190"/>
      <point x="153" y="196"/>
      <point x="153" y="205" type="curve" smooth="yes"/>
      <point x="153" y="215" type="line" smooth="yes"/>
      <point x="153" y="224"/>
      <point x="159" y="230"/>
      <point x="168" y="230" type="curve" smooth="yes"/>
      <point x="582" y="230" type="line" smooth="yes"/>
      <point x="591" y="230"/>
      <point x="597" y="224"/>
      <point x="597" y="215" type="curve" smooth="yes"/>
      <point x="597" y="205" type="line" smooth="yes"/>
      <point x="597" y="196"/>
      <point x="591" y="190"/>
      <point x="582" y="190" type="curve" smooth="yes"/>
    </contour>
    <contour>
      <point x="168" y="520" type="curve" smooth="yes"/>
      <point x="582" y="520" type="line" smooth="yes"/>
      <point x="594" y="520"/>
      <point x="598" y="512"/>
      <point x="589" y="503" type="curve" smooth="yes"/>
      <point x="584" y="498" type="line" smooth="yes"/>
      <point x="575" y="489"/>
      <point x="567" y="493"/>
      <point x="567" y="505" type="curve" smooth="yes"/>
      <point x="567" y="515" type="line" smooth="yes"/>
      <point x="567" y="527"/>
      <point x="575" y="531"/>
      <point x="584" y="522" type="curve" smooth="yes"/>
      <point x="589" y="517" type="line" smooth="yes"/>
      <point x="598" y="508"/>
      <point x="594" y="500"/>
      <point x="582" y="500" type="curve" smooth="yes"/>
      <point x="168" y="500" type="line" smooth="yes"/>
      <point x="156" y="500"/>
      <point x="152" y="508"/>
      <point x="161" y="517" type="curve" smooth="yes"/>
      <point x="166" y="522" type="line" smooth="yes"/>
      <point x="175" y="531"/>
      <point x="183" y="527"/>
      <point x="183" y="515" type="curve" smooth="yes"/>
      <point x="183" y="505" type="line" smooth="yes"/>
      <point x="183" y="493"/>
      <point x="175" y="489"/>
      <point x="166" y="498" type="curve" smooth="yes"/>
      <point x="161" y="503" type="line" smooth="yes"/>
      <point x="152" y="512"/>
      <point x="156" y="520"/>
    </contour>
  </outline>
</glyph>
<glyph name="greater" format="1">
  <advance width="750"/>
  <unicode hex="003E"/>
  <outline>
    <contour>
      <point x="499" y="247" type="curve" smooth="yes"/>
      <point x="499" y="247" type="line"/>
      <point x="199" y="161" type="line" smooth="yes"/>
      <point x="196" y="160"/>
      <point x="193" y="162"/>
      <point x="193" y="166" type="curve" smooth="yes"/>
      <point x="193" y="176" type="line" smooth="yes"/>
      <point x="193" y="178"/>
      <point x="195" y="180"/>
      <point x="197" y="181" type="curve" smooth="yes"/>
      <point x="495" y="267" type="line" smooth="yes"/>
      <point x="520" y="274"/>
      <point x="541" y="288"/>
      <point x="541" y="323" type="curve" smooth="yes"/>
      <point x="541" y="395" type="line" smooth="yes"/>
      <point x="541" y="430"/>
      <point x="520" y="441"/>
      <point x="495" y="448" type="curve" smooth="yes"/>
      <point x="197" y="534" type="line" smooth="yes"/>
      <point x="195" y="535"/>
      <point x="193" y="537"/>
      <point x="193" y="539" type="curve" smooth="yes"/>
      <point x="193" y="549" type="line" smooth="yes"/>
      <point x="193" y="553"/>
      <point x="196" y="555"/>
      <point x="199" y="554" type="curve" smooth="yes"/>
      <point x="499" y="468" type="line" smooth="yes"/>
      <point x="536" y="457"/>
      <point x="561" y="442"/>
      <point x="561" y="395" type="curve" smooth="yes"/>
      <point x="561" y="323" type="line" smooth="yes"/>
      <point x="561" y="276"/>
      <point x="536" y="258"/>
    </contour>
  </outline>
</glyph>
<glyph name="question" format="1">
  <advance width="750"/>
  <unicode hex="003F"/>
  <outline>
    <contour>
      <point x="273" y="325" type="curve" smooth="yes"/>
      <point x="266" y="325"/>
      <point x="261" y="330"/>
      <point x="258" y="335" type="curve" smooth="yes"/>
      <point x="258" y="335"/>
      <point x="257" y="336"/>
      <point x="257" y="337" type="curve" smooth="yes"/>
      <point x="255" y="348" type="line" smooth="yes"/>
      <point x="255" y="349"/>
      <point x="255" y="350"/>
      <point x="255" y="350" type="curve" smooth="yes"/>
      <point x="255" y="361"/>
      <point x="261" y="366"/>
      <point x="269" y="366" type="curve"/>
      <point x="268" y="366" type="line"/>
      <point x="484" y="395" type="line" smooth="yes"/>
      <point x="500" y="397"/>
      <point x="520" y="398"/>
      <point x="520" y="424" type="curve" smooth="yes"/>
      <point x="520" y="537" type="line" smooth="yes"/>
      <point x="520" y="590"/>
      <point x="484" y="603"/>
      <point x="451" y="603" type="curve" smooth="yes"/>
      <point x="182" y="603" type="line" smooth="yes"/>
      <point x="173" y="603"/>
      <point x="167" y="609"/>
      <point x="167" y="618" type="curve" smooth="yes"/>
      <point x="167" y="628" type="line" smooth="yes"/>
      <point x="167" y="637"/>
      <point x="173" y="643"/>
      <point x="182" y="643" type="curve" smooth="yes"/>
      <point x="451" y="643" type="line" smooth="yes"/>
      <point x="505" y="643"/>
      <point x="560" y="622"/>
      <point x="560" y="537" type="curve" smooth="yes"/>
      <point x="560" y="424" type="line" smooth="yes"/>
      <point x="560" y="374"/>
      <point x="529" y="360"/>
      <point x="490" y="355" type="curve" smooth="yes"/>
      <point x="274" y="325" type="line" smooth="yes"/>
      <point x="274" y="325"/>
      <point x="273" y="325"/>
    </contour>
    <contour>
      <point x="295" y="65" type="line" smooth="yes"/>
      <point x="286" y="65"/>
      <point x="280" y="71"/>
      <point x="280" y="80" type="curve" smooth="yes"/>
      <point x="280" y="123" type="line" smooth="yes"/>
      <point x="280" y="132"/>
      <point x="286" y="138"/>
      <point x="295" y="138" type="curve" smooth="yes"/>
      <point x="305" y="138" type="line" smooth="yes"/>
      <point x="314" y="138"/>
      <point x="320" y="132"/>
      <point x="320" y="123" type="curve" smooth="yes"/>
      <point x="320" y="80" type="line" smooth="yes"/>
      <point x="320" y="71"/>
      <point x="314" y="65"/>
      <point x="305" y="65" type="curve" smooth="yes"/>
    </contour>
  </outline>
</glyph>
<glyph name="at" format="1">
  <advance width="750"/>
  <unicode hex="0040"/>
  <outline>
    <contour>
      <point x="564" y="-50" type="curve" smooth="yes"/>
      <point x="564" y="-40" type="line" smooth="yes"/>
      <point x="564" y="-31"/>
      <point x="558" y="-25"/>
      <point x="549" y="-25" type="curve" smooth="yes"/>
      <point x="375" y="-25" type="line" smooth="yes"/>
      <point x="118" y="-25"/>
      <point x="71" y="55"/>
      <point x="71" y="150" type="curve" smooth="yes"/>
      <point x="71" y="568" type="line" smooth="yes"/>
      <point x="71" y="664"/>
      <point x="119" y="743"/>
      <point x="375" y="743" type="curve" smooth="yes"/>
      <point x="631" y="743"/>
      <point x="678" y="664"/>
      <point x="678" y="568" type="curve" smooth="yes"/>
      <point x="678" y="302" type="line" smooth="yes"/>
      <point x="678" y="223"/>
      <point x="655" y="185"/>
      <point x="586" y="185" type="curve" smooth="yes"/>
      <point x="525" y="185" type="line"/>
      <point x="525" y="527" type="line" smooth="yes"/>
      <point x="525" y="536"/>
      <point x="519" y="542"/>
      <point x="510" y="542" type="curve" smooth="yes"/>
      <point x="366" y="542" type="line" smooth="yes"/>
      <point x="218" y="542"/>
      <point x="220" y="481"/>
      <point x="220" y="422" type="curve" smooth="yes"/>
      <point x="220" y="261" type="line" smooth="yes"/>
      <point x="220" y="177"/>
      <point x="250" y="145"/>
      <point x="324" y="145" type="curve" smooth="yes"/>
      <point x="586" y="145" type="line" smooth="yes"/>
      <point x="679" y="145"/>
      <point x="718" y="189"/>
      <point x="718" y="302" type="curve" smooth="yes"/>
      <point x="718" y="568" type="line" smooth="yes"/>
      <point x="718" y="678"/>
      <point x="689" y="783"/>
      <point x="375" y="783" type="curve" smooth="yes"/>
      <point x="61" y="783"/>
      <point x="31" y="678"/>
      <point x="31" y="568" type="curve" smooth="yes"/>
      <point x="31" y="150" type="line" smooth="yes"/>
      <point x="31" y="41"/>
      <point x="60" y="-65"/>
      <point x="375" y="-65" type="curve" smooth="yes"/>
      <point x="549" y="-65" type="line" smooth="yes"/>
      <point x="558" y="-65"/>
      <point x="564" y="-59"/>
    </contour>
    <contour>
      <point x="324" y="185" type="line" smooth="yes"/>
      <point x="275" y="185"/>
      <point x="260" y="209"/>
      <point x="260" y="261" type="curve" smooth="yes"/>
      <point x="260" y="422" type="line" smooth="yes"/>
      <point x="260" y="465"/>
      <point x="266" y="502"/>
      <point x="366" y="502" type="curve" smooth="yes"/>
      <point x="485" y="502" type="line"/>
      <point x="485" y="185" type="line"/>
    </contour>
  </outline>
</glyph>
<glyph name="A" format="1">
  <advance width="750"/>
  <unicode hex="0041"/>
  <outline>
    <contour>
      <point x="195" y="90" type="line" smooth="yes"/>
      <point x="195" y="81"/>
      <point x="189" y="75"/>
      <point x="180" y="75" type="curve" smooth="yes"/>
      <point x="170" y="75" type="line" smooth="yes"/>
      <point x="161" y="75"/>
      <point x="155" y="81"/>
      <point x="155" y="90" type="curve" smooth="yes"/>
      <point x="155" y="303" type="line" smooth="yes"/>
      <point x="155" y="342"/>
      <point x="161" y="374"/>
      <point x="173" y="406" type="curve" smooth="yes"/>
      <point x="237" y="570" type="line" smooth="yes"/>
      <point x="255" y="613"/>
      <point x="271" y="645"/>
      <point x="324" y="645" type="curve" smooth="yes"/>
      <point x="422" y="645" type="line" smooth="yes"/>
      <point x="473" y="645"/>
      <point x="489" y="615"/>
      <point x="508" y="569" type="curve" smooth="yes"/>
      <point x="577" y="405" type="line" smooth="yes"/>
      <point x="589" y="374"/>
      <point x="595" y="342"/>
      <point x="595" y="303" type="curve" smooth="yes"/>
      <point x="595" y="90" type="line" smooth="yes"/>
      <point x="595" y="81"/>
      <point x="589" y="75"/>
      <point x="580" y="75" type="curve" smooth="yes"/>
      <point x="570" y="75" type="line" smooth="yes"/>
      <point x="561" y="75"/>
      <point x="555" y="81"/>
      <point x="555" y="90" type="curve" smooth="yes"/>
      <point x="555" y="257" type="line"/>
      <point x="565" y="247" type="line"/>
      <point x="185" y="247" type="line"/>
      <point x="195" y="257" type="line"/>
    </contour>
    <contour>
      <point x="195" y="303" type="curve" smooth="yes"/>
      <point x="195" y="277" type="line"/>
      <point x="185" y="287" type="line"/>
      <point x="565" y="287" type="line"/>
      <point x="555" y="277" type="line"/>
      <point x="555" y="303" type="line" smooth="yes"/>
      <point x="555" y="337"/>
      <point x="549" y="365"/>
      <point x="540" y="390" type="curve" smooth="yes"/>
      <point x="471" y="553" type="line" smooth="yes"/>
      <point x="459" y="580"/>
      <point x="453" y="605"/>
      <point x="422" y="605" type="curve" smooth="yes"/>
      <point x="324" y="605" type="line" smooth="yes"/>
      <point x="291" y="605"/>
      <point x="284" y="581"/>
      <point x="274" y="554" type="curve" smooth="yes"/>
      <point x="210" y="390" type="line" smooth="yes"/>
      <point x="201" y="365"/>
      <point x="195" y="337"/>
    </contour>
  </outline>
</glyph>
<glyph name="B" format="1">
  <advance width="750"/>
  <unicode hex="0042"/>
  <outline>
    <contour>
      <point x="607" y="190" type="line" smooth="yes"/>
      <point x="607" y="125"/>
      <point x="590" y="75"/>
      <point x="461" y="75" type="curve" smooth="yes"/>
      <point x="192" y="75" type="line" smooth="yes"/>
      <point x="183" y="75"/>
      <point x="177" y="81"/>
      <point x="177" y="90" type="curve" smooth="yes"/>
      <point x="177" y="630" type="line" smooth="yes"/>
      <point x="177" y="639"/>
      <point x="183" y="645"/>
      <point x="192" y="645" type="curve" smooth="yes"/>
      <point x="395" y="645" type="line" smooth="yes"/>
      <point x="521" y="645"/>
      <point x="541" y="588"/>
      <point x="541" y="524" type="curve" smooth="yes"/>
      <point x="541" y="460" type="line" smooth="yes"/>
      <point x="541" y="421"/>
      <point x="533" y="385"/>
      <point x="491" y="364" type="curve"/>
      <point x="488" y="383" type="line"/>
      <point x="590" y="375"/>
      <point x="607" y="323"/>
      <point x="607" y="254" type="curve" smooth="yes"/>
    </contour>
    <contour>
      <point x="395" y="605" type="curve" smooth="yes"/>
      <point x="207" y="605" type="line"/>
      <point x="217" y="615" type="line"/>
      <point x="217" y="374" type="line"/>
      <point x="207" y="384" type="line"/>
      <point x="395" y="384" type="line" smooth="yes"/>
      <point x="487" y="384"/>
      <point x="501" y="418"/>
      <point x="501" y="460" type="curve" smooth="yes"/>
      <point x="501" y="524" type="line" smooth="yes"/>
      <point x="501" y="572"/>
      <point x="480" y="605"/>
    </contour>
    <contour>
      <point x="202" y="374" type="curve"/>
      <point x="202" y="354" type="line"/>
      <point x="193" y="354"/>
      <point x="187" y="360"/>
      <point x="187" y="369" type="curve"/>
      <point x="207" y="369" type="line"/>
      <point x="207" y="359" type="line"/>
      <point x="187" y="359" type="line"/>
      <point x="187" y="368"/>
      <point x="193" y="374"/>
    </contour>
    <contour>
      <point x="462" y="344" type="curve" smooth="yes"/>
      <point x="207" y="344" type="line"/>
      <point x="217" y="354" type="line"/>
      <point x="217" y="105" type="line"/>
      <point x="207" y="115" type="line"/>
      <point x="461" y="115" type="line" smooth="yes"/>
      <point x="544" y="115"/>
      <point x="567" y="142"/>
      <point x="567" y="190" type="curve" smooth="yes"/>
      <point x="567" y="254" type="line" smooth="yes"/>
      <point x="567" y="307"/>
      <point x="548" y="344"/>
    </contour>
    <contour>
      <point x="202" y="105" type="line"/>
      <point x="202" y="85" type="line"/>
      <point x="193" y="85"/>
      <point x="187" y="91"/>
      <point x="187" y="100" type="curve"/>
      <point x="207" y="100" type="line"/>
      <point x="207" y="95" type="line"/>
      <point x="197" y="105" type="line"/>
    </contour>
  </outline>
</glyph>
<glyph name="C" format="1">
  <advance width="750"/>
  <unicode hex="0043"/>
  <outline>
    <contour>
      <point x="554" y="105" type="line" smooth="yes"/>
      <point x="557" y="105"/>
      <point x="559" y="103"/>
      <point x="559" y="100" type="curve" smooth="yes"/>
      <point x="559" y="90" type="line" smooth="yes"/>
      <point x="559" y="87"/>
      <point x="557" y="85"/>
      <point x="554" y="85" type="curve" smooth="yes"/>
      <point x="387" y="85" type="line" smooth="yes"/>
      <point x="252" y="85"/>
      <point x="222" y="123"/>
      <point x="222" y="219" type="curve" smooth="yes"/>
      <point x="222" y="499" type="line" smooth="yes"/>
      <point x="222" y="597"/>
      <point x="254" y="635"/>
      <point x="387" y="635" type="curve" smooth="yes"/>
      <point x="554" y="635" type="line" smooth="yes"/>
      <point x="557" y="635"/>
      <point x="559" y="633"/>
      <point x="559" y="630" type="curve" smooth="yes"/>
      <point x="559" y="620" type="line" smooth="yes"/>
      <point x="559" y="617"/>
      <point x="557" y="615"/>
      <point x="554" y="615" type="curve" smooth="yes"/>
      <point x="387" y="615" type="line" smooth="yes"/>
      <point x="272" y="615"/>
      <point x="242" y="591"/>
      <point x="242" y="499" type="curve" smooth="yes"/>
      <point x="242" y="219" type="line" smooth="yes"/>
      <point x="242" y="129"/>
      <point x="272" y="105"/>
      <point x="387" y="105" type="curve" smooth="yes"/>
    </contour>
  </outline>
</glyph>
<glyph name="D" format="1">
  <advance width="750"/>
  <unicode hex="0044"/>
  <outline>
    <contour>
      <point x="180" y="75" type="line" smooth="yes"/>
      <point x="171" y="75"/>
      <point x="165" y="81"/>
      <point x="165" y="90" type="curve" smooth="yes"/>
      <point x="165" y="630" type="line" smooth="yes"/>
      <point x="165" y="639"/>
      <point x="171" y="645"/>
      <point x="180" y="645" type="curve" smooth="yes"/>
      <point x="422" y="645" type="line" smooth="yes"/>
      <point x="573" y="645"/>
      <point x="597" y="575"/>
      <point x="597" y="491" type="curve" smooth="yes"/>
      <point x="597" y="226" type="line" smooth="yes"/>
      <point x="597" y="142"/>
      <point x="575" y="75"/>
      <point x="422" y="75" type="curve" smooth="yes"/>
    </contour>
    <contour>
      <point x="422" y="605" type="curve" smooth="yes"/>
      <point x="190" y="605" type="line" smooth="yes"/>
      <point x="178" y="605"/>
      <point x="174" y="613"/>
      <point x="183" y="622" type="curve" smooth="yes"/>
      <point x="188" y="627" type="line" smooth="yes"/>
      <point x="197" y="636"/>
      <point x="205" y="632"/>
      <point x="205" y="620" type="curve" smooth="yes"/>
      <point x="205" y="100" type="line" smooth="yes"/>
      <point x="205" y="88"/>
      <point x="197" y="84"/>
      <point x="188" y="93" type="curve" smooth="yes"/>
      <point x="183" y="98" type="line" smooth="yes"/>
      <point x="174" y="107"/>
      <point x="178" y="115"/>
      <point x="190" y="115" type="curve" smooth="yes"/>
      <point x="422" y="115" type="line" smooth="yes"/>
      <point x="535" y="115"/>
      <point x="557" y="160"/>
      <point x="557" y="226" type="curve" smooth="yes"/>
      <point x="557" y="491" type="line" smooth="yes"/>
      <point x="557" y="557"/>
      <point x="533" y="605"/>
    </contour>
  </outline>
</glyph>
<glyph name="E" format="1">
  <advance width="750"/>
  <unicode hex="0045"/>
  <outline>
    <contour>
      <point x="563" y="115" type="line" smooth="yes"/>
      <point x="572" y="115"/>
      <point x="578" y="109"/>
      <point x="578" y="100" type="curve" smooth="yes"/>
      <point x="578" y="90" type="line" smooth="yes"/>
      <point x="578" y="81"/>
      <point x="572" y="75"/>
      <point x="563" y="75" type="curve" smooth="yes"/>
      <point x="226" y="75" type="line" smooth="yes"/>
      <point x="217" y="75"/>
      <point x="211" y="81"/>
      <point x="211" y="90" type="curve" smooth="yes"/>
      <point x="211" y="630" type="line" smooth="yes"/>
      <point x="211" y="639"/>
      <point x="217" y="645"/>
      <point x="226" y="645" type="curve" smooth="yes"/>
      <point x="563" y="645" type="line" smooth="yes"/>
      <point x="572" y="645"/>
      <point x="578" y="639"/>
      <point x="578" y="630" type="curve" smooth="yes"/>
      <point x="578" y="620" type="line" smooth="yes"/>
      <point x="578" y="611"/>
      <point x="572" y="605"/>
      <point x="563" y="605" type="curve" smooth="yes"/>
      <point x="236" y="605" type="line" smooth="yes"/>
      <point x="224" y="605"/>
      <point x="220" y="613"/>
      <point x="229" y="622" type="curve" smooth="yes"/>
      <point x="234" y="627" type="line" smooth="yes"/>
      <point x="243" y="636"/>
      <point x="251" y="632"/>
      <point x="251" y="620" type="curve" smooth="yes"/>
      <point x="251" y="369" type="line" smooth="yes"/>
      <point x="251" y="357"/>
      <point x="243" y="353"/>
      <point x="234" y="362" type="curve" smooth="yes"/>
      <point x="229" y="367" type="line" smooth="yes"/>
      <point x="220" y="376"/>
      <point x="224" y="384"/>
      <point x="236" y="384" type="curve" smooth="yes"/>
      <point x="482" y="384" type="line" smooth="yes"/>
      <point x="491" y="384"/>
      <point x="497" y="378"/>
      <point x="497" y="369" type="curve" smooth="yes"/>
      <point x="497" y="359" type="line" smooth="yes"/>
      <point x="497" y="350"/>
      <point x="491" y="344"/>
      <point x="482" y="344" type="curve" smooth="yes"/>
      <point x="236" y="344" type="line" smooth="yes"/>
      <point x="224" y="344"/>
      <point x="220" y="352"/>
      <point x="229" y="361" type="curve" smooth="yes"/>
      <point x="234" y="366" type="line" smooth="yes"/>
      <point x="243" y="375"/>
      <point x="251" y="371"/>
      <point x="251" y="359" type="curve" smooth="yes"/>
      <point x="251" y="100" type="line" smooth="yes"/>
      <point x="251" y="88"/>
      <point x="243" y="84"/>
      <point x="234" y="93" type="curve" smooth="yes"/>
      <point x="229" y="98" type="line" smooth="yes"/>
      <point x="220" y="107"/>
      <point x="224" y="115"/>
      <point x="236" y="115" type="curve" smooth="yes"/>
    </contour>
  </outline>
</glyph>
<glyph name="F" format="1">
  <advance width="750"/>
  <unicode hex="0046"/>
  <outline>
    <contour>
      <point x="244" y="85" type="line" smooth="yes"/>
      <point x="241" y="85"/>
      <point x="239" y="87"/>
      <point x="239" y="90" type="curve" smooth="yes"/>
      <point x="239" y="630" type="line" smooth="yes"/>
      <point x="239" y="633"/>
      <point x="241" y="635"/>
      <point x="244" y="635" type="curve" smooth="yes"/>
      <point x="563" y="635" type="line" smooth="yes"/>
      <point x="566" y="635"/>
      <point x="568" y="633"/>
      <point x="568" y="630" type="curve" smooth="yes"/>
      <point x="568" y="620" type="line" smooth="yes"/>
      <point x="568" y="617"/>
      <point x="566" y="615"/>
      <point x="563" y="615" type="curve" smooth="yes"/>
      <point x="254" y="615" type="line"/>
      <point x="259" y="620" type="line"/>
      <point x="259" y="334" type="line"/>
      <point x="254" y="339" type="line"/>
      <point x="482" y="339" type="line" smooth="yes"/>
      <point x="485" y="339"/>
      <point x="487" y="337"/>
      <point x="487" y="334" type="curve" smooth="yes"/>
      <point x="487" y="324" type="line" smooth="yes"/>
      <point x="487" y="321"/>
      <point x="485" y="319"/>
      <point x="482" y="319" type="curve" smooth="yes"/>
      <point x="254" y="319" type="line"/>
      <point x="259" y="324" type="line"/>
      <point x="259" y="90" type="line" smooth="yes"/>
      <point x="259" y="87"/>
      <point x="257" y="85"/>
      <point x="254" y="85" type="curve" smooth="yes"/>
    </contour>
  </outline>
</glyph>
<glyph name="G" format="1">
  <advance width="750"/>
  <unicode hex="0047"/>
  <outline>
    <contour>
      <point x="582" y="90" type="curve" smooth="yes"/>
      <point x="582" y="291" type="line" smooth="yes"/>
      <point x="582" y="300"/>
      <point x="576" y="306"/>
      <point x="567" y="306" type="curve" smooth="yes"/>
      <point x="557" y="306" type="line" smooth="yes"/>
      <point x="548" y="306"/>
      <point x="542" y="300"/>
      <point x="542" y="291" type="curve" smooth="yes"/>
      <point x="542" y="115" type="line"/>
      <point x="368" y="115" type="line" smooth="yes"/>
      <point x="250" y="115"/>
      <point x="213" y="140"/>
      <point x="213" y="219" type="curve" smooth="yes"/>
      <point x="213" y="499" type="line" smooth="yes"/>
      <point x="213" y="579"/>
      <point x="245" y="605"/>
      <point x="348" y="605" type="curve" smooth="yes"/>
      <point x="521" y="605" type="line" smooth="yes"/>
      <point x="530" y="605"/>
      <point x="536" y="611"/>
      <point x="536" y="620" type="curve" smooth="yes"/>
      <point x="536" y="630" type="line" smooth="yes"/>
      <point x="536" y="639"/>
      <point x="530" y="645"/>
      <point x="521" y="645" type="curve" smooth="yes"/>
      <point x="348" y="645" type="line" smooth="yes"/>
      <point x="205" y="645"/>
      <point x="173" y="603"/>
      <point x="173" y="499" type="curve" smooth="yes"/>
      <point x="173" y="219" type="line" smooth="yes"/>
      <point x="173" y="118"/>
      <point x="204" y="75"/>
      <point x="368" y="75" type="curve" smooth="yes"/>
      <point x="567" y="75" type="line" smooth="yes"/>
      <point x="576" y="75"/>
      <point x="582" y="81"/>
    </contour>
  </outline>
</glyph>
<glyph name="H" format="1">
  <advance width="750"/>
  <unicode hex="0048"/>
  <outline>
    <contour>
      <point x="207" y="90" type="curve" smooth="yes"/>
      <point x="207" y="340" type="line"/>
      <point x="541" y="340" type="line"/>
      <point x="541" y="90" type="line" smooth="yes"/>
      <point x="541" y="81"/>
      <point x="547" y="75"/>
      <point x="556" y="75" type="curve" smooth="yes"/>
      <point x="566" y="75" type="line" smooth="yes"/>
      <point x="575" y="75"/>
      <point x="581" y="81"/>
      <point x="581" y="90" type="curve" smooth="yes"/>
      <point x="581" y="630" type="line" smooth="yes"/>
      <point x="581" y="639"/>
      <point x="575" y="645"/>
      <point x="566" y="645" type="curve" smooth="yes"/>
      <point x="556" y="645" type="line" smooth="yes"/>
      <point x="547" y="645"/>
      <point x="541" y="639"/>
      <point x="541" y="630" type="curve" smooth="yes"/>
      <point x="541" y="380" type="line"/>
      <point x="207" y="380" type="line"/>
      <point x="207" y="630" type="line" smooth="yes"/>
      <point x="207" y="639"/>
      <point x="201" y="645"/>
      <point x="192" y="645" type="curve" smooth="yes"/>
      <point x="182" y="645" type="line" smooth="yes"/>
      <point x="173" y="645"/>
      <point x="167" y="639"/>
      <point x="167" y="630" type="curve" smooth="yes"/>
      <point x="167" y="90" type="line" smooth="yes"/>
      <point x="167" y="81"/>
      <point x="173" y="75"/>
      <point x="182" y="75" type="curve" smooth="yes"/>
      <point x="192" y="75" type="line" smooth="yes"/>
      <point x="201" y="75"/>
      <point x="207" y="81"/>
    </contour>
  </outline>
</glyph>
<glyph name="I" format="1">
  <advance width="750"/>
  <unicode hex="0049"/>
  <outline>
    <contour>
      <point x="578" y="90" type="line" smooth="yes"/>
      <point x="578" y="81"/>
      <point x="572" y="75"/>
      <point x="563" y="75" type="curve" smooth="yes"/>
      <point x="185" y="75" type="line" smooth="yes"/>
      <point x="176" y="75"/>
      <point x="170" y="81"/>
      <point x="170" y="90" type="curve" smooth="yes"/>
      <point x="170" y="100" type="line" smooth="yes"/>
      <point x="170" y="109"/>
      <point x="176" y="115"/>
      <point x="185" y="115" type="curve" smooth="yes"/>
      <point x="370" y="115" type="line" smooth="yes"/>
      <point x="382" y="115"/>
      <point x="386" y="107"/>
      <point x="377" y="98" type="curve" smooth="yes"/>
      <point x="372" y="93" type="line" smooth="yes"/>
      <point x="363" y="84"/>
      <point x="355" y="88"/>
      <point x="355" y="100" type="curve" smooth="yes"/>
      <point x="355" y="620" type="line" smooth="yes"/>
      <point x="355" y="632"/>
      <point x="363" y="636"/>
      <point x="372" y="627" type="curve" smooth="yes"/>
      <point x="377" y="622" type="line" smooth="yes"/>
      <point x="386" y="613"/>
      <point x="382" y="605"/>
      <point x="370" y="605" type="curve" smooth="yes"/>
      <point x="185" y="605" type="line" smooth="yes"/>
      <point x="176" y="605"/>
      <point x="170" y="611"/>
      <point x="170" y="620" type="curve" smooth="yes"/>
      <point x="170" y="630" type="line" smooth="yes"/>
      <point x="170" y="639"/>
      <point x="176" y="645"/>
      <point x="185" y="645" type="curve" smooth="yes"/>
      <point x="563" y="645" type="line" smooth="yes"/>
      <point x="572" y="645"/>
      <point x="578" y="639"/>
      <point x="578" y="630" type="curve" smooth="yes"/>
      <point x="578" y="620" type="line" smooth="yes"/>
      <point x="578" y="611"/>
      <point x="572" y="605"/>
      <point x="563" y="605" type="curve" smooth="yes"/>
      <point x="380" y="605" type="line" smooth="yes"/>
      <point x="368" y="605"/>
      <point x="364" y="613"/>
      <point x="373" y="622" type="curve" smooth="yes"/>
      <point x="378" y="627" type="line" smooth="yes"/>
      <point x="387" y="636"/>
      <point x="395" y="632"/>
      <point x="395" y="620" type="curve" smooth="yes"/>
      <point x="395" y="100" type="line" smooth="yes"/>
      <point x="395" y="88"/>
      <point x="387" y="84"/>
      <point x="378" y="93" type="curve" smooth="yes"/>
      <point x="373" y="98" type="line" smooth="yes"/>
      <point x="364" y="107"/>
      <point x="368" y="115"/>
      <point x="380" y="115" type="curve" smooth="yes"/>
      <point x="563" y="115" type="line" smooth="yes"/>
      <point x="572" y="115"/>
      <point x="578" y="109"/>
      <point x="578" y="100" type="curve" smooth="yes"/>
    </contour>
  </outline>
</glyph>
<glyph name="J" format="1">
  <advance width="750"/>
  <unicode hex="004A"/>
  <outline>
    <contour>
      <point x="530" y="630" type="line" smooth="yes"/>
      <point x="530" y="633"/>
      <point x="532" y="635"/>
      <point x="535" y="635" type="curve" smooth="yes"/>
      <point x="545" y="635" type="line" smooth="yes"/>
      <point x="548" y="635"/>
      <point x="550" y="633"/>
      <point x="550" y="630" type="curve" smooth="yes"/>
      <point x="550" y="213" type="line" smooth="yes"/>
      <point x="550" y="132"/>
      <point x="511" y="73"/>
      <point x="364" y="73" type="curve" smooth="yes"/>
      <point x="208" y="73"/>
      <point x="171" y="131"/>
      <point x="171" y="213" type="curve" smooth="yes"/>
      <point x="171" y="292" type="line" smooth="yes"/>
      <point x="171" y="295"/>
      <point x="173" y="297"/>
      <point x="176" y="297" type="curve" smooth="yes"/>
      <point x="186" y="297" type="line" smooth="yes"/>
      <point x="189" y="297"/>
      <point x="191" y="295"/>
      <point x="191" y="292" type="curve" smooth="yes"/>
      <point x="191" y="213" type="line" smooth="yes"/>
      <point x="191" y="139"/>
      <point x="232" y="93"/>
      <point x="364" y="93" type="curve" smooth="yes"/>
      <point x="491" y="93"/>
      <point x="530" y="140"/>
      <point x="530" y="213" type="curve" smooth="yes"/>
    </contour>
  </outline>
</glyph>
<glyph name="K" format="1">
  <advance width="750"/>
  <unicode hex="004B"/>
  <outline>
    <contour>
      <point x="195" y="90" type="line" smooth="yes"/>
      <point x="195" y="87"/>
      <point x="193" y="85"/>
      <point x="190" y="85" type="curve" smooth="yes"/>
      <point x="180" y="85" type="line" smooth="yes"/>
      <point x="177" y="85"/>
      <point x="175" y="87"/>
      <point x="175" y="90" type="curve" smooth="yes"/>
      <point x="175" y="630" type="line" smooth="yes"/>
      <point x="175" y="633"/>
      <point x="177" y="635"/>
      <point x="180" y="635" type="curve" smooth="yes"/>
      <point x="190" y="635" type="line" smooth="yes"/>
      <point x="193" y="635"/>
      <point x="195" y="633"/>
      <point x="195" y="630" type="curve" smooth="yes"/>
      <point x="195" y="364" type="line"/>
      <point x="190" y="369" type="line"/>
      <point x="407" y="369" type="line"/>
      <point x="402" y="366" type="line"/>
      <point x="517" y="632" type="line" smooth="yes"/>
      <point x="518" y="634"/>
      <point x="520" y="635"/>
      <point x="522" y="635" type="curve" smooth="yes"/>
      <point x="533" y="635" type="line" smooth="yes"/>
      <point x="537" y="635"/>
      <point x="539" y="632"/>
      <point x="538" y="628" type="curve" smooth="yes"/>
      <point x="423" y="362" type="line"/>
      <point x="418" y="369" type="line"/>
      <point x="459" y="369" type="line" smooth="yes"/>
      <point x="545" y="369"/>
      <point x="585" y="339"/>
      <point x="585" y="266" type="curve" smooth="yes"/>
      <point x="585" y="90" type="line" smooth="yes"/>
      <point x="585" y="87"/>
      <point x="583" y="85"/>
      <point x="580" y="85" type="curve" smooth="yes"/>
      <point x="570" y="85" type="line" smooth="yes"/>
      <point x="567" y="85"/>
      <point x="565" y="87"/>
      <point x="565" y="90" type="curve" smooth="yes"/>
      <point x="565" y="266" type="line" smooth="yes"/>
      <point x="565" y="327"/>
      <point x="529" y="349"/>
      <point x="459" y="349" type="curve" smooth="yes"/>
      <point x="190" y="349" type="line"/>
      <point x="195" y="354" type="line"/>
    </contour>
  </outline>
</glyph>
<glyph name="L" format="1">
  <advance width="750"/>
  <unicode hex="004C"/>
  <outline>
    <contour>
      <point x="588" y="90" type="curve" smooth="yes"/>
      <point x="588" y="297" type="line" smooth="yes"/>
      <point x="588" y="306"/>
      <point x="582" y="312"/>
      <point x="573" y="312" type="curve" smooth="yes"/>
      <point x="563" y="312" type="line" smooth="yes"/>
      <point x="554" y="312"/>
      <point x="548" y="306"/>
      <point x="548" y="297" type="curve" smooth="yes"/>
      <point x="548" y="115" type="line"/>
      <point x="230" y="115" type="line"/>
      <point x="230" y="630" type="line" smooth="yes"/>
      <point x="230" y="639"/>
      <point x="224" y="645"/>
      <point x="215" y="645" type="curve" smooth="yes"/>
      <point x="205" y="645" type="line" smooth="yes"/>
      <point x="196" y="645"/>
      <point x="190" y="639"/>
      <point x="190" y="630" type="curve" smooth="yes"/>
      <point x="190" y="90" type="line" smooth="yes"/>
      <point x="190" y="81"/>
      <point x="196" y="75"/>
      <point x="205" y="75" type="curve" smooth="yes"/>
      <point x="573" y="75" type="line" smooth="yes"/>
      <point x="582" y="75"/>
      <point x="588" y="81"/>
    </contour>
  </outline>
</glyph>
<glyph name="M" format="1">
  <advance width="750"/>
  <unicode hex="004D"/>
  <outline>
    <contour>
      <point x="335" y="409" type="curve" smooth="yes"/>
      <point x="242" y="615" type="line" smooth="yes"/>
      <point x="235" y="631"/>
      <point x="218" y="635"/>
      <point x="204" y="635" type="curve" smooth="yes"/>
      <point x="187" y="635" type="line" smooth="yes"/>
      <point x="160" y="635"/>
      <point x="149" y="624"/>
      <point x="149" y="599" type="curve" smooth="yes"/>
      <point x="147" y="90" type="line" smooth="yes"/>
      <point x="147" y="87"/>
      <point x="149" y="85"/>
      <point x="152" y="85" type="curve" smooth="yes"/>
      <point x="162" y="85" type="line" smooth="yes"/>
      <point x="165" y="85"/>
      <point x="167" y="87"/>
      <point x="167" y="90" type="curve" smooth="yes"/>
      <point x="169" y="599" type="line"/>
      <point x="169" y="608"/>
      <point x="173" y="615"/>
      <point x="187" y="615" type="curve" smooth="yes"/>
      <point x="202" y="615" type="line" smooth="yes"/>
      <point x="210" y="615"/>
      <point x="219" y="616"/>
      <point x="224" y="604" type="curve" smooth="yes"/>
      <point x="317" y="400" type="line" smooth="yes"/>
      <point x="336" y="358"/>
      <point x="345" y="350"/>
      <point x="371" y="350" type="curve" smooth="yes"/>
      <point x="397" y="350"/>
      <point x="406" y="358"/>
      <point x="425" y="400" type="curve" smooth="yes"/>
      <point x="518" y="604" type="line" smooth="yes"/>
      <point x="523" y="616"/>
      <point x="532" y="615"/>
      <point x="540" y="615" type="curve" smooth="yes"/>
      <point x="559" y="615" type="line" smooth="yes"/>
      <point x="571" y="615"/>
      <point x="573" y="607"/>
      <point x="573" y="599" type="curve" smooth="yes"/>
      <point x="575" y="90" type="line" smooth="yes"/>
      <point x="575" y="87"/>
      <point x="577" y="85"/>
      <point x="580" y="85" type="curve" smooth="yes"/>
      <point x="590" y="85" type="line" smooth="yes"/>
      <point x="593" y="85"/>
      <point x="595" y="87"/>
      <point x="595" y="90" type="curve" smooth="yes"/>
      <point x="593" y="599" type="line" smooth="yes"/>
      <point x="593" y="625"/>
      <point x="582" y="635"/>
      <point x="559" y="635" type="curve" smooth="yes"/>
      <point x="538" y="635" type="line" smooth="yes"/>
      <point x="524" y="635"/>
      <point x="508" y="632"/>
      <point x="500" y="615" type="curve" smooth="yes"/>
      <point x="407" y="409" type="line" smooth="yes"/>
      <point x="392" y="375"/>
      <point x="388" y="370"/>
      <point x="371" y="370" type="curve" smooth="yes"/>
      <point x="354" y="370"/>
      <point x="349" y="377"/>
    </contour>
  </outline>
</glyph>
<glyph name="N" format="1">
  <advance width="750"/>
  <unicode hex="004E"/>
  <outline>
    <contour>
      <point x="213" y="626" type="curve" smooth="yes"/>
      <point x="213" y="625" type="line"/>
      <point x="561" y="211" type="line"/>
      <point x="552" y="208" type="line"/>
      <point x="552" y="630" type="line" smooth="yes"/>
      <point x="552" y="633"/>
      <point x="554" y="635"/>
      <point x="557" y="635" type="curve" smooth="yes"/>
      <point x="567" y="635" type="line" smooth="yes"/>
      <point x="570" y="635"/>
      <point x="572" y="633"/>
      <point x="572" y="630" type="curve" smooth="yes"/>
      <point x="572" y="90" type="line" smooth="yes"/>
      <point x="572" y="87"/>
      <point x="570" y="85"/>
      <point x="567" y="85" type="curve" smooth="yes"/>
      <point x="557" y="85" type="line" smooth="yes"/>
      <point x="554" y="85"/>
      <point x="552" y="87"/>
      <point x="552" y="90" type="curve" smooth="yes"/>
      <point x="552" y="193" type="line"/>
      <point x="553" y="190" type="line"/>
      <point x="195" y="613" type="line"/>
      <point x="195" y="614"/>
      <point x="195" y="615"/>
      <point x="194" y="615" type="curve"/>
      <point x="195" y="615"/>
      <point x="197" y="616"/>
      <point x="197" y="617" type="curve"/>
      <point x="197" y="90" type="line" smooth="yes"/>
      <point x="197" y="87"/>
      <point x="195" y="85"/>
      <point x="192" y="85" type="curve" smooth="yes"/>
      <point x="182" y="85" type="line" smooth="yes"/>
      <point x="179" y="85"/>
      <point x="177" y="87"/>
      <point x="177" y="90" type="curve" smooth="yes"/>
      <point x="177" y="619" type="line" smooth="yes"/>
      <point x="177" y="630"/>
      <point x="186" y="636"/>
      <point x="194" y="636" type="curve" smooth="yes"/>
      <point x="201" y="636"/>
      <point x="213" y="638"/>
    </contour>
  </outline>
</glyph>
<glyph name="O" format="1">
  <advance width="750"/>
  <unicode hex="004F"/>
  <outline>
    <contour>
      <point x="591" y="212" type="line" smooth="yes"/>
      <point x="591" y="125"/>
      <point x="548" y="62"/>
      <point x="373" y="62" type="curve" smooth="yes"/>
      <point x="198" y="62"/>
      <point x="157" y="125"/>
      <point x="157" y="212" type="curve" smooth="yes"/>
      <point x="157" y="507" type="line" smooth="yes"/>
      <point x="157" y="594"/>
      <point x="198" y="657"/>
      <point x="373" y="657" type="curve" smooth="yes"/>
      <point x="548" y="657"/>
      <point x="591" y="594"/>
      <point x="591" y="507" type="curve" smooth="yes"/>
    </contour>
    <contour>
      <point x="197" y="212" type="line" smooth="yes"/>
      <point x="197" y="143"/>
      <point x="242" y="102"/>
      <point x="373" y="102" type="curve" smooth="yes"/>
      <point x="504" y="102"/>
      <point x="551" y="143"/>
      <point x="551" y="212" type="curve" smooth="yes"/>
      <point x="551" y="507" type="line" smooth="yes"/>
      <point x="551" y="576"/>
      <point x="504" y="617"/>
      <point x="373" y="617" type="curve" smooth="yes"/>
      <point x="242" y="617"/>
      <point x="197" y="576"/>
      <point x="197" y="507" type="curve" smooth="yes"/>
    </contour>
  </outline>
</glyph>
<glyph name="P" format="1">
  <advance width="750"/>
  <unicode hex="0050"/>
  <outline>
    <contour>
      <point x="431" y="272" type="curve" smooth="yes"/>
      <point x="225" y="272" type="line" smooth="yes"/>
      <point x="213" y="272"/>
      <point x="209" y="280"/>
      <point x="218" y="289" type="curve" smooth="yes"/>
      <point x="223" y="294" type="line" smooth="yes"/>
      <point x="232" y="303"/>
      <point x="240" y="299"/>
      <point x="240" y="287" type="curve" smooth="yes"/>
      <point x="240" y="90" type="line" smooth="yes"/>
      <point x="240" y="81"/>
      <point x="234" y="75"/>
      <point x="225" y="75" type="curve" smooth="yes"/>
      <point x="215" y="75" type="line" smooth="yes"/>
      <point x="206" y="75"/>
      <point x="200" y="81"/>
      <point x="200" y="90" type="curve" smooth="yes"/>
      <point x="200" y="630" type="line" smooth="yes"/>
      <point x="200" y="639"/>
      <point x="206" y="645"/>
      <point x="215" y="645" type="curve" smooth="yes"/>
      <point x="431" y="645" type="line" smooth="yes"/>
      <point x="571" y="645"/>
      <point x="596" y="580"/>
      <point x="596" y="494" type="curve" smooth="yes"/>
      <point x="596" y="420" type="line" smooth="yes"/>
      <point x="596" y="334"/>
      <point x="571" y="272"/>
    </contour>
    <contour>
      <point x="223" y="290" type="curve" smooth="yes"/>
      <point x="218" y="295" type="line" smooth="yes"/>
      <point x="209" y="304"/>
      <point x="213" y="312"/>
      <point x="225" y="312" type="curve" smooth="yes"/>
      <point x="431" y="312" type="line" smooth="yes"/>
      <point x="534" y="312"/>
      <point x="556" y="356"/>
      <point x="556" y="420" type="curve" smooth="yes"/>
      <point x="556" y="494" type="line" smooth="yes"/>
      <point x="556" y="558"/>
      <point x="535" y="605"/>
      <point x="431" y="605" type="curve" smooth="yes"/>
      <point x="225" y="605" type="line" smooth="yes"/>
      <point x="213" y="605"/>
      <point x="209" y="613"/>
      <point x="218" y="622" type="curve" smooth="yes"/>
      <point x="223" y="627" type="line" smooth="yes"/>
      <point x="232" y="636"/>
      <point x="240" y="632"/>
      <point x="240" y="620" type="curve" smooth="yes"/>
      <point x="240" y="297" type="line" smooth="yes"/>
      <point x="240" y="285"/>
      <point x="232" y="281"/>
    </contour>
  </outline>
</glyph>
<glyph name="Q" format="1">
  <advance width="750"/>
  <unicode hex="0051"/>
  <outline>
    <contour>
      <point x="368" y="-15" type="line" smooth="yes"/>
      <point x="359" y="-15"/>
      <point x="353" y="-9"/>
      <point x="353" y="0" type="curve" smooth="yes"/>
      <point x="353" y="77" type="line" smooth="yes"/>
      <point x="353" y="89"/>
      <point x="361" y="93"/>
      <point x="370" y="84" type="curve" smooth="yes"/>
      <point x="375" y="79" type="line" smooth="yes"/>
      <point x="384" y="70"/>
      <point x="380" y="62"/>
      <point x="368" y="62" type="curve" smooth="yes"/>
      <point x="198" y="63"/>
      <point x="157" y="126"/>
      <point x="157" y="212" type="curve" smooth="yes"/>
      <point x="157" y="507" type="line" smooth="yes"/>
      <point x="157" y="594"/>
      <point x="198" y="657"/>
      <point x="373" y="657" type="curve" smooth="yes"/>
      <point x="548" y="657"/>
      <point x="591" y="594"/>
      <point x="591" y="507" type="curve" smooth="yes"/>
      <point x="591" y="212" type="line" smooth="yes"/>
      <point x="591" y="126"/>
      <point x="548" y="63"/>
      <point x="378" y="62" type="curve" smooth="yes"/>
      <point x="366" y="62"/>
      <point x="362" y="70"/>
      <point x="371" y="79" type="curve" smooth="yes"/>
      <point x="376" y="84" type="line" smooth="yes"/>
      <point x="385" y="93"/>
      <point x="393" y="89"/>
      <point x="393" y="77" type="curve" smooth="yes"/>
      <point x="393" y="0" type="line" smooth="yes"/>
      <point x="393" y="-9"/>
      <point x="387" y="-15"/>
      <point x="378" y="-15" type="curve" smooth="yes"/>
    </contour>
    <contour>
      <point x="197" y="212" type="line" smooth="yes"/>
      <point x="197" y="143"/>
      <point x="242" y="102"/>
      <point x="373" y="102" type="curve" smooth="yes"/>
      <point x="504" y="102"/>
      <point x="551" y="143"/>
      <point x="551" y="212" type="curve" smooth="yes"/>
      <point x="551" y="507" type="line" smooth="yes"/>
      <point x="551" y="576"/>
      <point x="504" y="617"/>
      <point x="373" y="617" type="curve" smooth="yes"/>
      <point x="242" y="617"/>
      <point x="197" y="576"/>
      <point x="197" y="507" type="curve" smooth="yes"/>
    </contour>
  </outline>
</glyph>
<glyph name="R" format="1">
  <advance width="750"/>
  <unicode hex="0052"/>
  <outline>
    <contour>
      <point x="205" y="90" type="curve" smooth="yes"/>
      <point x="205" y="307" type="line"/>
      <point x="473" y="307" type="line" smooth="yes"/>
      <point x="537" y="307"/>
      <point x="569" y="281"/>
      <point x="569" y="224" type="curve" smooth="yes"/>
      <point x="569" y="90" type="line" smooth="yes"/>
      <point x="569" y="81"/>
      <point x="575" y="75"/>
      <point x="584" y="75" type="curve" smooth="yes"/>
      <point x="594" y="75" type="line" smooth="yes"/>
      <point x="603" y="75"/>
      <point x="609" y="81"/>
      <point x="609" y="90" type="curve" smooth="yes"/>
      <point x="609" y="224" type="line" smooth="yes"/>
      <point x="609" y="293"/>
      <point x="577" y="334"/>
      <point x="508" y="344" type="curve"/>
      <point x="529" y="367"/>
      <point x="537" y="401"/>
      <point x="537" y="447" type="curve" smooth="yes"/>
      <point x="537" y="516" type="line" smooth="yes"/>
      <point x="537" y="591"/>
      <point x="496" y="645"/>
      <point x="408" y="645" type="curve" smooth="yes"/>
      <point x="180" y="645" type="line" smooth="yes"/>
      <point x="171" y="645"/>
      <point x="165" y="639"/>
      <point x="165" y="630" type="curve" smooth="yes"/>
      <point x="165" y="90" type="line" smooth="yes"/>
      <point x="165" y="81"/>
      <point x="171" y="75"/>
      <point x="180" y="75" type="curve" smooth="yes"/>
      <point x="190" y="75" type="line" smooth="yes"/>
      <point x="199" y="75"/>
      <point x="205" y="81"/>
    </contour>
    <contour>
      <point x="408" y="605" type="line" smooth="yes"/>
      <point x="469" y="605"/>
      <point x="497" y="569"/>
      <point x="497" y="516" type="curve" smooth="yes"/>
      <point x="497" y="446" type="line" smooth="yes"/>
      <point x="497" y="383"/>
      <point x="480" y="346"/>
      <point x="408" y="346" type="curve" smooth="yes"/>
      <point x="205" y="346" type="line"/>
      <point x="205" y="605" type="line"/>
    </contour>
  </outline>
</glyph>
<glyph name="S" format="1">
  <advance width="750"/>
  <unicode hex="0053"/>
  <outline>
    <contour>
      <point x="534" y="635" type="line" smooth="yes"/>
      <point x="537" y="635"/>
      <point x="539" y="633"/>
      <point x="539" y="630" type="curve" smooth="yes"/>
      <point x="539" y="620" type="line" smooth="yes"/>
      <point x="539" y="617"/>
      <point x="537" y="615"/>
      <point x="534" y="615" type="curve" smooth="yes"/>
      <point x="312" y="615" type="line" smooth="yes"/>
      <point x="259" y="615"/>
      <point x="225" y="583"/>
      <point x="225" y="539" type="curve" smooth="yes"/>
      <point x="225" y="457" type="line" smooth="yes"/>
      <point x="225" y="414"/>
      <point x="243" y="400"/>
      <point x="272" y="395" type="curve" smooth="yes"/>
      <point x="483" y="352" type="line" smooth="yes"/>
      <point x="525" y="344"/>
      <point x="556" y="323"/>
      <point x="556" y="249" type="curve" smooth="yes"/>
      <point x="556" y="191" type="line" smooth="yes"/>
      <point x="556" y="129"/>
      <point x="511" y="85"/>
      <point x="440" y="85" type="curve" smooth="yes"/>
      <point x="191" y="85" type="line" smooth="yes"/>
      <point x="188" y="85"/>
      <point x="186" y="87"/>
      <point x="186" y="90" type="curve" smooth="yes"/>
      <point x="186" y="100" type="line" smooth="yes"/>
      <point x="186" y="103"/>
      <point x="188" y="105"/>
      <point x="191" y="105" type="curve" smooth="yes"/>
      <point x="440" y="105" type="line" smooth="yes"/>
      <point x="499" y="105"/>
      <point x="536" y="141"/>
      <point x="536" y="191" type="curve" smooth="yes"/>
      <point x="536" y="249" type="line" smooth="yes"/>
      <point x="536" y="308"/>
      <point x="514" y="325"/>
      <point x="479" y="332" type="curve" smooth="yes"/>
      <point x="268" y="375" type="line" smooth="yes"/>
      <point x="231" y="383"/>
      <point x="205" y="398"/>
      <point x="205" y="457" type="curve" smooth="yes"/>
      <point x="205" y="539" type="line" smooth="yes"/>
      <point x="205" y="595"/>
      <point x="247" y="635"/>
      <point x="312" y="635" type="curve" smooth="yes"/>
    </contour>
  </outline>
</glyph>
<glyph name="T" format="1">
  <advance width="750"/>
  <unicode hex="0054"/>
  <outline>
    <contour>
      <point x="370" y="85" type="line" smooth="yes"/>
      <point x="367" y="85"/>
      <point x="365" y="87"/>
      <point x="365" y="90" type="curve" smooth="yes"/>
      <point x="365" y="620" type="line"/>
      <point x="370" y="615" type="line"/>
      <point x="145" y="615" type="line" smooth="yes"/>
      <point x="142" y="615"/>
      <point x="140" y="617"/>
      <point x="140" y="620" type="curve" smooth="yes"/>
      <point x="140" y="630" type="line" smooth="yes"/>
      <point x="140" y="633"/>
      <point x="142" y="635"/>
      <point x="145" y="635" type="curve" smooth="yes"/>
      <point x="605" y="635" type="line" smooth="yes"/>
      <point x="608" y="635"/>
      <point x="610" y="633"/>
      <point x="610" y="630" type="curve" smooth="yes"/>
      <point x="610" y="620" type="line" smooth="yes"/>
      <point x="610" y="617"/>
      <point x="608" y="615"/>
      <point x="605" y="615" type="curve" smooth="yes"/>
      <point x="380" y="615" type="line"/>
      <point x="385" y="620" type="line"/>
      <point x="385" y="90" type="line" smooth="yes"/>
      <point x="385" y="87"/>
      <point x="383" y="85"/>
      <point x="380" y="85" type="curve" smooth="yes"/>
    </contour>
  </outline>
</glyph>
<glyph name="U" format="1">
  <advance width="750"/>
  <unicode hex="0055"/>
  <outline>
    <contour>
      <point x="161" y="630" type="line" smooth="yes"/>
      <point x="161" y="639"/>
      <point x="167" y="645"/>
      <point x="176" y="645" type="curve" smooth="yes"/>
      <point x="186" y="645" type="line" smooth="yes"/>
      <point x="195" y="645"/>
      <point x="201" y="639"/>
      <point x="201" y="630" type="curve" smooth="yes"/>
      <point x="201" y="213" type="line" smooth="yes"/>
      <point x="201" y="144"/>
      <point x="245" y="103"/>
      <point x="376" y="103" type="curve" smooth="yes"/>
      <point x="507" y="103"/>
      <point x="552" y="144"/>
      <point x="552" y="213" type="curve" smooth="yes"/>
      <point x="552" y="630" type="line" smooth="yes"/>
      <point x="552" y="639"/>
      <point x="558" y="645"/>
      <point x="567" y="645" type="curve" smooth="yes"/>
      <point x="577" y="645" type="line" smooth="yes"/>
      <point x="586" y="645"/>
      <point x="592" y="639"/>
      <point x="592" y="630" type="curve" smooth="yes"/>
      <point x="592" y="213" type="line" smooth="yes"/>
      <point x="592" y="126"/>
      <point x="551" y="63"/>
      <point x="376" y="63" type="curve" smooth="yes"/>
      <point x="201" y="63"/>
      <point x="161" y="126"/>
      <point x="161" y="213" type="curve" smooth="yes"/>
    </contour>
  </outline>
</glyph>
<glyph name="V" format="1">
  <advance width="750"/>
  <unicode hex="0056"/>
  <outline>
    <contour>
      <point x="172" y="630" type="line" smooth="yes"/>
      <point x="172" y="633"/>
      <point x="174" y="635"/>
      <point x="177" y="635" type="curve" smooth="yes"/>
      <point x="187" y="635" type="line" smooth="yes"/>
      <point x="190" y="635"/>
      <point x="192" y="633"/>
      <point x="192" y="630" type="curve" smooth="yes"/>
      <point x="192" y="414" type="line" smooth="yes"/>
      <point x="192" y="380"/>
      <point x="197" y="349"/>
      <point x="208" y="323" type="curve" smooth="yes"/>
      <point x="274" y="163" type="line" smooth="yes"/>
      <point x="287" y="130"/>
      <point x="296" y="105"/>
      <point x="332" y="105" type="curve" smooth="yes"/>
      <point x="420" y="105" type="line" smooth="yes"/>
      <point x="456" y="105"/>
      <point x="465" y="130"/>
      <point x="478" y="163" type="curve" smooth="yes"/>
      <point x="544" y="323" type="line" smooth="yes"/>
      <point x="555" y="349"/>
      <point x="560" y="380"/>
      <point x="560" y="414" type="curve" smooth="yes"/>
      <point x="560" y="630" type="line" smooth="yes"/>
      <point x="560" y="633"/>
      <point x="562" y="635"/>
      <point x="565" y="635" type="curve" smooth="yes"/>
      <point x="575" y="635" type="line" smooth="yes"/>
      <point x="578" y="635"/>
      <point x="580" y="633"/>
      <point x="580" y="630" type="curve" smooth="yes"/>
      <point x="580" y="414" type="line" smooth="yes"/>
      <point x="580" y="376"/>
      <point x="576" y="345"/>
      <point x="564" y="315" type="curve" smooth="yes"/>
      <point x="498" y="155" type="line" smooth="yes"/>
      <point x="481" y="114"/>
      <point x="464" y="85"/>
      <point x="420" y="85" type="curve" smooth="yes"/>
      <point x="332" y="85" type="line" smooth="yes"/>
      <point x="288" y="85"/>
      <point x="271" y="114"/>
      <point x="254" y="155" type="curve" smooth="yes"/>
      <point x="188" y="315" type="line" smooth="yes"/>
      <point x="176" y="345"/>
      <point x="172" y="376"/>
      <point x="172" y="414" type="curve" smooth="yes"/>
    </contour>
    <contour>
      <point x="375" y="747" type="move" name="top"/>
    </contour>
    <contour>
      <point x="375" y="0" type="move" name="bottom"/>
    </contour>
  </outline>
</glyph>
<glyph name="W" format="1">
  <advance width="750"/>
  <unicode hex="0057"/>
  <outline>
    <contour>
      <point x="411" y="311" type="curve" smooth="yes"/>
      <point x="504" y="105" type="line" smooth="yes"/>
      <point x="511" y="89"/>
      <point x="528" y="85"/>
      <point x="542" y="85" type="curve" smooth="yes"/>
      <point x="559" y="85" type="line" smooth="yes"/>
      <point x="586" y="85"/>
      <point x="597" y="96"/>
      <point x="597" y="121" type="curve" smooth="yes"/>
      <point x="599" y="630" type="line" smooth="yes"/>
      <point x="599" y="633"/>
      <point x="597" y="635"/>
      <point x="594" y="635" type="curve" smooth="yes"/>
      <point x="584" y="635" type="line" smooth="yes"/>
      <point x="581" y="635"/>
      <point x="579" y="633"/>
      <point x="579" y="630" type="curve" smooth="yes"/>
      <point x="577" y="121" type="line"/>
      <point x="577" y="112"/>
      <point x="573" y="105"/>
      <point x="559" y="105" type="curve" smooth="yes"/>
      <point x="544" y="105" type="line" smooth="yes"/>
      <point x="536" y="105"/>
      <point x="527" y="104"/>
      <point x="522" y="116" type="curve" smooth="yes"/>
      <point x="429" y="320" type="line" smooth="yes"/>
      <point x="410" y="362"/>
      <point x="401" y="370"/>
      <point x="375" y="370" type="curve" smooth="yes"/>
      <point x="349" y="370"/>
      <point x="340" y="362"/>
      <point x="321" y="320" type="curve" smooth="yes"/>
      <point x="228" y="116" type="line" smooth="yes"/>
      <point x="223" y="104"/>
      <point x="214" y="105"/>
      <point x="206" y="105" type="curve" smooth="yes"/>
      <point x="187" y="105" type="line" smooth="yes"/>
      <point x="175" y="105"/>
      <point x="173" y="113"/>
      <point x="173" y="121" type="curve" smooth="yes"/>
      <point x="171" y="630" type="line" smooth="yes"/>
      <point x="171" y="633"/>
      <point x="169" y="635"/>
      <point x="166" y="635" type="curve" smooth="yes"/>
      <point x="156" y="635" type="line" smooth="yes"/>
      <point x="153" y="635"/>
      <point x="151" y="633"/>
      <point x="151" y="630" type="curve" smooth="yes"/>
      <point x="153" y="121" type="line" smooth="yes"/>
      <point x="153" y="95"/>
      <point x="164" y="85"/>
      <point x="187" y="85" type="curve" smooth="yes"/>
      <point x="208" y="85" type="line" smooth="yes"/>
      <point x="222" y="85"/>
      <point x="238" y="88"/>
      <point x="246" y="105" type="curve" smooth="yes"/>
      <point x="339" y="311" type="line" smooth="yes"/>
      <point x="354" y="345"/>
      <point x="358" y="350"/>
      <point x="375" y="350" type="curve" smooth="yes"/>
      <point x="392" y="350"/>
      <point x="397" y="343"/>
    </contour>
    <contour>
      <point x="374" y="747" type="move" name="top"/>
    </contour>
    <contour>
      <point x="374" y="0" type="move" name="bottom"/>
    </contour>
  </outline>
</glyph>
<glyph name="X" format="1">
  <advance width="750"/>
  <unicode hex="0058"/>
  <outline>
    <contour>
      <point x="188" y="135" type="curve" smooth="yes"/>
      <point x="188" y="90" type="line" smooth="yes"/>
      <point x="188" y="87"/>
      <point x="186" y="85"/>
      <point x="183" y="85" type="curve" smooth="yes"/>
      <point x="173" y="85" type="line" smooth="yes"/>
      <point x="170" y="85"/>
      <point x="168" y="87"/>
      <point x="168" y="90" type="curve" smooth="yes"/>
      <point x="168" y="135" type="line" smooth="yes"/>
      <point x="168" y="165"/>
      <point x="167" y="192"/>
      <point x="184" y="215" type="curve" smooth="yes"/>
      <point x="304" y="379" type="line"/>
      <point x="304" y="373" type="line"/>
      <point x="184" y="535" type="line" smooth="yes"/>
      <point x="168" y="557"/>
      <point x="168" y="585"/>
      <point x="168" y="615" type="curve" smooth="yes"/>
      <point x="168" y="630" type="line" smooth="yes"/>
      <point x="168" y="633"/>
      <point x="170" y="635"/>
      <point x="173" y="635" type="curve" smooth="yes"/>
      <point x="183" y="635" type="line" smooth="yes"/>
      <point x="186" y="635"/>
      <point x="188" y="633"/>
      <point x="188" y="630" type="curve" smooth="yes"/>
      <point x="188" y="615" type="line" smooth="yes"/>
      <point x="188" y="588"/>
      <point x="188" y="563"/>
      <point x="201" y="545" type="curve" smooth="yes"/>
      <point x="321" y="383" type="line"/>
      <point x="317" y="385" type="line"/>
      <point x="436" y="385" type="line"/>
      <point x="432" y="383" type="line"/>
      <point x="548" y="545" type="line" smooth="yes"/>
      <point x="560" y="563"/>
      <point x="561" y="588"/>
      <point x="561" y="615" type="curve" smooth="yes"/>
      <point x="561" y="630" type="line" smooth="yes"/>
      <point x="561" y="633"/>
      <point x="563" y="635"/>
      <point x="566" y="635" type="curve" smooth="yes"/>
      <point x="576" y="635" type="line" smooth="yes"/>
      <point x="579" y="635"/>
      <point x="581" y="633"/>
      <point x="581" y="630" type="curve" smooth="yes"/>
      <point x="581" y="615" type="line" smooth="yes"/>
      <point x="581" y="585"/>
      <point x="581" y="557"/>
      <point x="565" y="535" type="curve" smooth="yes"/>
      <point x="447" y="371" type="line"/>
      <point x="447" y="377" type="line"/>
      <point x="565" y="215" type="line" smooth="yes"/>
      <point x="581" y="193"/>
      <point x="581" y="165"/>
      <point x="581" y="135" type="curve" smooth="yes"/>
      <point x="581" y="90" type="line" smooth="yes"/>
      <point x="581" y="87"/>
      <point x="579" y="85"/>
      <point x="576" y="85" type="curve" smooth="yes"/>
      <point x="566" y="85" type="line" smooth="yes"/>
      <point x="563" y="85"/>
      <point x="561" y="87"/>
      <point x="561" y="90" type="curve" smooth="yes"/>
      <point x="561" y="135" type="line" smooth="yes"/>
      <point x="561" y="162"/>
      <point x="561" y="187"/>
      <point x="548" y="205" type="curve" smooth="yes"/>
      <point x="431" y="367" type="line"/>
      <point x="435" y="365" type="line"/>
      <point x="315" y="365" type="line"/>
      <point x="319" y="367" type="line"/>
      <point x="201" y="205" type="line" smooth="yes"/>
      <point x="189" y="188"/>
      <point x="188" y="162"/>
    </contour>
    <contour>
      <point x="374" y="747" type="move" name="top"/>
    </contour>
    <contour>
      <point x="374" y="0" type="move" name="bottom"/>
    </contour>
  </outline>
</glyph>
<glyph name="Y" format="1">
  <advance width="750"/>
  <unicode hex="0059"/>
  <outline>
    <contour>
      <point x="395" y="90" type="curve" smooth="yes"/>
      <point x="395" y="246" type="line"/>
      <point x="427" y="248"/>
      <point x="450" y="263"/>
      <point x="473" y="294" type="curve" smooth="yes"/>
      <point x="573" y="429" type="line" smooth="yes"/>
      <point x="591" y="453"/>
      <point x="591" y="482"/>
      <point x="591" y="515" type="curve" smooth="yes"/>
      <point x="591" y="630" type="line" smooth="yes"/>
      <point x="591" y="639"/>
      <point x="585" y="645"/>
      <point x="576" y="645" type="curve" smooth="yes"/>
      <point x="566" y="645" type="line" smooth="yes"/>
      <point x="557" y="645"/>
      <point x="551" y="639"/>
      <point x="551" y="630" type="curve" smooth="yes"/>
      <point x="551" y="515" type="line" smooth="yes"/>
      <point x="551" y="491"/>
      <point x="552" y="467"/>
      <point x="540" y="451" type="curve" smooth="yes"/>
      <point x="440" y="316" type="line" smooth="yes"/>
      <point x="424" y="295"/>
      <point x="408" y="286"/>
      <point x="387" y="286" type="curve" smooth="yes"/>
      <point x="360" y="286" type="line" smooth="yes"/>
      <point x="341" y="286"/>
      <point x="323" y="294"/>
      <point x="308" y="316" type="curve" smooth="yes"/>
      <point x="211" y="450" type="line"/>
      <point x="200" y="468"/>
      <point x="200" y="490"/>
      <point x="200" y="515" type="curve" smooth="yes"/>
      <point x="200" y="630" type="line" smooth="yes"/>
      <point x="200" y="639"/>
      <point x="194" y="645"/>
      <point x="185" y="645" type="curve" smooth="yes"/>
      <point x="175" y="645" type="line" smooth="yes"/>
      <point x="166" y="645"/>
      <point x="160" y="639"/>
      <point x="160" y="630" type="curve" smooth="yes"/>
      <point x="160" y="515" type="line" smooth="yes"/>
      <point x="160" y="483"/>
      <point x="161" y="452"/>
      <point x="178" y="429" type="curve" smooth="yes"/>
      <point x="275" y="294" type="line" smooth="yes"/>
      <point x="299" y="261"/>
      <point x="323" y="247"/>
      <point x="355" y="246" type="curve"/>
      <point x="355" y="90" type="line" smooth="yes"/>
      <point x="355" y="81"/>
      <point x="361" y="75"/>
      <point x="370" y="75" type="curve" smooth="yes"/>
      <point x="380" y="75" type="line" smooth="yes"/>
      <point x="389" y="75"/>
      <point x="395" y="81"/>
    </contour>
    <contour>
      <point x="374" y="747" type="move" name="top"/>
    </contour>
    <contour>
      <point x="374" y="0" type="move" name="bottom"/>
    </contour>
  </outline>
</glyph>
<glyph name="Z" format="1">
  <advance width="750"/>
  <unicode hex="005A"/>
  <outline>
    <contour>
      <point x="522" y="541" type="curve"/>
      <point x="522" y="541" type="line"/>
      <point x="229" y="165" type="line" smooth="yes"/>
      <point x="220" y="154"/>
      <point x="216" y="149"/>
      <point x="216" y="137" type="curve" smooth="yes"/>
      <point x="216" y="123" type="line" smooth="yes"/>
      <point x="216" y="109"/>
      <point x="223" y="105"/>
      <point x="232" y="105" type="curve" smooth="yes"/>
      <point x="569" y="105" type="line" smooth="yes"/>
      <point x="572" y="105"/>
      <point x="574" y="103"/>
      <point x="574" y="100" type="curve" smooth="yes"/>
      <point x="574" y="90" type="line" smooth="yes"/>
      <point x="574" y="87"/>
      <point x="572" y="85"/>
      <point x="569" y="85" type="curve" smooth="yes"/>
      <point x="232" y="85" type="line" smooth="yes"/>
      <point x="207" y="85"/>
      <point x="196" y="96"/>
      <point x="196" y="123" type="curve" smooth="yes"/>
      <point x="196" y="139" type="line" smooth="yes"/>
      <point x="196" y="155"/>
      <point x="203" y="166"/>
      <point x="214" y="179" type="curve" smooth="yes"/>
      <point x="507" y="555" type="line" smooth="yes"/>
      <point x="516" y="566"/>
      <point x="520" y="571"/>
      <point x="520" y="583" type="curve" smooth="yes"/>
      <point x="520" y="597" type="line" smooth="yes"/>
      <point x="520" y="611"/>
      <point x="513" y="615"/>
      <point x="504" y="615" type="curve" smooth="yes"/>
      <point x="199" y="615" type="line" smooth="yes"/>
      <point x="196" y="615"/>
      <point x="194" y="617"/>
      <point x="194" y="620" type="curve" smooth="yes"/>
      <point x="194" y="630" type="line" smooth="yes"/>
      <point x="194" y="633"/>
      <point x="196" y="635"/>
      <point x="199" y="635" type="curve" smooth="yes"/>
      <point x="504" y="635" type="line" smooth="yes"/>
      <point x="529" y="635"/>
      <point x="540" y="624"/>
      <point x="540" y="597" type="curve" smooth="yes"/>
      <point x="540" y="581" type="line" smooth="yes"/>
      <point x="540" y="565"/>
      <point x="533" y="554"/>
    </contour>
    <contour>
      <point x="375" y="747" type="move" name="top"/>
    </contour>
    <contour>
      <point x="375" y="0" type="move" name="bottom"/>
    </contour>
  </outline>
</glyph>
<glyph name="bracketleft" format="1">
  <advance width="750"/>
  <unicode hex="005B"/>
  <outline>
    <contour>
      <point x="469" y="11" type="curve" smooth="yes"/>
      <point x="469" y="21" type="line" smooth="yes"/>
      <point x="469" y="30"/>
      <point x="463" y="36"/>
      <point x="454" y="36" type="curve" smooth="yes"/>
      <point x="342" y="36" type="line"/>
      <point x="342" y="683" type="line"/>
      <point x="454" y="683" type="line" smooth="yes"/>
      <point x="463" y="683"/>
      <point x="469" y="689"/>
      <point x="469" y="698" type="curve" smooth="yes"/>
      <point x="469" y="708" type="line" smooth="yes"/>
      <point x="469" y="717"/>
      <point x="463" y="723"/>
      <point x="454" y="723" type="curve" smooth="yes"/>
      <point x="317" y="723" type="line" smooth="yes"/>
      <point x="308" y="723"/>
      <point x="302" y="717"/>
      <point x="302" y="708" type="curve" smooth="yes"/>
      <point x="302" y="11" type="line" smooth="yes"/>
      <point x="302" y="2"/>
      <point x="308" y="-4"/>
      <point x="317" y="-4" type="curve" smooth="yes"/>
      <point x="454" y="-4" type="line" smooth="yes"/>
      <point x="463" y="-4"/>
      <point x="469" y="2"/>
    </contour>
  </outline>
</glyph>
<glyph name="backslash" format="1">
  <advance width="750"/>
  <unicode hex="005C"/>
  <outline>
    <contour>
      <point x="328" y="725" type="line" smooth="yes"/>
      <point x="330" y="725"/>
      <point x="333" y="723"/>
      <point x="333" y="721" type="curve" smooth="yes"/>
      <point x="437" y="1" type="line" smooth="yes"/>
      <point x="437" y="-2"/>
      <point x="435" y="-5"/>
      <point x="432" y="-5" type="curve" smooth="yes"/>
      <point x="422" y="-5" type="line" smooth="yes"/>
      <point x="420" y="-5"/>
      <point x="417" y="-3"/>
      <point x="417" y="-1" type="curve" smooth="yes"/>
      <point x="313" y="719" type="line" smooth="yes"/>
      <point x="313" y="722"/>
      <point x="315" y="725"/>
      <point x="318" y="725" type="curve" smooth="yes"/>
    </contour>
  </outline>
</glyph>
<glyph name="bracketright" format="1">
  <advance width="750"/>
  <unicode hex="005D"/>
  <outline>
    <contour>
      <point x="447" y="11" type="curve" smooth="yes"/>
      <point x="447" y="708" type="line" smooth="yes"/>
      <point x="447" y="717"/>
      <point x="441" y="723"/>
      <point x="432" y="723" type="curve" smooth="yes"/>
      <point x="295" y="723" type="line" smooth="yes"/>
      <point x="286" y="723"/>
      <point x="280" y="717"/>
      <point x="280" y="708" type="curve" smooth="yes"/>
      <point x="280" y="698" type="line" smooth="yes"/>
      <point x="280" y="689"/>
      <point x="286" y="683"/>
      <point x="295" y="683" type="curve" smooth="yes"/>
      <point x="407" y="683" type="line"/>
      <point x="407" y="36" type="line"/>
      <point x="295" y="36" type="line" smooth="yes"/>
      <point x="286" y="36"/>
      <point x="280" y="30"/>
      <point x="280" y="21" type="curve" smooth="yes"/>
      <point x="280" y="11" type="line" smooth="yes"/>
      <point x="280" y="2"/>
      <point x="286" y="-4"/>
      <point x="295" y="-4" type="curve" smooth="yes"/>
      <point x="432" y="-4" type="line" smooth="yes"/>
      <point x="441" y="-4"/>
      <point x="447" y="2"/>
    </contour>
  </outline>
</glyph>
<glyph name="asciicircum" format="1">
  <advance width="750"/>
  <unicode hex="005E"/>
  <outline>
    <contour>
      <point x="553" y="262" type="line" smooth="yes"/>
      <point x="554" y="259"/>
      <point x="552" y="256"/>
      <point x="548" y="256" type="curve" smooth="yes"/>
      <point x="537" y="256" type="line" smooth="yes"/>
      <point x="535" y="256"/>
      <point x="533" y="258"/>
      <point x="532" y="260" type="curve" smooth="yes"/>
      <point x="446" y="561" type="line" smooth="yes"/>
      <point x="439" y="587"/>
      <point x="432" y="611"/>
      <point x="394" y="611" type="curve" smooth="yes"/>
      <point x="321" y="611" type="line" smooth="yes"/>
      <point x="283" y="611"/>
      <point x="277" y="588"/>
      <point x="269" y="560" type="curve" smooth="yes"/>
      <point x="184" y="260" type="line" smooth="yes"/>
      <point x="183" y="258"/>
      <point x="181" y="256"/>
      <point x="179" y="256" type="curve" smooth="yes"/>
      <point x="168" y="256" type="line" smooth="yes"/>
      <point x="164" y="256"/>
      <point x="162" y="259"/>
      <point x="163" y="262" type="curve" smooth="yes"/>
      <point x="249" y="564" type="line" smooth="yes"/>
      <point x="260" y="604"/>
      <point x="271" y="631"/>
      <point x="321" y="631" type="curve" smooth="yes"/>
      <point x="394" y="631" type="line" smooth="yes"/>
      <point x="444" y="631"/>
      <point x="455" y="603"/>
      <point x="466" y="565" type="curve" smooth="yes"/>
    </contour>
  </outline>
</glyph>
<glyph name="underscore" format="1">
  <advance width="750"/>
  <unicode hex="005F"/>
  <outline>
    <contour>
      <point x="582" y="10" type="line" smooth="yes"/>
      <point x="585" y="10"/>
      <point x="587" y="8"/>
      <point x="587" y="5" type="curve" smooth="yes"/>
      <point x="587" y="-5" type="line" smooth="yes"/>
      <point x="587" y="-8"/>
      <point x="585" y="-10"/>
      <point x="582" y="-10" type="curve" smooth="yes"/>
      <point x="168" y="-10" type="line" smooth="yes"/>
      <point x="165" y="-10"/>
      <point x="163" y="-8"/>
      <point x="163" y="-5" type="curve" smooth="yes"/>
      <point x="163" y="5" type="line" smooth="yes"/>
      <point x="163" y="8"/>
      <point x="165" y="10"/>
      <point x="168" y="10" type="curve" smooth="yes"/>
    </contour>
  </outline>
</glyph>
<glyph name="grave" format="1">
  <advance width="750"/>
  <unicode hex="0060"/>
  <outline>
    <contour>
      <point x="254" y="862" type="line" smooth="yes"/>
      <point x="252" y="862"/>
      <point x="250" y="865"/>
      <point x="250" y="867" type="curve" smooth="yes"/>
      <point x="250" y="877" type="line" smooth="yes"/>
      <point x="250" y="880"/>
      <point x="253" y="882"/>
      <point x="256" y="882" type="curve" smooth="yes"/>
      <point x="495" y="852" type="line" smooth="yes"/>
      <point x="497" y="852"/>
      <point x="499" y="849"/>
      <point x="499" y="847" type="curve" smooth="yes"/>
      <point x="499" y="837" type="line" smooth="yes"/>
      <point x="499" y="834"/>
      <point x="496" y="832"/>
      <point x="493" y="832" type="curve" smooth="yes"/>
    </contour>
    <contour>
      <point x="375" y="747" type="move" name="_top"/>
    </contour>
    <contour>
      <point x="375" y="0" type="move" name="_bottom"/>
    </contour>
  </outline>
</glyph>
<glyph name="braceleft" format="1">
  <advance width="750"/>
  <unicode hex="007B"/>
  <outline>
    <contour>
      <point x="482" y="11" type="curve" smooth="yes"/>
      <point x="482" y="21" type="line" smooth="yes"/>
      <point x="482" y="30"/>
      <point x="476" y="36"/>
      <point x="467" y="36" type="curve" smooth="yes"/>
      <point x="400" y="36"/>
      <point x="365" y="63"/>
      <point x="365" y="124" type="curve" smooth="yes"/>
      <point x="365" y="283" type="line" smooth="yes"/>
      <point x="365" y="290"/>
      <point x="357" y="298"/>
      <point x="351" y="298" type="curve"/>
      <point x="352" y="298" type="line"/>
      <point x="317" y="302"/>
      <point x="301" y="315"/>
      <point x="301" y="344" type="curve" smooth="yes"/>
      <point x="301" y="372" type="line" smooth="yes"/>
      <point x="301" y="401"/>
      <point x="316" y="414"/>
      <point x="352" y="418" type="curve"/>
      <point x="351" y="418" type="line"/>
      <point x="357" y="418"/>
      <point x="365" y="426"/>
      <point x="365" y="433" type="curve" smooth="yes"/>
      <point x="365" y="595" type="line" smooth="yes"/>
      <point x="365" y="664"/>
      <point x="399" y="683"/>
      <point x="467" y="683" type="curve" smooth="yes"/>
      <point x="476" y="683"/>
      <point x="482" y="689"/>
      <point x="482" y="698" type="curve" smooth="yes"/>
      <point x="482" y="708" type="line" smooth="yes"/>
      <point x="482" y="717"/>
      <point x="476" y="723"/>
      <point x="467" y="723" type="curve" smooth="yes"/>
      <point x="367" y="723"/>
      <point x="325" y="690"/>
      <point x="325" y="595" type="curve" smooth="yes"/>
      <point x="325" y="454" type="line"/>
      <point x="284" y="444"/>
      <point x="261" y="419"/>
      <point x="261" y="372" type="curve" smooth="yes"/>
      <point x="261" y="344" type="line" smooth="yes"/>
      <point x="261" y="298"/>
      <point x="284" y="272"/>
      <point x="325" y="262" type="curve"/>
      <point x="325" y="124" type="line" smooth="yes"/>
      <point x="325" y="39"/>
      <point x="368" y="-4"/>
      <point x="467" y="-4" type="curve" smooth="yes"/>
      <point x="476" y="-4"/>
      <point x="482" y="2"/>
    </contour>
  </outline>
</glyph>
<glyph name="bar" format="1">
  <advance width="750"/>
  <unicode hex="007C"/>
  <outline>
    <contour>
      <point x="355" y="0" type="line" smooth="yes"/>
      <point x="355" y="-9"/>
      <point x="361" y="-15"/>
      <point x="370" y="-15" type="curve" smooth="yes"/>
      <point x="380" y="-15" type="line" smooth="yes"/>
      <point x="389" y="-15"/>
      <point x="395" y="-9"/>
      <point x="395" y="0" type="curve" smooth="yes"/>
      <point x="395" y="720" type="line" smooth="yes"/>
      <point x="395" y="729"/>
      <point x="389" y="735"/>
      <point x="380" y="735" type="curve" smooth="yes"/>
      <point x="370" y="735" type="line" smooth="yes"/>
      <point x="361" y="735"/>
      <point x="355" y="729"/>
      <point x="355" y="720" type="curve" smooth="yes"/>
    </contour>
  </outline>
</glyph>
<glyph name="braceright" format="1">
  <advance width="750"/>
  <unicode hex="007D"/>
  <outline>
    <contour>
      <point x="414" y="124" type="line" smooth="yes"/>
      <point x="414" y="45"/>
      <point x="373" y="6"/>
      <point x="282" y="6" type="curve" smooth="yes"/>
      <point x="279" y="6"/>
      <point x="277" y="8"/>
      <point x="277" y="11" type="curve" smooth="yes"/>
      <point x="277" y="21" type="line" smooth="yes"/>
      <point x="277" y="24"/>
      <point x="279" y="26"/>
      <point x="282" y="26" type="curve" smooth="yes"/>
      <point x="357" y="26"/>
      <point x="394" y="57"/>
      <point x="394" y="124" type="curve" smooth="yes"/>
      <point x="394" y="283" type="line" smooth="yes"/>
      <point x="394" y="285"/>
      <point x="396" y="288"/>
      <point x="398" y="288" type="curve" smooth="yes"/>
      <point x="441" y="293"/>
      <point x="458" y="310"/>
      <point x="458" y="344" type="curve" smooth="yes"/>
      <point x="458" y="372" type="line" smooth="yes"/>
      <point x="458" y="406"/>
      <point x="442" y="423"/>
      <point x="398" y="428" type="curve" smooth="yes"/>
      <point x="396" y="428"/>
      <point x="394" y="431"/>
      <point x="394" y="433" type="curve" smooth="yes"/>
      <point x="394" y="595" type="line" smooth="yes"/>
      <point x="394" y="671"/>
      <point x="358" y="693"/>
      <point x="282" y="693" type="curve" smooth="yes"/>
      <point x="279" y="693"/>
      <point x="277" y="695"/>
      <point x="277" y="698" type="curve" smooth="yes"/>
      <point x="277" y="708" type="line" smooth="yes"/>
      <point x="277" y="711"/>
      <point x="279" y="713"/>
      <point x="282" y="713" type="curve" smooth="yes"/>
      <point x="374" y="713"/>
      <point x="414" y="683"/>
      <point x="414" y="595" type="curve" smooth="yes"/>
      <point x="414" y="441" type="line"/>
      <point x="410" y="446" type="line"/>
      <point x="453" y="440"/>
      <point x="478" y="418"/>
      <point x="478" y="372" type="curve" smooth="yes"/>
      <point x="478" y="344" type="line" smooth="yes"/>
      <point x="478" y="299"/>
      <point x="453" y="276"/>
      <point x="410" y="270" type="curve"/>
      <point x="414" y="275" type="line"/>
    </contour>
  </outline>
</glyph>
<glyph name="asciitilde" format="1">
  <advance width="750"/>
  <unicode hex="007E"/>
  <outline>
    <contour>
      <point x="172" y="354" type="line"/>
      <point x="163" y="351"/>
      <point x="153" y="355"/>
      <point x="153" y="368" type="curve" smooth="yes"/>
      <point x="153" y="379" type="line" smooth="yes"/>
      <point x="153" y="384"/>
      <point x="157" y="390"/>
      <point x="163" y="393" type="curve" smooth="yes"/>
      <point x="163" y="393"/>
      <point x="164" y="394"/>
      <point x="164" y="394" type="curve" smooth="yes"/>
      <point x="214" y="407"/>
      <point x="248" y="408"/>
      <point x="338" y="395" type="curve" smooth="yes"/>
      <point x="378" y="390" type="line"/>
      <point x="401" y="387" type="line" smooth="yes"/>
      <point x="488" y="373"/>
      <point x="519" y="366"/>
      <point x="578" y="383" type="curve"/>
      <point x="587" y="385"/>
      <point x="597" y="381"/>
      <point x="597" y="368" type="curve" smooth="yes"/>
      <point x="597" y="357" type="line" smooth="yes"/>
      <point x="597" y="352"/>
      <point x="593" y="346"/>
      <point x="587" y="343" type="curve" smooth="yes"/>
      <point x="587" y="343"/>
      <point x="586" y="342"/>
      <point x="586" y="342" type="curve" smooth="yes"/>
      <point x="523" y="326"/>
      <point x="488" y="334"/>
      <point x="395" y="347" type="curve" smooth="yes"/>
      <point x="372" y="350" type="line"/>
      <point x="332" y="355" type="line" smooth="yes"/>
      <point x="249" y="368"/>
      <point x="219" y="366"/>
      <point x="172" y="353" type="curve"/>
    </contour>
  </outline>
</glyph>
<glyph name="A.t" format="1">
  <advance width="750"/>
  <outline>
    <contour>
      <point x="283" y="36" type="curve" smooth="yes"/>
      <point x="283" y="176" type="line"/>
      <point x="460" y="176" type="line"/>
      <point x="460" y="36" type="line" smooth="yes"/>
      <point x="460" y="11"/>
      <point x="472" y="0"/>
      <point x="499" y="0" type="curve" smooth="yes"/>
      <point x="650" y="0" type="line" smooth="yes"/>
      <point x="675" y="0"/>
      <point x="686" y="11"/>
      <point x="686" y="36" type="curve" smooth="yes"/>
      <point x="686" y="300" type="line" smooth="yes"/>
      <point x="686" y="340"/>
      <point x="674" y="390"/>
      <point x="647" y="460" type="curve" smooth="yes"/>
      <point x="560" y="687" type="line" smooth="yes"/>
      <point x="552" y="710"/>
      <point x="536" y="720"/>
      <point x="510" y="720" type="curve" smooth="yes"/>
      <point x="241" y="720" type="line" smooth="yes"/>
      <point x="214" y="720"/>
      <point x="198" y="710"/>
      <point x="190" y="687" type="curve" smooth="yes"/>
      <point x="103" y="460" type="line" smooth="yes"/>
      <point x="76" y="390"/>
      <point x="64" y="340"/>
      <point x="64" y="300" type="curve" smooth="yes"/>
      <point x="64" y="36" type="line" smooth="yes"/>
      <point x="64" y="11"/>
      <point x="75" y="0"/>
      <point x="100" y="0" type="curve" smooth="yes"/>
      <point x="247" y="0" type="line" smooth="yes"/>
      <point x="272" y="0"/>
      <point x="283" y="11"/>
    </contour>
    <contour>
      <point x="340" y="510" type="line"/>
      <point x="345" y="522"/>
      <point x="351" y="527"/>
      <point x="359" y="527" type="curve" smooth="yes"/>
      <point x="384" y="527" type="line" smooth="yes"/>
      <point x="392" y="527"/>
      <point x="398" y="522"/>
      <point x="403" y="510" type="curve"/>
      <point x="450" y="358" type="line"/>
      <point x="293" y="358" type="line"/>
    </contour>
  </outline>
</glyph>
<glyph name="B.t" format="1">
  <advance width="750"/>
  <outline>
    <contour>
      <point x="501" y="0" type="line" smooth="yes"/>
      <point x="634" y="0"/>
      <point x="695" y="52"/>
      <point x="695" y="164" type="curve" smooth="yes"/>
      <point x="695" y="256" type="line" smooth="yes"/>
      <point x="695" y="354"/>
      <point x="655" y="403"/>
      <point x="569" y="411" type="curve"/>
      <point x="609" y="428"/>
      <point x="628" y="463"/>
      <point x="628" y="519" type="curve" smooth="yes"/>
      <point x="628" y="567" type="line" smooth="yes"/>
      <point x="628" y="672"/>
      <point x="567" y="720"/>
      <point x="436" y="720" type="curve" smooth="yes"/>
      <point x="117" y="720" type="line" smooth="yes"/>
      <point x="92" y="720"/>
      <point x="81" y="709"/>
      <point x="81" y="684" type="curve" smooth="yes"/>
      <point x="81" y="36" type="line" smooth="yes"/>
      <point x="81" y="11"/>
      <point x="92" y="0"/>
      <point x="117" y="0" type="curve" smooth="yes"/>
    </contour>
    <contour>
      <point x="306" y="550" type="line"/>
      <point x="391" y="550" type="line" smooth="yes"/>
      <point x="417" y="550"/>
      <point x="429" y="537"/>
      <point x="429" y="510" type="curve" smooth="yes"/>
      <point x="429" y="482" type="line" smooth="yes"/>
      <point x="429" y="455"/>
      <point x="417" y="442"/>
      <point x="391" y="442" type="curve" smooth="yes"/>
      <point x="306" y="442" type="line"/>
    </contour>
    <contour>
      <point x="306" y="288" type="line"/>
      <point x="436" y="288" type="line" smooth="yes"/>
      <point x="462" y="288"/>
      <point x="474" y="276"/>
      <point x="474" y="249" type="curve" smooth="yes"/>
      <point x="474" y="210" type="line" smooth="yes"/>
      <point x="474" y="183"/>
      <point x="462" y="170"/>
      <point x="436" y="170" type="curve" smooth="yes"/>
      <point x="306" y="170" type="line"/>
    </contour>
  </outline>
</glyph>
<glyph name="C.t" format="1">
  <advance width="750"/>
  <outline>
    <contour>
      <point x="609" y="0" type="line" smooth="yes"/>
      <point x="634" y="0"/>
      <point x="645" y="11"/>
      <point x="645" y="36" type="curve" smooth="yes"/>
      <point x="645" y="155" type="line" smooth="yes"/>
      <point x="645" y="180"/>
      <point x="634" y="191"/>
      <point x="609" y="191" type="curve" smooth="yes"/>
      <point x="408" y="191" type="line" smooth="yes"/>
      <point x="366" y="191"/>
      <point x="347" y="206"/>
      <point x="347" y="239" type="curve" smooth="yes"/>
      <point x="347" y="477" type="line" smooth="yes"/>
      <point x="347" y="511"/>
      <point x="366" y="527"/>
      <point x="408" y="527" type="curve" smooth="yes"/>
      <point x="609" y="527" type="line" smooth="yes"/>
      <point x="634" y="527"/>
      <point x="645" y="538"/>
      <point x="645" y="563" type="curve" smooth="yes"/>
      <point x="645" y="684" type="line" smooth="yes"/>
      <point x="645" y="709"/>
      <point x="634" y="720"/>
      <point x="609" y="720" type="curve" smooth="yes"/>
      <point x="365" y="720" type="line" smooth="yes"/>
      <point x="197" y="720"/>
      <point x="119" y="655"/>
      <point x="119" y="515" type="curve" smooth="yes"/>
      <point x="119" y="204" type="line" smooth="yes"/>
      <point x="119" y="65"/>
      <point x="197" y="0"/>
      <point x="365" y="0" type="curve" smooth="yes"/>
    </contour>
  </outline>
</glyph>
<glyph name="D.t" format="1">
  <advance width="750"/>
  <outline>
    <contour>
      <point x="444" y="0" type="line" smooth="yes"/>
      <point x="612" y="0"/>
      <point x="690" y="65"/>
      <point x="690" y="204" type="curve" smooth="yes"/>
      <point x="690" y="516" type="line" smooth="yes"/>
      <point x="690" y="655"/>
      <point x="612" y="720"/>
      <point x="444" y="720" type="curve" smooth="yes"/>
      <point x="107" y="720" type="line" smooth="yes"/>
      <point x="82" y="720"/>
      <point x="71" y="709"/>
      <point x="71" y="684" type="curve" smooth="yes"/>
      <point x="71" y="36" type="line" smooth="yes"/>
      <point x="71" y="11"/>
      <point x="82" y="0"/>
      <point x="107" y="0" type="curve" smooth="yes"/>
    </contour>
    <contour>
      <point x="298" y="529" type="line"/>
      <point x="417" y="529" type="line" smooth="yes"/>
      <point x="449" y="529"/>
      <point x="464" y="514"/>
      <point x="464" y="481" type="curve" smooth="yes"/>
      <point x="464" y="238" type="line" smooth="yes"/>
      <point x="464" y="204"/>
      <point x="449" y="189"/>
      <point x="417" y="189" type="curve" smooth="yes"/>
      <point x="298" y="189" type="line"/>
    </contour>
  </outline>
</glyph>
<glyph name="E.t" format="1">
  <advance width="750"/>
  <outline>
    <contour>
      <point x="617" y="0" type="line" smooth="yes"/>
      <point x="642" y="0"/>
      <point x="653" y="11"/>
      <point x="653" y="36" type="curve" smooth="yes"/>
      <point x="653" y="153" type="line" smooth="yes"/>
      <point x="653" y="178"/>
      <point x="642" y="189"/>
      <point x="617" y="189" type="curve" smooth="yes"/>
      <point x="341" y="189" type="line"/>
      <point x="341" y="275" type="line"/>
      <point x="536" y="275" type="line" smooth="yes"/>
      <point x="561" y="275"/>
      <point x="572" y="286"/>
      <point x="572" y="311" type="curve" smooth="yes"/>
      <point x="572" y="418" type="line" smooth="yes"/>
      <point x="572" y="443"/>
      <point x="561" y="454"/>
      <point x="536" y="454" type="curve" smooth="yes"/>
      <point x="341" y="454" type="line"/>
      <point x="341" y="531" type="line"/>
      <point x="617" y="531" type="line" smooth="yes"/>
      <point x="642" y="531"/>
      <point x="653" y="542"/>
      <point x="653" y="567" type="curve" smooth="yes"/>
      <point x="653" y="684" type="line" smooth="yes"/>
      <point x="653" y="709"/>
      <point x="642" y="720"/>
      <point x="617" y="720" type="curve" smooth="yes"/>
      <point x="153" y="720" type="line" smooth="yes"/>
      <point x="128" y="720"/>
      <point x="117" y="709"/>
      <point x="117" y="684" type="curve" smooth="yes"/>
      <point x="117" y="36" type="line" smooth="yes"/>
      <point x="117" y="11"/>
      <point x="128" y="0"/>
      <point x="153" y="0" type="curve" smooth="yes"/>
    </contour>
  </outline>
</glyph>
<glyph name="F.t" format="1">
  <advance width="750"/>
  <outline>
    <contour>
      <point x="326" y="0" type="line" smooth="yes"/>
      <point x="351" y="0"/>
      <point x="362" y="11"/>
      <point x="362" y="36" type="curve" smooth="yes"/>
      <point x="362" y="233" type="line"/>
      <point x="536" y="233" type="line" smooth="yes"/>
      <point x="561" y="233"/>
      <point x="572" y="244"/>
      <point x="572" y="269" type="curve" smooth="yes"/>
      <point x="572" y="389" type="line" smooth="yes"/>
      <point x="572" y="414"/>
      <point x="561" y="425"/>
      <point x="536" y="425" type="curve" smooth="yes"/>
      <point x="362" y="425" type="line"/>
      <point x="362" y="529" type="line"/>
      <point x="617" y="529" type="line" smooth="yes"/>
      <point x="642" y="529"/>
      <point x="653" y="540"/>
      <point x="653" y="565" type="curve" smooth="yes"/>
      <point x="653" y="684" type="line" smooth="yes"/>
      <point x="653" y="709"/>
      <point x="642" y="720"/>
      <point x="617" y="720" type="curve" smooth="yes"/>
      <point x="171" y="720" type="line" smooth="yes"/>
      <point x="146" y="720"/>
      <point x="135" y="709"/>
      <point x="135" y="684" type="curve" smooth="yes"/>
      <point x="135" y="36" type="line" smooth="yes"/>
      <point x="135" y="11"/>
      <point x="146" y="0"/>
      <point x="171" y="0" type="curve" smooth="yes"/>
    </contour>
  </outline>
</glyph>
<glyph name="G.t" format="1">
  <advance width="750"/>
  <outline>
    <contour>
      <point x="640" y="0" type="line" smooth="yes"/>
      <point x="665" y="0"/>
      <point x="676" y="11"/>
      <point x="676" y="36" type="curve" smooth="yes"/>
      <point x="676" y="345" type="line" smooth="yes"/>
      <point x="676" y="370"/>
      <point x="665" y="381"/>
      <point x="640" y="381" type="curve" smooth="yes"/>
      <point x="485" y="381" type="line" smooth="yes"/>
      <point x="460" y="381"/>
      <point x="449" y="370"/>
      <point x="449" y="345" type="curve" smooth="yes"/>
      <point x="449" y="189" type="line"/>
      <point x="352" y="189" type="line" smooth="yes"/>
      <point x="321" y="189"/>
      <point x="306" y="204"/>
      <point x="306" y="238" type="curve" smooth="yes"/>
      <point x="306" y="477" type="line" smooth="yes"/>
      <point x="306" y="511"/>
      <point x="325" y="527"/>
      <point x="367" y="527" type="curve" smooth="yes"/>
      <point x="575" y="527" type="line" smooth="yes"/>
      <point x="600" y="527"/>
      <point x="611" y="538"/>
      <point x="611" y="563" type="curve" smooth="yes"/>
      <point x="611" y="684" type="line" smooth="yes"/>
      <point x="611" y="709"/>
      <point x="600" y="720"/>
      <point x="575" y="720" type="curve" smooth="yes"/>
      <point x="325" y="720" type="line" smooth="yes"/>
      <point x="157" y="720"/>
      <point x="79" y="655"/>
      <point x="79" y="516" type="curve" smooth="yes"/>
      <point x="79" y="204" type="line" smooth="yes"/>
      <point x="79" y="65"/>
      <point x="157" y="0"/>
      <point x="325" y="0" type="curve" smooth="yes"/>
    </contour>
  </outline>
</glyph>
<glyph name="H.t" format="1">
  <advance width="750"/>
  <outline>
    <contour>
      <point x="265" y="0" type="line" smooth="yes"/>
      <point x="290" y="0"/>
      <point x="301" y="11"/>
      <point x="301" y="36" type="curve" smooth="yes"/>
      <point x="301" y="258" type="line"/>
      <point x="448" y="258" type="line"/>
      <point x="448" y="36" type="line" smooth="yes"/>
      <point x="448" y="11"/>
      <point x="459" y="0"/>
      <point x="484" y="0" type="curve" smooth="yes"/>
      <point x="639" y="0" type="line" smooth="yes"/>
      <point x="664" y="0"/>
      <point x="675" y="11"/>
      <point x="675" y="36" type="curve" smooth="yes"/>
      <point x="675" y="684" type="line" smooth="yes"/>
      <point x="675" y="709"/>
      <point x="664" y="720"/>
      <point x="639" y="720" type="curve" smooth="yes"/>
      <point x="484" y="720" type="line" smooth="yes"/>
      <point x="459" y="720"/>
      <point x="448" y="709"/>
      <point x="448" y="684" type="curve" smooth="yes"/>
      <point x="448" y="467" type="line"/>
      <point x="301" y="467" type="line"/>
      <point x="301" y="684" type="line" smooth="yes"/>
      <point x="301" y="709"/>
      <point x="290" y="720"/>
      <point x="265" y="720" type="curve" smooth="yes"/>
      <point x="110" y="720" type="line" smooth="yes"/>
      <point x="85" y="720"/>
      <point x="74" y="709"/>
      <point x="74" y="684" type="curve" smooth="yes"/>
      <point x="74" y="36" type="line" smooth="yes"/>
      <point x="74" y="11"/>
      <point x="85" y="0"/>
      <point x="110" y="0" type="curve" smooth="yes"/>
    </contour>
  </outline>
</glyph>
<glyph name="I.t" format="1">
  <advance width="750"/>
  <outline>
    <contour>
      <point x="131" y="0" type="curve" smooth="yes"/>
      <point x="617" y="0" type="line" smooth="yes"/>
      <point x="642" y="0"/>
      <point x="653" y="11"/>
      <point x="653" y="36" type="curve" smooth="yes"/>
      <point x="653" y="155" type="line" smooth="yes"/>
      <point x="653" y="180"/>
      <point x="642" y="191"/>
      <point x="617" y="191" type="curve" smooth="yes"/>
      <point x="490" y="191" type="line"/>
      <point x="490" y="527" type="line"/>
      <point x="617" y="527" type="line" smooth="yes"/>
      <point x="642" y="527"/>
      <point x="653" y="538"/>
      <point x="653" y="563" type="curve" smooth="yes"/>
      <point x="653" y="684" type="line" smooth="yes"/>
      <point x="653" y="709"/>
      <point x="642" y="720"/>
      <point x="617" y="720" type="curve" smooth="yes"/>
      <point x="131" y="720" type="line" smooth="yes"/>
      <point x="106" y="720"/>
      <point x="95" y="709"/>
      <point x="95" y="684" type="curve" smooth="yes"/>
      <point x="95" y="563" type="line" smooth="yes"/>
      <point x="95" y="538"/>
      <point x="106" y="527"/>
      <point x="131" y="527" type="curve" smooth="yes"/>
      <point x="260" y="527" type="line"/>
      <point x="260" y="191" type="line"/>
      <point x="131" y="191" type="line" smooth="yes"/>
      <point x="106" y="191"/>
      <point x="95" y="180"/>
      <point x="95" y="155" type="curve" smooth="yes"/>
      <point x="95" y="36" type="line" smooth="yes"/>
      <point x="95" y="11"/>
      <point x="106" y="0"/>
    </contour>
  </outline>
</glyph>
<glyph name="J.t" format="1">
  <advance width="750"/>
  <outline>
    <contour>
      <point x="655" y="189" type="curve" smooth="yes"/>
      <point x="655" y="684" type="line" smooth="yes"/>
      <point x="655" y="709"/>
      <point x="644" y="720"/>
      <point x="619" y="720" type="curve" smooth="yes"/>
      <point x="462" y="720" type="line" smooth="yes"/>
      <point x="437" y="720"/>
      <point x="426" y="709"/>
      <point x="426" y="684" type="curve" smooth="yes"/>
      <point x="426" y="229" type="line" smooth="yes"/>
      <point x="426" y="202"/>
      <point x="418" y="182"/>
      <point x="360" y="182" type="curve" smooth="yes"/>
      <point x="298" y="182"/>
      <point x="289" y="202"/>
      <point x="289" y="229" type="curve" smooth="yes"/>
      <point x="289" y="351" type="line" smooth="yes"/>
      <point x="289" y="377"/>
      <point x="278" y="387"/>
      <point x="253" y="387" type="curve" smooth="yes"/>
      <point x="108" y="387" type="line" smooth="yes"/>
      <point x="83" y="387"/>
      <point x="72" y="377"/>
      <point x="72" y="351" type="curve" smooth="yes"/>
      <point x="72" y="189" type="line" smooth="yes"/>
      <point x="72" y="67"/>
      <point x="129" y="-15"/>
      <point x="362" y="-15" type="curve" smooth="yes"/>
      <point x="597" y="-15"/>
      <point x="655" y="67"/>
    </contour>
  </outline>
</glyph>
<glyph name="K.t" format="1">
  <advance width="750"/>
  <outline>
    <contour>
      <point x="262" y="0" type="line" smooth="yes"/>
      <point x="287" y="0"/>
      <point x="298" y="11"/>
      <point x="298" y="36" type="curve" smooth="yes"/>
      <point x="298" y="265" type="line"/>
      <point x="430" y="265" type="line" smooth="yes"/>
      <point x="451" y="265"/>
      <point x="462" y="253"/>
      <point x="462" y="231" type="curve" smooth="yes"/>
      <point x="462" y="36" type="line" smooth="yes"/>
      <point x="462" y="11"/>
      <point x="473" y="0"/>
      <point x="498" y="0" type="curve" smooth="yes"/>
      <point x="652" y="0" type="line" smooth="yes"/>
      <point x="677" y="0"/>
      <point x="688" y="11"/>
      <point x="688" y="36" type="curve" smooth="yes"/>
      <point x="688" y="318" type="line" smooth="yes"/>
      <point x="688" y="398"/>
      <point x="640" y="450"/>
      <point x="565" y="454" type="curve"/>
      <point x="667" y="687" type="line" smooth="yes"/>
      <point x="676" y="708"/>
      <point x="668" y="720"/>
      <point x="645" y="720" type="curve" smooth="yes"/>
      <point x="491" y="720" type="line" smooth="yes"/>
      <point x="465" y="720"/>
      <point x="451" y="711"/>
      <point x="441" y="687" type="curve" smooth="yes"/>
      <point x="338" y="454" type="line"/>
      <point x="298" y="454" type="line"/>
      <point x="298" y="684" type="line" smooth="yes"/>
      <point x="298" y="709"/>
      <point x="287" y="720"/>
      <point x="262" y="720" type="curve" smooth="yes"/>
      <point x="107" y="720" type="line" smooth="yes"/>
      <point x="82" y="720"/>
      <point x="71" y="709"/>
      <point x="71" y="684" type="curve" smooth="yes"/>
      <point x="71" y="36" type="line" smooth="yes"/>
      <point x="71" y="11"/>
      <point x="82" y="0"/>
      <point x="107" y="0" type="curve" smooth="yes"/>
    </contour>
  </outline>
</glyph>
<glyph name="L.t" format="1">
  <advance width="750"/>
  <outline>
    <contour>
      <point x="641" y="0" type="line" smooth="yes"/>
      <point x="666" y="0"/>
      <point x="677" y="11"/>
      <point x="677" y="36" type="curve" smooth="yes"/>
      <point x="677" y="351" type="line" smooth="yes"/>
      <point x="677" y="376"/>
      <point x="666" y="387"/>
      <point x="641" y="387" type="curve" smooth="yes"/>
      <point x="496" y="387" type="line" smooth="yes"/>
      <point x="471" y="387"/>
      <point x="460" y="376"/>
      <point x="460" y="351" type="curve" smooth="yes"/>
      <point x="460" y="189" type="line"/>
      <point x="323" y="189" type="line"/>
      <point x="323" y="684" type="line" smooth="yes"/>
      <point x="323" y="709"/>
      <point x="312" y="720"/>
      <point x="287" y="720" type="curve" smooth="yes"/>
      <point x="132" y="720" type="line" smooth="yes"/>
      <point x="107" y="720"/>
      <point x="96" y="709"/>
      <point x="96" y="684" type="curve" smooth="yes"/>
      <point x="96" y="36" type="line" smooth="yes"/>
      <point x="96" y="11"/>
      <point x="107" y="0"/>
      <point x="132" y="0" type="curve" smooth="yes"/>
    </contour>
  </outline>
</glyph>
<glyph name="M.t" format="1">
  <advance width="750"/>
  <outline>
    <contour>
      <point x="221" y="0" type="line" smooth="yes"/>
      <point x="246" y="0"/>
      <point x="257" y="11"/>
      <point x="257" y="36" type="curve" smooth="yes"/>
      <point x="260" y="329" type="line"/>
      <point x="260" y="371" type="line"/>
      <point x="299" y="261" type="line"/>
      <point x="312" y="238"/>
      <point x="326" y="229"/>
      <point x="352" y="229" type="curve" smooth="yes"/>
      <point x="379" y="229" type="line" smooth="yes"/>
      <point x="405" y="229"/>
      <point x="419" y="238"/>
      <point x="432" y="261" type="curve"/>
      <point x="470" y="371" type="line"/>
      <point x="470" y="329" type="line"/>
      <point x="474" y="36" type="line" smooth="yes"/>
      <point x="474" y="11"/>
      <point x="485" y="0"/>
      <point x="510" y="0" type="curve" smooth="yes"/>
      <point x="661" y="0" type="line" smooth="yes"/>
      <point x="687" y="0"/>
      <point x="697" y="11"/>
      <point x="697" y="36" type="curve" smooth="yes"/>
      <point x="693" y="684" type="line" smooth="yes"/>
      <point x="693" y="709"/>
      <point x="683" y="720"/>
      <point x="657" y="720" type="curve" smooth="yes"/>
      <point x="517" y="720" type="line" smooth="yes"/>
      <point x="491" y="720"/>
      <point x="475" y="712"/>
      <point x="461" y="690" type="curve"/>
      <point x="383" y="514" type="line"/>
      <point x="359" y="514" type="line"/>
      <point x="289" y="690" type="line"/>
      <point x="276" y="713"/>
      <point x="250" y="720"/>
      <point x="224" y="720" type="curve" smooth="yes"/>
      <point x="93" y="720" type="line" smooth="yes"/>
      <point x="68" y="720"/>
      <point x="57" y="709"/>
      <point x="57" y="684" type="curve" smooth="yes"/>
      <point x="53" y="36" type="line" smooth="yes"/>
      <point x="53" y="11"/>
      <point x="64" y="0"/>
      <point x="89" y="0" type="curve" smooth="yes"/>
    </contour>
  </outline>
</glyph>
<glyph name="N.t" format="1">
  <advance width="750"/>
  <outline>
    <contour>
      <point x="263" y="0" type="line" smooth="yes"/>
      <point x="288" y="0"/>
      <point x="299" y="11"/>
      <point x="299" y="36" type="curve" smooth="yes"/>
      <point x="299" y="366" type="line"/>
      <point x="450" y="159" type="line"/>
      <point x="450" y="36" type="line" smooth="yes"/>
      <point x="450" y="11"/>
      <point x="461" y="0"/>
      <point x="486" y="0" type="curve" smooth="yes"/>
      <point x="636" y="0" type="line" smooth="yes"/>
      <point x="661" y="0"/>
      <point x="672" y="11"/>
      <point x="672" y="36" type="curve" smooth="yes"/>
      <point x="672" y="684" type="line" smooth="yes"/>
      <point x="672" y="709"/>
      <point x="661" y="720"/>
      <point x="636" y="720" type="curve" smooth="yes"/>
      <point x="486" y="720" type="line" smooth="yes"/>
      <point x="461" y="720"/>
      <point x="450" y="709"/>
      <point x="450" y="684" type="curve" smooth="yes"/>
      <point x="450" y="471" type="line"/>
      <point x="276" y="693" type="line" smooth="yes"/>
      <point x="260" y="714"/>
      <point x="243" y="720"/>
      <point x="217" y="720" type="curve" smooth="yes"/>
      <point x="113" y="720" type="line" smooth="yes"/>
      <point x="88" y="720"/>
      <point x="77" y="709"/>
      <point x="77" y="684" type="curve" smooth="yes"/>
      <point x="77" y="36" type="line" smooth="yes"/>
      <point x="77" y="11"/>
      <point x="88" y="0"/>
      <point x="113" y="0" type="curve" smooth="yes"/>
    </contour>
  </outline>
</glyph>
<glyph name="O.t" format="1">
  <advance width="750"/>
  <outline>
    <contour>
      <point x="685" y="189" type="curve" smooth="yes"/>
      <point x="685" y="530" type="line" smooth="yes"/>
      <point x="685" y="652"/>
      <point x="625" y="735"/>
      <point x="375" y="735" type="curve" smooth="yes"/>
      <point x="125" y="735"/>
      <point x="64" y="652"/>
      <point x="64" y="530" type="curve" smooth="yes"/>
      <point x="64" y="189" type="line" smooth="yes"/>
      <point x="64" y="67"/>
      <point x="125" y="-15"/>
      <point x="375" y="-15" type="curve" smooth="yes"/>
      <point x="625" y="-15"/>
      <point x="685" y="67"/>
    </contour>
    <contour>
      <point x="291" y="225" type="curve" smooth="yes"/>
      <point x="291" y="494" type="line" smooth="yes"/>
      <point x="291" y="520"/>
      <point x="303" y="540"/>
      <point x="375" y="540" type="curve" smooth="yes"/>
      <point x="448" y="540"/>
      <point x="459" y="520"/>
      <point x="459" y="494" type="curve" smooth="yes"/>
      <point x="459" y="225" type="line" smooth="yes"/>
      <point x="459" y="198"/>
      <point x="448" y="178"/>
      <point x="375" y="178" type="curve" smooth="yes"/>
      <point x="303" y="178"/>
      <point x="291" y="198"/>
    </contour>
  </outline>
</glyph>
<glyph name="P.t" format="1">
  <advance width="750"/>
  <outline>
    <contour>
      <point x="294" y="0" type="line" smooth="yes"/>
      <point x="319" y="0"/>
      <point x="330" y="11"/>
      <point x="330" y="36" type="curve" smooth="yes"/>
      <point x="330" y="202" type="line"/>
      <point x="445" y="202" type="line" smooth="yes"/>
      <point x="627" y="202"/>
      <point x="681" y="281"/>
      <point x="681" y="397" type="curve" smooth="yes"/>
      <point x="681" y="525" type="line" smooth="yes"/>
      <point x="681" y="641"/>
      <point x="627" y="720"/>
      <point x="445" y="720" type="curve" smooth="yes"/>
      <point x="139" y="720" type="line" smooth="yes"/>
      <point x="114" y="720"/>
      <point x="103" y="709"/>
      <point x="103" y="684" type="curve" smooth="yes"/>
      <point x="103" y="36" type="line" smooth="yes"/>
      <point x="103" y="11"/>
      <point x="114" y="0"/>
      <point x="139" y="0" type="curve" smooth="yes"/>
    </contour>
    <contour>
      <point x="328" y="533" type="line"/>
      <point x="418" y="533" type="line" smooth="yes"/>
      <point x="457" y="533"/>
      <point x="465" y="510"/>
      <point x="465" y="484" type="curve" smooth="yes"/>
      <point x="465" y="431" type="line" smooth="yes"/>
      <point x="465" y="405"/>
      <point x="457" y="382"/>
      <point x="418" y="382" type="curve" smooth="yes"/>
      <point x="328" y="382" type="line"/>
    </contour>
  </outline>
</glyph>
<glyph name="Q.t" format="1">
  <advance width="750"/>
  <outline>
    <contour>
      <point x="451" y="-90" type="line" smooth="yes"/>
      <point x="476" y="-90"/>
      <point x="487" y="-79"/>
      <point x="487" y="-54" type="curve" smooth="yes"/>
      <point x="487" y="1" type="line"/>
      <point x="644" y="23"/>
      <point x="685" y="97"/>
      <point x="685" y="198" type="curve" smooth="yes"/>
      <point x="685" y="530" type="line" smooth="yes"/>
      <point x="685" y="652"/>
      <point x="625" y="735"/>
      <point x="375" y="735" type="curve" smooth="yes"/>
      <point x="125" y="735"/>
      <point x="64" y="652"/>
      <point x="64" y="530" type="curve" smooth="yes"/>
      <point x="64" y="198" type="line" smooth="yes"/>
      <point x="64" y="97"/>
      <point x="106" y="24"/>
      <point x="261" y="1" type="curve"/>
      <point x="261" y="-54" type="line" smooth="yes"/>
      <point x="261" y="-79"/>
      <point x="272" y="-90"/>
      <point x="297" y="-90" type="curve" smooth="yes"/>
    </contour>
    <contour>
      <point x="291" y="220" type="curve" smooth="yes"/>
      <point x="291" y="493" type="line" smooth="yes"/>
      <point x="291" y="519"/>
      <point x="303" y="539"/>
      <point x="375" y="539" type="curve" smooth="yes"/>
      <point x="448" y="539"/>
      <point x="459" y="519"/>
      <point x="459" y="493" type="curve" smooth="yes"/>
      <point x="459" y="220" type="line" smooth="yes"/>
      <point x="459" y="193"/>
      <point x="448" y="173"/>
      <point x="375" y="173" type="curve" smooth="yes"/>
      <point x="303" y="173"/>
      <point x="291" y="193"/>
    </contour>
  </outline>
</glyph>
<glyph name="R.t" format="1">
  <advance width="750"/>
  <outline>
    <contour>
      <point x="262" y="0" type="line" smooth="yes"/>
      <point x="287" y="0"/>
      <point x="298" y="11"/>
      <point x="298" y="36" type="curve" smooth="yes"/>
      <point x="298" y="232" type="line"/>
      <point x="438" y="232" type="line" smooth="yes"/>
      <point x="466" y="232"/>
      <point x="476" y="219"/>
      <point x="476" y="189" type="curve" smooth="yes"/>
      <point x="476" y="36" type="line" smooth="yes"/>
      <point x="476" y="11"/>
      <point x="487" y="0"/>
      <point x="512" y="0" type="curve" smooth="yes"/>
      <point x="667" y="0" type="line" smooth="yes"/>
      <point x="692" y="0"/>
      <point x="703" y="11"/>
      <point x="703" y="36" type="curve" smooth="yes"/>
      <point x="703" y="248" type="line" smooth="yes"/>
      <point x="703" y="332"/>
      <point x="655" y="385"/>
      <point x="582" y="393" type="curve"/>
      <point x="624" y="411"/>
      <point x="638" y="451"/>
      <point x="638" y="507" type="curve" smooth="yes"/>
      <point x="638" y="553" type="line" smooth="yes"/>
      <point x="638" y="652"/>
      <point x="591" y="720"/>
      <point x="441" y="720" type="curve" smooth="yes"/>
      <point x="108" y="720" type="line" smooth="yes"/>
      <point x="83" y="720"/>
      <point x="72" y="709"/>
      <point x="72" y="684" type="curve" smooth="yes"/>
      <point x="72" y="36" type="line" smooth="yes"/>
      <point x="72" y="11"/>
      <point x="83" y="0"/>
      <point x="108" y="0" type="curve" smooth="yes"/>
    </contour>
    <contour>
      <point x="298" y="540" type="line"/>
      <point x="373" y="540" type="line" smooth="yes"/>
      <point x="408" y="540"/>
      <point x="417" y="520"/>
      <point x="417" y="493" type="curve" smooth="yes"/>
      <point x="417" y="459" type="line" smooth="yes"/>
      <point x="417" y="432"/>
      <point x="408" y="412"/>
      <point x="373" y="412" type="curve" smooth="yes"/>
      <point x="298" y="412" type="line"/>
    </contour>
  </outline>
</glyph>
<glyph name="S.t" format="1">
  <advance width="750"/>
  <outline>
    <contour>
      <point x="453" y="0" type="line" smooth="yes"/>
      <point x="582" y="0"/>
      <point x="660" y="62"/>
      <point x="660" y="176" type="curve" smooth="yes"/>
      <point x="660" y="281" type="line" smooth="yes"/>
      <point x="660" y="393"/>
      <point x="598" y="433"/>
      <point x="504" y="447" type="curve" smooth="yes"/>
      <point x="355" y="467" type="line" smooth="yes"/>
      <point x="338" y="469"/>
      <point x="328" y="481"/>
      <point x="328" y="499" type="curve" smooth="yes"/>
      <point x="328" y="517"/>
      <point x="338" y="529"/>
      <point x="355" y="529" type="curve" smooth="yes"/>
      <point x="588" y="529" type="line" smooth="yes"/>
      <point x="613" y="529"/>
      <point x="624" y="540"/>
      <point x="624" y="565" type="curve" smooth="yes"/>
      <point x="624" y="684" type="line" smooth="yes"/>
      <point x="624" y="709"/>
      <point x="613" y="720"/>
      <point x="588" y="720" type="curve" smooth="yes"/>
      <point x="308" y="720" type="line" smooth="yes"/>
      <point x="178" y="720"/>
      <point x="101" y="658"/>
      <point x="101" y="544" type="curve" smooth="yes"/>
      <point x="101" y="439" type="line" smooth="yes"/>
      <point x="101" y="327"/>
      <point x="162" y="287"/>
      <point x="256" y="273" type="curve" smooth="yes"/>
      <point x="406" y="252" type="line" smooth="yes"/>
      <point x="423" y="250"/>
      <point x="432" y="241"/>
      <point x="432" y="218" type="curve" smooth="yes"/>
      <point x="432" y="202"/>
      <point x="423" y="189"/>
      <point x="406" y="189" type="curve" smooth="yes"/>
      <point x="137" y="189" type="line" smooth="yes"/>
      <point x="112" y="189"/>
      <point x="101" y="178"/>
      <point x="101" y="153" type="curve" smooth="yes"/>
      <point x="101" y="36" type="line" smooth="yes"/>
      <point x="101" y="11"/>
      <point x="112" y="0"/>
      <point x="137" y="0" type="curve" smooth="yes"/>
    </contour>
  </outline>
</glyph>
<glyph name="T.t" format="1">
  <advance width="750"/>
  <outline>
    <contour>
      <point x="456" y="0" type="line" smooth="yes"/>
      <point x="481" y="0"/>
      <point x="492" y="11"/>
      <point x="492" y="36" type="curve" smooth="yes"/>
      <point x="492" y="527" type="line"/>
      <point x="659" y="527" type="line" smooth="yes"/>
      <point x="684" y="527"/>
      <point x="695" y="538"/>
      <point x="695" y="563" type="curve" smooth="yes"/>
      <point x="695" y="684" type="line" smooth="yes"/>
      <point x="695" y="709"/>
      <point x="684" y="720"/>
      <point x="659" y="720" type="curve" smooth="yes"/>
      <point x="91" y="720" type="line" smooth="yes"/>
      <point x="66" y="720"/>
      <point x="55" y="709"/>
      <point x="55" y="684" type="curve" smooth="yes"/>
      <point x="55" y="563" type="line" smooth="yes"/>
      <point x="55" y="538"/>
      <point x="66" y="527"/>
      <point x="91" y="527" type="curve" smooth="yes"/>
      <point x="258" y="527" type="line"/>
      <point x="258" y="36" type="line" smooth="yes"/>
      <point x="258" y="11"/>
      <point x="269" y="0"/>
      <point x="294" y="0" type="curve" smooth="yes"/>
    </contour>
  </outline>
</glyph>
<glyph name="U.t" format="1">
  <advance width="750"/>
  <outline>
    <contour>
      <point x="684" y="189" type="curve" smooth="yes"/>
      <point x="684" y="684" type="line" smooth="yes"/>
      <point x="684" y="709"/>
      <point x="673" y="720"/>
      <point x="648" y="720" type="curve" smooth="yes"/>
      <point x="496" y="720" type="line" smooth="yes"/>
      <point x="470" y="720"/>
      <point x="460" y="709"/>
      <point x="460" y="684" type="curve" smooth="yes"/>
      <point x="460" y="228" type="line" smooth="yes"/>
      <point x="460" y="201"/>
      <point x="448" y="181"/>
      <point x="377" y="181" type="curve" smooth="yes"/>
      <point x="307" y="181"/>
      <point x="295" y="201"/>
      <point x="295" y="228" type="curve" smooth="yes"/>
      <point x="295" y="684" type="line" smooth="yes"/>
      <point x="295" y="709"/>
      <point x="284" y="720"/>
      <point x="259" y="720" type="curve" smooth="yes"/>
      <point x="102" y="720" type="line" smooth="yes"/>
      <point x="77" y="720"/>
      <point x="66" y="709"/>
      <point x="66" y="684" type="curve" smooth="yes"/>
      <point x="66" y="189" type="line" smooth="yes"/>
      <point x="66" y="67"/>
      <point x="127" y="-15"/>
      <point x="375" y="-15" type="curve" smooth="yes"/>
      <point x="623" y="-15"/>
      <point x="684" y="67"/>
    </contour>
  </outline>
</glyph>
<glyph name="V.t" format="1">
  <advance width="750"/>
  <outline>
    <contour>
      <point x="505" y="0" type="line" smooth="yes"/>
      <point x="531" y="0"/>
      <point x="546" y="8"/>
      <point x="556" y="33" type="curve" smooth="yes"/>
      <point x="654" y="278" type="line" smooth="yes"/>
      <point x="678" y="338"/>
      <point x="686" y="357"/>
      <point x="686" y="420" type="curve" smooth="yes"/>
      <point x="686" y="684" type="line" smooth="yes"/>
      <point x="686" y="709"/>
      <point x="676" y="720"/>
      <point x="650" y="720" type="curve" smooth="yes"/>
      <point x="493" y="720" type="line" smooth="yes"/>
      <point x="468" y="720"/>
      <point x="457" y="709"/>
      <point x="457" y="684" type="curve" smooth="yes"/>
      <point x="457" y="409" type="line" smooth="yes"/>
      <point x="457" y="395"/>
      <point x="454" y="383"/>
      <point x="449" y="368" type="curve" smooth="yes"/>
      <point x="402" y="227" type="line" smooth="yes"/>
      <point x="398" y="214"/>
      <point x="394" y="210"/>
      <point x="383" y="210" type="curve" smooth="yes"/>
      <point x="372" y="210" type="line" smooth="yes"/>
      <point x="361" y="210"/>
      <point x="357" y="214"/>
      <point x="353" y="227" type="curve" smooth="yes"/>
      <point x="306" y="367" type="line" smooth="yes"/>
      <point x="301" y="382"/>
      <point x="298" y="394"/>
      <point x="298" y="408" type="curve" smooth="yes"/>
      <point x="298" y="684" type="line" smooth="yes"/>
      <point x="298" y="709"/>
      <point x="284" y="720"/>
      <point x="259" y="720" type="curve" smooth="yes"/>
      <point x="100" y="720" type="line" smooth="yes"/>
      <point x="75" y="720"/>
      <point x="64" y="709"/>
      <point x="64" y="684" type="curve" smooth="yes"/>
      <point x="64" y="420" type="line" smooth="yes"/>
      <point x="64" y="357"/>
      <point x="72" y="338"/>
      <point x="96" y="278" type="curve" smooth="yes"/>
      <point x="194" y="33" type="line" smooth="yes"/>
      <point x="204" y="8"/>
      <point x="219" y="0"/>
      <point x="245" y="0" type="curve"/>
    </contour>
    <contour>
      <point x="375" y="747" type="move" name="top"/>
    </contour>
    <contour>
      <point x="375" y="0" type="move" name="bottom"/>
    </contour>
  </outline>
</glyph>
<glyph name="W.t" format="1">
  <advance width="750"/>
  <outline>
    <contour>
      <point x="522" y="720" type="line" smooth="yes"/>
      <point x="497" y="720"/>
      <point x="491" y="709"/>
      <point x="491" y="684" type="curve" smooth="yes"/>
      <point x="488" y="372" type="line"/>
      <point x="488" y="341" type="line"/>
      <point x="448" y="459" type="line"/>
      <point x="435" y="481"/>
      <point x="421" y="490"/>
      <point x="395" y="490" type="curve" smooth="yes"/>
      <point x="364" y="490" type="line" smooth="yes"/>
      <point x="338" y="490"/>
      <point x="324" y="481"/>
      <point x="311" y="459" type="curve"/>
      <point x="271" y="341" type="line"/>
      <point x="271" y="372" type="line"/>
      <point x="267" y="684" type="line" smooth="yes"/>
      <point x="267" y="709"/>
      <point x="256" y="720"/>
      <point x="231" y="720" type="curve" smooth="yes"/>
      <point x="83" y="720" type="line" smooth="yes"/>
      <point x="58" y="720"/>
      <point x="47" y="709"/>
      <point x="47" y="684" type="curve" smooth="yes"/>
      <point x="51" y="318" type="line"/>
      <point x="51" y="256"/>
      <point x="51" y="242"/>
      <point x="69" y="174" type="curve" smooth="yes"/>
      <point x="105" y="36" type="line" smooth="yes"/>
      <point x="111" y="12"/>
      <point x="126" y="0"/>
      <point x="151" y="0" type="curve" smooth="yes"/>
      <point x="259" y="0" type="line" smooth="yes"/>
      <point x="290" y="0"/>
      <point x="303" y="10"/>
      <point x="309" y="30" type="curve" smooth="yes"/>
      <point x="362" y="206" type="line"/>
      <point x="386" y="206" type="line"/>
      <point x="439" y="30" type="line" smooth="yes"/>
      <point x="445" y="9"/>
      <point x="458" y="0"/>
      <point x="489" y="0" type="curve" smooth="yes"/>
      <point x="589" y="0" type="line" smooth="yes"/>
      <point x="614" y="0"/>
      <point x="627" y="12"/>
      <point x="633" y="36" type="curve" smooth="yes"/>
      <point x="669" y="172" type="line" smooth="yes"/>
      <point x="687" y="240"/>
      <point x="687" y="255"/>
      <point x="687" y="316" type="curve"/>
      <point x="691" y="684" type="line" smooth="yes"/>
      <point x="691" y="709"/>
      <point x="681" y="720"/>
      <point x="655" y="720" type="curve" smooth="yes"/>
    </contour>
    <contour>
      <point x="374" y="747" type="move" name="top"/>
    </contour>
    <contour>
      <point x="374" y="0" type="move" name="bottom"/>
    </contour>
    <contour>
      <point x="374" y="747" type="move" name="top"/>
    </contour>
    <contour>
      <point x="374" y="0" type="move" name="bottom"/>
    </contour>
  </outline>
</glyph>
<glyph name="X.t" format="1">
  <advance width="750"/>
  <outline>
    <contour>
      <point x="290" y="36" type="curve" smooth="yes"/>
      <point x="290" y="135" type="line" smooth="yes"/>
      <point x="290" y="149"/>
      <point x="289" y="163"/>
      <point x="299" y="177" type="curve" smooth="yes"/>
      <point x="344" y="240" type="line" smooth="yes"/>
      <point x="352" y="252"/>
      <point x="357" y="257"/>
      <point x="368" y="257" type="curve" smooth="yes"/>
      <point x="382" y="257" type="line" smooth="yes"/>
      <point x="393" y="257"/>
      <point x="398" y="252"/>
      <point x="406" y="240" type="curve" smooth="yes"/>
      <point x="450" y="177" type="line" smooth="yes"/>
      <point x="460" y="163"/>
      <point x="459" y="149"/>
      <point x="459" y="135" type="curve" smooth="yes"/>
      <point x="459" y="36" type="line" smooth="yes"/>
      <point x="459" y="11"/>
      <point x="470" y="0"/>
      <point x="495" y="0" type="curve" smooth="yes"/>
      <point x="647" y="0" type="line" smooth="yes"/>
      <point x="672" y="0"/>
      <point x="683" y="11"/>
      <point x="683" y="36" type="curve" smooth="yes"/>
      <point x="683" y="143" type="line" smooth="yes"/>
      <point x="683" y="205"/>
      <point x="676" y="225"/>
      <point x="645" y="266" type="curve" smooth="yes"/>
      <point x="564" y="374" type="line"/>
      <point x="645" y="484" type="line" smooth="yes"/>
      <point x="675" y="525"/>
      <point x="683" y="545"/>
      <point x="683" y="607" type="curve" smooth="yes"/>
      <point x="683" y="684" type="line" smooth="yes"/>
      <point x="683" y="709"/>
      <point x="672" y="720"/>
      <point x="647" y="720" type="curve" smooth="yes"/>
      <point x="495" y="720" type="line" smooth="yes"/>
      <point x="470" y="720"/>
      <point x="459" y="709"/>
      <point x="459" y="684" type="curve" smooth="yes"/>
      <point x="459" y="615" type="line" smooth="yes"/>
      <point x="459" y="601"/>
      <point x="459" y="586"/>
      <point x="450" y="573" type="curve" smooth="yes"/>
      <point x="405" y="510" type="line" smooth="yes"/>
      <point x="397" y="499"/>
      <point x="392" y="493"/>
      <point x="381" y="493" type="curve" smooth="yes"/>
      <point x="369" y="493" type="line" smooth="yes"/>
      <point x="358" y="493"/>
      <point x="352" y="499"/>
      <point x="345" y="510" type="curve" smooth="yes"/>
      <point x="301" y="573" type="line" smooth="yes"/>
      <point x="292" y="586"/>
      <point x="292" y="601"/>
      <point x="292" y="615" type="curve" smooth="yes"/>
      <point x="292" y="684" type="line" smooth="yes"/>
      <point x="292" y="709"/>
      <point x="281" y="720"/>
      <point x="256" y="720" type="curve" smooth="yes"/>
      <point x="102" y="720" type="line" smooth="yes"/>
      <point x="77" y="720"/>
      <point x="66" y="709"/>
      <point x="66" y="684" type="curve" smooth="yes"/>
      <point x="66" y="607" type="line" smooth="yes"/>
      <point x="66" y="545"/>
      <point x="73" y="525"/>
      <point x="104" y="484" type="curve" smooth="yes"/>
      <point x="185" y="375" type="line"/>
      <point x="104" y="266" type="line" smooth="yes"/>
      <point x="74" y="225"/>
      <point x="66" y="205"/>
      <point x="66" y="143" type="curve" smooth="yes"/>
      <point x="66" y="36" type="line" smooth="yes"/>
      <point x="66" y="11"/>
      <point x="77" y="0"/>
      <point x="102" y="0" type="curve" smooth="yes"/>
      <point x="254" y="0" type="line" smooth="yes"/>
      <point x="279" y="0"/>
      <point x="290" y="11"/>
    </contour>
    <contour>
      <point x="374" y="747" type="move" name="top"/>
    </contour>
    <contour>
      <point x="374" y="0" type="move" name="bottom"/>
    </contour>
  </outline>
</glyph>
<glyph name="Y.t" format="1">
  <advance width="750"/>
  <outline>
    <contour>
      <point x="492" y="36" type="curve" smooth="yes"/>
      <point x="492" y="163" type="line"/>
      <point x="644" y="369" type="line" smooth="yes"/>
      <point x="674" y="410"/>
      <point x="682" y="430"/>
      <point x="682" y="492" type="curve" smooth="yes"/>
      <point x="682" y="684" type="line" smooth="yes"/>
      <point x="682" y="709"/>
      <point x="671" y="720"/>
      <point x="646" y="720" type="curve" smooth="yes"/>
      <point x="497" y="720" type="line" smooth="yes"/>
      <point x="472" y="720"/>
      <point x="461" y="709"/>
      <point x="461" y="684" type="curve" smooth="yes"/>
      <point x="461" y="520" type="line" smooth="yes"/>
      <point x="461" y="506"/>
      <point x="461" y="492"/>
      <point x="452" y="478" type="curve" smooth="yes"/>
      <point x="406" y="406" type="line" smooth="yes"/>
      <point x="399" y="394"/>
      <point x="393" y="389"/>
      <point x="382" y="389" type="curve"/>
      <point x="372" y="389" type="line" smooth="yes"/>
      <point x="361" y="389"/>
      <point x="355" y="394"/>
      <point x="348" y="406" type="curve" smooth="yes"/>
      <point x="302" y="478" type="line" smooth="yes"/>
      <point x="293" y="492"/>
      <point x="293" y="506"/>
      <point x="293" y="520" type="curve" smooth="yes"/>
      <point x="293" y="684" type="line" smooth="yes"/>
      <point x="293" y="709"/>
      <point x="282" y="720"/>
      <point x="257" y="720" type="curve" smooth="yes"/>
      <point x="103" y="720" type="line" smooth="yes"/>
      <point x="78" y="720"/>
      <point x="67" y="709"/>
      <point x="67" y="684" type="curve" smooth="yes"/>
      <point x="67" y="492" type="line" smooth="yes"/>
      <point x="67" y="430"/>
      <point x="74" y="410"/>
      <point x="105" y="369" type="curve" smooth="yes"/>
      <point x="258" y="164" type="line"/>
      <point x="258" y="36" type="line" smooth="yes"/>
      <point x="258" y="11"/>
      <point x="268" y="0"/>
      <point x="294" y="0" type="curve" smooth="yes"/>
      <point x="456" y="0" type="line" smooth="yes"/>
      <point x="481" y="0"/>
      <point x="492" y="11"/>
    </contour>
    <contour>
      <point x="374" y="747" type="move" name="top"/>
    </contour>
    <contour>
      <point x="374" y="0" type="move" name="bottom"/>
    </contour>
  </outline>
</glyph>
<glyph name="Z.t" format="1">
  <advance width="750"/>
  <outline>
    <contour>
      <point x="623" y="0" type="line" smooth="yes"/>
      <point x="648" y="0"/>
      <point x="659" y="11"/>
      <point x="659" y="36" type="curve" smooth="yes"/>
      <point x="659" y="155" type="line" smooth="yes"/>
      <point x="659" y="180"/>
      <point x="648" y="191"/>
      <point x="623" y="191" type="curve" smooth="yes"/>
      <point x="384" y="191" type="line"/>
      <point x="616" y="472" type="line" smooth="yes"/>
      <point x="634" y="491"/>
      <point x="641" y="508"/>
      <point x="641" y="535" type="curve" smooth="yes"/>
      <point x="641" y="684" type="line" smooth="yes"/>
      <point x="641" y="709"/>
      <point x="630" y="720"/>
      <point x="605" y="720" type="curve" smooth="yes"/>
      <point x="145" y="720" type="line" smooth="yes"/>
      <point x="120" y="720"/>
      <point x="109" y="709"/>
      <point x="109" y="684" type="curve"/>
      <point x="109" y="563" type="line"/>
      <point x="109" y="538"/>
      <point x="120" y="527"/>
      <point x="145" y="527" type="curve" smooth="yes"/>
      <point x="359" y="527" type="line"/>
      <point x="116" y="232" type="line" smooth="yes"/>
      <point x="98" y="213"/>
      <point x="91" y="196"/>
      <point x="91" y="170" type="curve"/>
      <point x="91" y="36" type="line"/>
      <point x="91" y="11"/>
      <point x="102" y="0"/>
      <point x="127" y="0" type="curve" smooth="yes"/>
    </contour>
    <contour>
      <point x="375" y="747" type="move" name="top"/>
    </contour>
    <contour>
      <point x="375" y="0" type="move" name="bottom"/>
    </contour>
  </outline>
</glyph>
<glyph name="ampersand.t" format="1">
  <advance width="750"/>
  <outline>
    <contour>
      <point x="288" y="187" type="line" smooth="yes"/>
      <point x="256" y="187"/>
      <point x="250" y="201"/>
      <point x="250" y="217" type="curve" smooth="yes"/>
      <point x="250" y="248" type="line" smooth="yes"/>
      <point x="250" y="264"/>
      <point x="256" y="277"/>
      <point x="288" y="277" type="curve" smooth="yes"/>
      <point x="368" y="277" type="line" smooth="yes"/>
      <point x="393" y="277"/>
      <point x="404" y="288"/>
      <point x="404" y="313" type="curve" smooth="yes"/>
      <point x="404" y="416" type="line" smooth="yes"/>
      <point x="404" y="441"/>
      <point x="393" y="452"/>
      <point x="368" y="452" type="curve" smooth="yes"/>
      <point x="353" y="452" type="line" smooth="yes"/>
      <point x="321" y="452"/>
      <point x="315" y="466"/>
      <point x="315" y="482" type="curve" smooth="yes"/>
      <point x="315" y="503" type="line" smooth="yes"/>
      <point x="315" y="519"/>
      <point x="321" y="533"/>
      <point x="353" y="533" type="curve" smooth="yes"/>
      <point x="499" y="533" type="line" smooth="yes"/>
      <point x="524" y="533"/>
      <point x="535" y="544"/>
      <point x="535" y="569" type="curve" smooth="yes"/>
      <point x="535" y="684" type="line" smooth="yes"/>
      <point x="535" y="709"/>
      <point x="524" y="720"/>
      <point x="499" y="720" type="curve" smooth="yes"/>
      <point x="288" y="720" type="line" smooth="yes"/>
      <point x="152" y="720"/>
      <point x="96" y="655"/>
      <point x="96" y="567" type="curve" smooth="yes"/>
      <point x="96" y="519" type="line" smooth="yes"/>
      <point x="96" y="468"/>
      <point x="111" y="430"/>
      <point x="155" y="411" type="curve"/>
      <point x="83" y="404"/>
      <point x="29" y="350"/>
      <point x="29" y="256" type="curve" smooth="yes"/>
      <point x="29" y="176" type="line" smooth="yes"/>
      <point x="29" y="69"/>
      <point x="95" y="0"/>
      <point x="218" y="0" type="curve" smooth="yes"/>
      <point x="496" y="0" type="line" smooth="yes"/>
      <point x="612" y="0"/>
      <point x="675" y="69"/>
      <point x="675" y="176" type="curve" smooth="yes"/>
      <point x="675" y="221" type="line"/>
      <point x="698" y="221" type="line" smooth="yes"/>
      <point x="723" y="221"/>
      <point x="734" y="232"/>
      <point x="734" y="257" type="curve" smooth="yes"/>
      <point x="734" y="365" type="line" smooth="yes"/>
      <point x="734" y="391"/>
      <point x="723" y="401"/>
      <point x="698" y="401" type="curve" smooth="yes"/>
      <point x="504" y="401" type="line" smooth="yes"/>
      <point x="479" y="401"/>
      <point x="468" y="390"/>
      <point x="468" y="365" type="curve" smooth="yes"/>
      <point x="468" y="227" type="line" smooth="yes"/>
      <point x="468" y="200"/>
      <point x="459" y="187"/>
      <point x="430" y="187" type="curve" smooth="yes"/>
    </contour>
  </outline>
</glyph>
<glyph name="asciicircum.t" format="1">
  <advance width="750"/>
  <outline>
    <contour>
      <point x="58" y="208" type="line"/>
      <point x="53" y="183"/>
      <point x="63" y="172"/>
      <point x="88" y="172" type="curve" smooth="yes"/>
      <point x="220" y="171" type="line" smooth="yes"/>
      <point x="246" y="170"/>
      <point x="258" y="181"/>
      <point x="261" y="206" type="curve" smooth="yes"/>
      <point x="339" y="495" type="line" smooth="yes"/>
      <point x="342" y="509"/>
      <point x="345" y="513"/>
      <point x="358" y="512" type="curve" smooth="yes"/>
      <point x="370" y="513"/>
      <point x="373" y="509"/>
      <point x="376" y="495" type="curve" smooth="yes"/>
      <point x="454" y="206" type="line" smooth="yes"/>
      <point x="457" y="181"/>
      <point x="469" y="170"/>
      <point x="495" y="171" type="curve" smooth="yes"/>
      <point x="627" y="172" type="line" smooth="yes"/>
      <point x="652" y="172"/>
      <point x="662" y="183"/>
      <point x="657" y="208" type="curve" smooth="yes"/>
      <point x="549" y="589" type="line" smooth="yes"/>
      <point x="524" y="672"/>
      <point x="493" y="717"/>
      <point x="394" y="717" type="curve" smooth="yes"/>
      <point x="321" y="717" type="line" smooth="yes"/>
      <point x="222" y="717"/>
      <point x="190" y="672"/>
      <point x="166" y="589" type="curve" smooth="yes"/>
    </contour>
  </outline>
</glyph>
<glyph name="asciitilde.t" format="1">
  <advance width="750"/>
  <outline>
    <contour>
      <point x="375" y="277" type="line"/>
      <point x="398" y="274" type="line" smooth="yes"/>
      <point x="511" y="257"/>
      <point x="532" y="250"/>
      <point x="635" y="286" type="curve" smooth="yes"/>
      <point x="653" y="293"/>
      <point x="672" y="304"/>
      <point x="672" y="339" type="curve" smooth="yes"/>
      <point x="672" y="438" type="line" smooth="yes"/>
      <point x="672" y="468"/>
      <point x="655" y="479"/>
      <point x="620" y="469" type="curve" smooth="yes"/>
      <point x="537" y="444"/>
      <point x="531" y="440"/>
      <point x="406" y="458" type="curve" smooth="yes"/>
      <point x="375" y="462" type="line"/>
      <point x="351" y="465" type="line" smooth="yes"/>
      <point x="237" y="482"/>
      <point x="218" y="489"/>
      <point x="115" y="453" type="curve" smooth="yes"/>
      <point x="95" y="446"/>
      <point x="78" y="435"/>
      <point x="78" y="400" type="curve" smooth="yes"/>
      <point x="78" y="294" type="line" smooth="yes"/>
      <point x="78" y="271"/>
      <point x="95" y="260"/>
      <point x="129" y="269" type="curve"/>
      <point x="204" y="292"/>
      <point x="227" y="298"/>
      <point x="335" y="282" type="curve"/>
    </contour>
  </outline>
</glyph>
<glyph name="asterisk.t" format="1">
  <advance width="750"/>
  <outline>
    <contour>
      <point x="302" y="165" type="curve" smooth="yes"/>
      <point x="375" y="306" type="line"/>
      <point x="449" y="165" type="line" smooth="yes"/>
      <point x="465" y="137"/>
      <point x="472" y="134"/>
      <point x="501" y="153" type="curve" smooth="yes"/>
      <point x="595" y="221" type="line" smooth="yes"/>
      <point x="623" y="241"/>
      <point x="624" y="250"/>
      <point x="601" y="275" type="curve" smooth="yes"/>
      <point x="491" y="390" type="line"/>
      <point x="644" y="415" type="line" smooth="yes"/>
      <point x="678" y="421"/>
      <point x="683" y="428"/>
      <point x="672" y="461" type="curve" smooth="yes"/>
      <point x="635" y="572" type="line" smooth="yes"/>
      <point x="624" y="605"/>
      <point x="616" y="609"/>
      <point x="586" y="594" type="curve" smooth="yes"/>
      <point x="449" y="530" type="line"/>
      <point x="469" y="679" type="line" smooth="yes"/>
      <point x="475" y="713"/>
      <point x="469" y="720"/>
      <point x="435" y="720" type="curve" smooth="yes"/>
      <point x="318" y="720" type="line" smooth="yes"/>
      <point x="284" y="720"/>
      <point x="277" y="713"/>
      <point x="282" y="679" type="curve" smooth="yes"/>
      <point x="305" y="530" type="line"/>
      <point x="163" y="594" type="line" smooth="yes"/>
      <point x="133" y="609"/>
      <point x="124" y="605"/>
      <point x="114" y="572" type="curve" smooth="yes"/>
      <point x="78" y="461" type="line" smooth="yes"/>
      <point x="67" y="428"/>
      <point x="72" y="421"/>
      <point x="106" y="415" type="curve" smooth="yes"/>
      <point x="258" y="390" type="line"/>
      <point x="149" y="275" type="line" smooth="yes"/>
      <point x="126" y="250"/>
      <point x="127" y="241"/>
      <point x="155" y="221" type="curve" smooth="yes"/>
      <point x="249" y="153" type="line"/>
      <point x="278" y="134"/>
      <point x="286" y="137"/>
    </contour>
  </outline>
</glyph>
<glyph name="at.t" format="1">
  <advance width="750"/>
  <outline>
    <contour>
      <point x="748" y="304" type="curve" smooth="yes"/>
      <point x="748" y="564" type="line" smooth="yes"/>
      <point x="748" y="711"/>
      <point x="676" y="811"/>
      <point x="375" y="811" type="curve" smooth="yes"/>
      <point x="75" y="811"/>
      <point x="1" y="711"/>
      <point x="1" y="564" type="curve" smooth="yes"/>
      <point x="1" y="154" type="line" smooth="yes"/>
      <point x="1" y="8"/>
      <point x="75" y="-91"/>
      <point x="375" y="-91" type="curve" smooth="yes"/>
      <point x="565" y="-91" type="line" smooth="yes"/>
      <point x="590" y="-91"/>
      <point x="599" y="-82"/>
      <point x="599" y="-57" type="curve" smooth="yes"/>
      <point x="599" y="-29" type="line" smooth="yes"/>
      <point x="599" y="-4"/>
      <point x="590" y="5"/>
      <point x="565" y="5" type="curve" smooth="yes"/>
      <point x="375" y="5" type="line" smooth="yes"/>
      <point x="155" y="5"/>
      <point x="101" y="64"/>
      <point x="101" y="150" type="curve" smooth="yes"/>
      <point x="101" y="568" type="line" smooth="yes"/>
      <point x="101" y="655"/>
      <point x="155" y="715"/>
      <point x="375" y="715" type="curve" smooth="yes"/>
      <point x="595" y="715"/>
      <point x="648" y="655"/>
      <point x="648" y="568" type="curve" smooth="yes"/>
      <point x="648" y="302" type="line" smooth="yes"/>
      <point x="648" y="249"/>
      <point x="638" y="211"/>
      <point x="586" y="211" type="curve"/>
      <point x="586" y="560" type="line" smooth="yes"/>
      <point x="586" y="578"/>
      <point x="578" y="586"/>
      <point x="560" y="586" type="curve" smooth="yes"/>
      <point x="335" y="586" type="line" smooth="yes"/>
      <point x="199" y="586"/>
      <point x="159" y="527"/>
      <point x="159" y="439" type="curve" smooth="yes"/>
      <point x="159" y="246" type="line" smooth="yes"/>
      <point x="159" y="159"/>
      <point x="199" y="100"/>
      <point x="335" y="100" type="curve" smooth="yes"/>
      <point x="524" y="100" type="line" smooth="yes"/>
      <point x="712" y="100"/>
      <point x="748" y="182"/>
    </contour>
    <contour>
      <point x="356" y="237" type="line"/>
      <point x="329" y="237"/>
      <point x="322" y="251"/>
      <point x="322" y="271" type="curve" smooth="yes"/>
      <point x="322" y="422" type="line" smooth="yes"/>
      <point x="322" y="440"/>
      <point x="328" y="458"/>
      <point x="366" y="458" type="curve" smooth="yes"/>
      <point x="423" y="458" type="line"/>
      <point x="423" y="237" type="line"/>
    </contour>
  </outline>
</glyph>
<glyph name="backslash.t" format="1">
  <advance width="750"/>
  <outline>
    <contour>
      <point x="423" y="774" type="line" smooth="yes"/>
      <point x="420" y="799"/>
      <point x="412" y="810"/>
      <point x="387" y="810" type="curve" smooth="yes"/>
      <point x="242" y="810" type="line" smooth="yes"/>
      <point x="217" y="810"/>
      <point x="203" y="799"/>
      <point x="206" y="774" type="curve" smooth="yes"/>
      <point x="326" y="-54" type="line" smooth="yes"/>
      <point x="329" y="-79"/>
      <point x="337" y="-90"/>
      <point x="362" y="-90" type="curve" smooth="yes"/>
      <point x="507" y="-90" type="line" smooth="yes"/>
      <point x="532" y="-90"/>
      <point x="546" y="-79"/>
      <point x="543" y="-54" type="curve" smooth="yes"/>
    </contour>
  </outline>
</glyph>
<glyph name="bar.t" format="1">
  <advance width="750"/>
  <outline>
    <contour>
      <point x="483" y="774" type="line" smooth="yes"/>
      <point x="483" y="799"/>
      <point x="472" y="810"/>
      <point x="447" y="810" type="curve" smooth="yes"/>
      <point x="302" y="810" type="line" smooth="yes"/>
      <point x="277" y="810"/>
      <point x="266" y="799"/>
      <point x="266" y="774" type="curve" smooth="yes"/>
      <point x="266" y="-54" type="line" smooth="yes"/>
      <point x="266" y="-79"/>
      <point x="277" y="-90"/>
      <point x="302" y="-90" type="curve" smooth="yes"/>
      <point x="447" y="-90" type="line" smooth="yes"/>
      <point x="472" y="-90"/>
      <point x="483" y="-79"/>
      <point x="483" y="-54" type="curve"/>
    </contour>
  </outline>
</glyph>
<glyph name="braceright.t" format="1">
  <advance width="750"/>
  <outline>
    <contour>
      <point x="290" y="161" type="line"/>
      <point x="290" y="126"/>
      <point x="281" y="111"/>
      <point x="249" y="111" type="curve" smooth="yes"/>
      <point x="228" y="111" type="line" smooth="yes"/>
      <point x="203" y="111"/>
      <point x="192" y="100"/>
      <point x="192" y="75" type="curve" smooth="yes"/>
      <point x="192" y="-44" type="line" smooth="yes"/>
      <point x="192" y="-69"/>
      <point x="203" y="-80"/>
      <point x="228" y="-80" type="curve" smooth="yes"/>
      <point x="272" y="-80" type="line" smooth="yes"/>
      <point x="461" y="-80"/>
      <point x="518" y="3"/>
      <point x="518" y="124" type="curve" smooth="yes"/>
      <point x="518" y="254" type="line"/>
      <point x="561" y="267"/>
      <point x="582" y="293"/>
      <point x="582" y="341" type="curve" smooth="yes"/>
      <point x="582" y="376" type="line" smooth="yes"/>
      <point x="582" y="424"/>
      <point x="561" y="449"/>
      <point x="518" y="462" type="curve"/>
      <point x="518" y="595" type="line" smooth="yes"/>
      <point x="518" y="717"/>
      <point x="461" y="800"/>
      <point x="272" y="800" type="curve" smooth="yes"/>
      <point x="228" y="800" type="line" smooth="yes"/>
      <point x="203" y="800"/>
      <point x="192" y="789"/>
      <point x="192" y="764" type="curve" smooth="yes"/>
      <point x="192" y="643" type="line" smooth="yes"/>
      <point x="192" y="618"/>
      <point x="203" y="607"/>
      <point x="228" y="607" type="curve" smooth="yes"/>
      <point x="249" y="607" type="line" smooth="yes"/>
      <point x="281" y="607"/>
      <point x="290" y="592"/>
      <point x="290" y="557" type="curve" smooth="yes"/>
      <point x="290" y="440" type="line" smooth="yes"/>
      <point x="290" y="400"/>
      <point x="300" y="384"/>
      <point x="335" y="378" type="curve" smooth="yes"/>
      <point x="368" y="372" type="line"/>
      <point x="378" y="371"/>
      <point x="381" y="367"/>
      <point x="381" y="358" type="curve" smooth="yes"/>
      <point x="381" y="349"/>
      <point x="378" y="346"/>
      <point x="368" y="344" type="curve" smooth="yes"/>
      <point x="335" y="338" type="line" smooth="yes"/>
      <point x="300" y="332"/>
      <point x="290" y="316"/>
      <point x="290" y="276" type="curve" smooth="yes"/>
    </contour>
  </outline>
</glyph>
<glyph name="bracketleft.t" format="1">
  <advance width="750"/>
  <outline>
    <contour>
      <point x="436" y="607" type="line"/>
      <point x="508" y="607" type="line" smooth="yes"/>
      <point x="533" y="607"/>
      <point x="544" y="618"/>
      <point x="544" y="643" type="curve" smooth="yes"/>
      <point x="544" y="764" type="line" smooth="yes"/>
      <point x="544" y="789"/>
      <point x="533" y="800"/>
      <point x="508" y="800" type="curve" smooth="yes"/>
      <point x="244" y="800" type="line" smooth="yes"/>
      <point x="219" y="800"/>
      <point x="208" y="789"/>
      <point x="208" y="764" type="curve" smooth="yes"/>
      <point x="208" y="-44" type="line" smooth="yes"/>
      <point x="208" y="-69"/>
      <point x="219" y="-80"/>
      <point x="244" y="-80" type="curve" smooth="yes"/>
      <point x="508" y="-80" type="line" smooth="yes"/>
      <point x="533" y="-80"/>
      <point x="544" y="-69"/>
      <point x="544" y="-44" type="curve" smooth="yes"/>
      <point x="544" y="75" type="line" smooth="yes"/>
      <point x="544" y="100"/>
      <point x="533" y="111"/>
      <point x="508" y="111" type="curve" smooth="yes"/>
      <point x="436" y="111" type="line"/>
    </contour>
  </outline>
</glyph>
<glyph name="bracketright.t" format="1">
  <advance width="750"/>
  <outline>
    <contour>
      <point x="313" y="111" type="line"/>
      <point x="241" y="111" type="line" smooth="yes"/>
      <point x="216" y="111"/>
      <point x="205" y="100"/>
      <point x="205" y="75" type="curve" smooth="yes"/>
      <point x="205" y="-44" type="line" smooth="yes"/>
      <point x="205" y="-69"/>
      <point x="216" y="-80"/>
      <point x="241" y="-80" type="curve" smooth="yes"/>
      <point x="505" y="-80" type="line" smooth="yes"/>
      <point x="530" y="-80"/>
      <point x="541" y="-69"/>
      <point x="541" y="-44" type="curve" smooth="yes"/>
      <point x="541" y="764" type="line" smooth="yes"/>
      <point x="541" y="789"/>
      <point x="530" y="800"/>
      <point x="505" y="800" type="curve" smooth="yes"/>
      <point x="241" y="800" type="line" smooth="yes"/>
      <point x="216" y="800"/>
      <point x="205" y="789"/>
      <point x="205" y="764" type="curve" smooth="yes"/>
      <point x="205" y="643" type="line" smooth="yes"/>
      <point x="205" y="618"/>
      <point x="216" y="607"/>
      <point x="241" y="607" type="curve" smooth="yes"/>
      <point x="313" y="607" type="line"/>
    </contour>
  </outline>
</glyph>
<glyph name="colon.t" format="1">
  <advance width="750"/>
  <outline>
    <contour>
      <point x="476" y="355" type="line" smooth="yes"/>
      <point x="501" y="355"/>
      <point x="512" y="366"/>
      <point x="512" y="391" type="curve" smooth="yes"/>
      <point x="512" y="594" type="line" smooth="yes"/>
      <point x="512" y="620"/>
      <point x="501" y="630"/>
      <point x="476" y="630" type="curve" smooth="yes"/>
      <point x="274" y="630" type="line" smooth="yes"/>
      <point x="249" y="630"/>
      <point x="238" y="620"/>
      <point x="238" y="594" type="curve"/>
      <point x="238" y="391" type="line"/>
      <point x="238" y="366"/>
      <point x="249" y="355"/>
      <point x="274" y="355" type="curve" smooth="yes"/>
    </contour>
    <contour>
      <point x="476" y="0" type="line" smooth="yes"/>
      <point x="501" y="0"/>
      <point x="512" y="11"/>
      <point x="512" y="36" type="curve" smooth="yes"/>
      <point x="512" y="239" type="line" smooth="yes"/>
      <point x="512" y="265"/>
      <point x="501" y="275"/>
      <point x="476" y="275" type="curve" smooth="yes"/>
      <point x="274" y="275" type="line" smooth="yes"/>
      <point x="249" y="275"/>
      <point x="238" y="265"/>
      <point x="238" y="239" type="curve"/>
      <point x="238" y="36" type="line"/>
      <point x="238" y="11"/>
      <point x="249" y="0"/>
      <point x="274" y="0" type="curve" smooth="yes"/>
    </contour>
  </outline>
</glyph>
